<svg width="41" height="41" viewBox="0 0 41 41" fill="none" xmlns="http://www.w3.org/2000/svg">
<g id="coupon" clip-path="url(#clip0_393_70911)">
<g id="vector">
<path id="Vector" d="M29.8903 5.99294C29.9687 5.91458 30.0475 5.84531 30.1381 5.7648C30.2183 5.69427 30.2834 5.60815 30.3293 5.51187C30.3751 5.4156 30.4007 5.31125 30.4043 5.20542C30.4084 5.09976 30.3908 4.9948 30.3527 4.89697C30.3147 4.79914 30.2569 4.7105 30.1829 4.63645L27.127 1.58055C26.5507 1.00554 25.7654 0.687073 24.9434 0.69502C24.1214 0.702968 23.3298 1.03668 22.7423 1.62294L1.71355 22.6517C1.12735 23.2392 0.793674 24.0308 0.785726 24.8528C0.777779 25.6748 1.09621 26.4601 1.67116 27.0364L4.72706 30.0923C4.80257 30.1655 4.89251 30.2223 4.99139 30.2592C5.09026 30.2961 5.19601 30.3124 5.30218 30.3069C5.40918 30.3015 5.51439 30.2745 5.61151 30.2276C5.70862 30.1807 5.79564 30.1148 5.86733 30.0339C5.93658 29.9562 6.0053 29.8779 6.08366 29.7996C6.62456 29.265 7.3486 28.9584 8.10186 28.9451C8.85511 28.9318 9.57819 29.2127 10.1174 29.7282C10.5606 30.199 10.8376 30.8029 10.9074 31.4506C10.9771 32.0983 10.8358 32.7553 10.5045 33.3242C10.3459 33.6101 10.1319 33.8622 9.87517 34.0653C9.79476 34.1358 9.72955 34.222 9.68366 34.3183C9.63777 34.4147 9.6122 34.5191 9.60856 34.625C9.60424 34.7308 9.62159 34.8358 9.65955 34.9338C9.69751 35.0317 9.75528 35.1204 9.82929 35.1945L12.8852 38.2504C13.4615 38.8254 14.2468 39.1438 15.0688 39.1359C15.8908 39.1279 16.6824 38.7942 17.2699 38.208L38.2986 17.1793C38.8849 16.5918 39.2186 15.8002 39.2266 14.9782C39.2345 14.1561 38.916 13.3708 38.341 12.7946L35.2851 9.73868C35.2106 9.66486 35.1216 9.6073 35.0234 9.56951C34.9252 9.53172 34.8199 9.5145 34.7141 9.5189C34.6076 9.52209 34.5026 9.5477 34.406 9.59405C34.3093 9.6404 34.2231 9.70645 34.153 9.78788C33.9503 10.043 33.6993 10.2559 33.4148 10.4139C32.8459 10.7452 32.1889 10.8865 31.5412 10.8167C30.8935 10.747 30.2896 10.47 29.8188 10.0267C29.3031 9.48766 29.022 8.76452 29.0354 8.01117C29.0487 7.25782 29.3554 6.53373 29.8903 5.99294ZM28.692 11.1132C29.3933 11.8044 30.3061 12.2425 31.2909 12.3605C32.2757 12.4785 33.2783 12.27 34.1454 11.7667C34.3468 11.6564 34.5381 11.5284 34.7173 11.3844L37.2343 13.9014C37.5217 14.1895 37.6809 14.5822 37.677 14.9932C37.673 15.4042 37.5062 15.8 37.2131 16.0937L21.2229 32.0839L20.62 31.4809C20.476 31.337 20.2797 31.2572 20.0741 31.2592C19.8685 31.2612 19.6706 31.3448 19.5238 31.4915C19.377 31.6383 19.2935 31.8362 19.2915 32.0418C19.2895 32.2474 19.3693 32.4437 19.5132 32.5877L20.1161 33.1906L16.1843 37.1225C15.8906 37.4156 15.4948 37.5825 15.0838 37.5865C14.6727 37.5904 14.2801 37.4312 13.992 37.1436L11.475 34.6267C11.6191 34.4475 11.747 34.256 11.8573 34.0546C12.3606 33.1875 12.5691 32.1849 12.4511 31.2001C12.3331 30.2153 11.895 29.3024 11.2038 28.6012C10.4225 27.8555 9.38919 27.4277 8.29972 27.3988C7.21025 27.3699 6.14027 27.7418 5.29251 28.4442L2.77793 25.9296C2.4904 25.6415 2.33115 25.2488 2.33512 24.8378C2.3391 24.4268 2.50597 24.031 2.79913 23.7373L6.73095 19.8054L7.33394 20.4084C7.47789 20.5524 7.67426 20.6321 7.87983 20.6302C8.0854 20.6282 8.28335 20.5446 8.43011 20.3978C8.57688 20.2511 8.66045 20.0531 8.66244 19.8475C8.66443 19.642 8.58467 19.4456 8.44071 19.3016L7.83773 18.6987L23.8279 2.70852C24.1216 2.41542 24.5174 2.24858 24.9284 2.24461C25.3394 2.24064 25.7321 2.39985 26.0202 2.68732L28.5349 5.20196C27.8324 6.04965 27.4603 7.11964 27.4892 8.20913C27.5182 9.29863 27.9463 10.3319 28.692 11.1132ZM17.41 28.271L18.0705 28.9314C18.2145 29.0754 18.2942 29.2718 18.2922 29.4773C18.2902 29.6829 18.2067 29.8809 18.0599 30.0276C17.9131 30.1744 17.7152 30.258 17.5096 30.2599C17.304 30.2619 17.1077 30.1822 16.9637 30.0382L16.3033 29.3778C16.1593 29.2338 16.0795 29.0374 16.0815 28.8319C16.0835 28.6263 16.1671 28.4283 16.3139 28.2816C16.4606 28.1348 16.6586 28.0512 16.8641 28.0492C17.0697 28.0473 17.2661 28.127 17.41 28.271ZM14.2001 25.061L14.8606 25.7215C15.0045 25.8654 15.0843 26.0618 15.0823 26.2674C15.0803 26.473 14.9967 26.6709 14.85 26.8177C14.7032 26.9644 14.5052 27.048 14.2997 27.05C14.0941 27.052 13.8977 26.9722 13.7538 26.8283L13.0933 26.1678C12.9494 26.0238 12.8696 25.8275 12.8716 25.6219C12.8736 25.4163 12.9571 25.2184 13.1039 25.0716C13.2507 24.9249 13.4486 24.8413 13.6542 24.8393C13.8598 24.8373 14.0561 24.9171 14.2001 25.061ZM10.9901 21.8511L11.6506 22.5115C11.7946 22.6555 11.8743 22.8519 11.8723 23.0574C11.8703 23.263 11.7868 23.461 11.64 23.6077C11.4932 23.7545 11.2953 23.8381 11.0897 23.84C10.8842 23.842 10.6878 23.7623 10.5438 23.6183L9.88336 22.9579C9.73941 22.8139 9.65965 22.6175 9.66164 22.412C9.66363 22.2064 9.7472 22.0084 9.89396 21.8617C10.0407 21.7149 10.2387 21.6313 10.4442 21.6294C10.6498 21.6274 10.8462 21.7071 10.9901 21.8511ZM22.6357 12.8241L22.5339 23.3853C22.5284 23.5885 22.4433 23.783 22.297 23.9269C22.1507 24.0707 21.9548 24.1525 21.7515 24.1544C21.5483 24.1564 21.354 24.0784 21.2104 23.9374C21.0668 23.7963 20.9855 23.6034 20.9839 23.4003L21.0857 12.8391C21.0908 12.6356 21.1756 12.4407 21.322 12.2965C21.4684 12.1522 21.6645 12.0703 21.8681 12.0683C22.0716 12.0663 22.2662 12.1445 22.4098 12.2859C22.5535 12.4273 22.6346 12.6206 22.6357 12.8241ZM19.692 18.1326C19.6984 17.5346 19.4972 16.957 19.1227 16.4981C18.7483 16.0393 18.2237 15.7276 17.6385 15.6162C17.0533 15.5047 16.4436 15.6005 15.9134 15.8872C15.3831 16.1738 14.9652 16.6336 14.7308 17.1881C14.4963 17.7426 14.4599 18.3576 14.6278 18.9281C14.7956 19.4987 15.1573 19.9896 15.6512 20.3171C16.145 20.6446 16.7405 20.7885 17.3362 20.7242C17.9318 20.6599 18.4907 20.3914 18.9175 19.9645C19.4062 19.4758 19.6849 18.8171 19.692 18.1326ZM16.0794 18.1677C16.0814 17.9639 16.1439 17.764 16.2588 17.5934C16.3737 17.4228 16.536 17.2891 16.7251 17.2093C16.9142 17.1295 17.1217 17.1071 17.3213 17.1449C17.5208 17.1828 17.7036 17.2792 17.8463 17.422C17.9891 17.5647 18.0855 17.7475 18.1234 17.947C18.1612 18.1466 18.1388 18.3541 18.059 18.5432C17.9792 18.7323 17.8455 18.8946 17.6749 19.0095C17.5043 19.1244 17.3045 19.1869 17.1006 19.1889C16.965 19.1906 16.831 19.1655 16.7061 19.1151C16.5813 19.0646 16.4682 18.9897 16.3733 18.8948C16.2783 18.7999 16.2035 18.6868 16.153 18.5619C16.1026 18.4371 16.0777 18.3033 16.0794 18.1677ZM23.9281 18.0918C23.9231 18.6024 24.0696 19.1 24.3491 19.5217C24.6286 19.9435 25.0285 20.2704 25.4983 20.4612C25.968 20.6521 26.4865 20.6982 26.9882 20.5937C27.4899 20.4893 27.9522 20.239 28.3167 19.8746C28.6812 19.5101 28.9314 19.0478 29.0359 18.5461C29.1403 18.0444 29.0942 17.5259 28.9034 17.0562C28.7125 16.5864 28.3856 16.1865 27.9638 15.907C27.5421 15.6275 27.0445 15.481 26.534 15.4859C25.8543 15.5082 25.2043 15.7914 24.7189 16.2766C24.2335 16.7617 23.9506 17.4122 23.9281 18.0918ZM27.5401 18.0572C27.5312 18.3287 27.4181 18.5883 27.2243 18.7822C27.0304 18.976 26.7708 19.0891 26.4993 19.098C26.2954 19.1 26.0967 19.0415 25.9282 18.9298C25.7598 18.8182 25.6292 18.6585 25.553 18.4708C25.4768 18.2832 25.4584 18.0761 25.5001 17.8758C25.5418 17.6754 25.6417 17.4908 25.7873 17.3452C25.9329 17.1996 26.1175 17.0997 26.3179 17.058C26.5183 17.0162 26.7253 17.0347 26.913 17.1109C27.1006 17.1871 27.2603 17.3177 27.3719 17.4861C27.4836 17.6546 27.5421 17.8533 27.5401 18.0572Z" fill="#FFD500"/>
</g>
</g>
<defs>
<clipPath id="clip0_393_70911">
<rect width="40" height="40" fill="white" transform="translate(0.5 0.865234)"/>
</clipPath>
</defs>
</svg>
