<svg width="118" height="35" viewBox="0 0 118 35" fill="none" xmlns="http://www.w3.org/2000/svg">
<path d="M116.724 30.8513C116.724 32.6504 115.238 34.1077 113.4 34.1077H4.60091C2.76345 34.1077 1.27197 32.6504 1.27197 30.8513V4.88259C1.27197 3.08435 2.76345 1.62195 4.60091 1.62195H113.399C115.238 1.62195 116.723 3.08435 116.723 4.88259L116.724 30.8513Z" fill="white"/>
<path d="M113.4 34.8652H4.60069C2.34006 34.8652 0.5 33.0653 0.5 30.8513V4.88344C0.5 2.66773 2.34006 0.865234 4.60069 0.865234H113.399C115.657 0.865234 117.499 2.66773 117.499 4.88344V30.8513C117.501 33.0653 115.658 34.8652 113.4 34.8652Z" fill="#A6A6A6"/>
<path d="M116.724 30.8513C116.724 32.6504 115.238 34.1077 113.4 34.1077H4.60091C2.76345 34.1077 1.27197 32.6504 1.27197 30.8513V4.88259C1.27197 3.08435 2.76345 1.62195 4.60091 1.62195H113.399C115.238 1.62195 116.723 3.08435 116.723 4.88259L116.724 30.8513Z" fill="black"/>
<path d="M26.6251 17.6863C26.5999 14.946 28.9134 13.6128 29.0192 13.5508C27.709 11.6777 25.6781 11.4218 24.9645 11.4014C23.2588 11.2254 21.6043 12.4021 20.7355 12.4021C19.8492 12.4021 18.5113 11.4184 17.0692 11.4473C15.2135 11.4753 13.4775 12.5288 12.5254 14.1646C10.5605 17.5001 12.0259 22.4017 13.9085 25.0978C14.8502 26.419 15.9506 27.8925 17.3909 27.8406C18.8 27.7845 19.3264 26.9606 21.0268 26.9606C22.7117 26.9606 23.2059 27.8406 24.6749 27.8075C26.1872 27.7845 27.1393 26.4811 28.048 25.1488C29.1363 23.6362 29.5733 22.1449 29.5907 22.0684C29.556 22.0565 26.6545 20.9699 26.6251 17.6863Z" fill="white"/>
<path d="M23.85 9.62773C24.6079 8.69842 25.1264 7.43413 24.9825 6.15112C23.8855 6.19874 22.5137 6.89508 21.7238 7.80398C21.0248 8.6049 20.4005 9.91766 20.5618 11.1522C21.794 11.2423 23.0592 10.5426 23.85 9.62773Z" fill="white"/>
<path d="M47.0353 27.651H45.066L43.9873 24.3274H40.2378L39.2102 27.651H37.293L41.0087 16.3361H43.3031L47.0353 27.651ZM43.6621 22.933L42.6866 19.9785C42.5834 19.6766 42.3891 18.9658 42.1047 17.8469H42.07C41.9556 18.3282 41.7726 19.039 41.522 19.9785L40.5629 22.933H43.6621Z" fill="white"/>
<path d="M56.572 23.4713C56.572 24.8589 56.1879 25.9557 55.4187 26.7608C54.7302 27.4776 53.8744 27.8355 52.8537 27.8355C51.7516 27.8355 50.959 27.4504 50.4778 26.6784V30.9593H48.629V22.1738C48.629 21.3023 48.6056 20.4088 48.5605 19.4922H50.1864L50.2896 20.7854H50.3243C50.9408 19.811 51.8765 19.3239 53.1321 19.3239C54.1137 19.3239 54.9331 19.7039 55.5887 20.4649C56.2434 21.2275 56.572 22.2291 56.572 23.4713ZM54.6886 23.5376C54.6886 22.7435 54.5065 22.0888 54.1406 21.5727C53.7408 21.0362 53.2041 20.7676 52.5312 20.7676C52.0751 20.7676 51.6606 20.9172 51.2903 21.2122C50.9192 21.5098 50.6764 21.8984 50.5628 22.3796C50.5055 22.6041 50.4769 22.7869 50.4769 22.9314V24.2926C50.4769 24.8852 50.6625 25.386 51.0336 25.7958C51.4048 26.2039 51.8869 26.4089 52.48 26.4089C53.1763 26.4089 53.7183 26.1444 54.1059 25.6198C54.4944 25.0935 54.6886 24.3997 54.6886 23.5376Z" fill="white"/>
<path d="M66.1427 23.4713C66.1427 24.8589 65.7586 25.9557 64.9894 26.7608C64.3001 27.4776 63.4451 27.8355 62.4236 27.8355C61.3214 27.8355 60.5289 27.4504 60.0476 26.6784V30.9593H58.1989V22.1738C58.1989 21.3023 58.1755 20.4088 58.1304 19.4922H59.7563L59.8594 20.7854H59.8941C60.5098 19.811 61.4454 19.3239 62.7019 19.3239C63.6827 19.3239 64.5021 19.7039 65.1594 20.4649C65.8132 21.2275 66.1427 22.2291 66.1427 23.4713ZM64.2584 23.5376C64.2584 22.7435 64.0755 22.0888 63.7095 21.5727C63.3098 21.0362 62.7748 20.7676 62.1019 20.7676C61.6457 20.7676 61.2313 20.9172 60.8593 21.2122C60.4881 21.5098 60.2462 21.8984 60.1326 22.3796C60.0762 22.6041 60.0459 22.7869 60.0459 22.9314V24.2926C60.0459 24.8852 60.2323 25.386 60.6017 25.7958C60.9728 26.2031 61.455 26.4089 62.0498 26.4089C62.747 26.4089 63.289 26.1444 63.6757 25.6198C64.0642 25.0935 64.2584 24.3997 64.2584 23.5376Z" fill="white"/>
<path d="M76.8429 24.4771C76.8429 25.4404 76.4995 26.2234 75.8171 26.828C75.0661 27.4877 74.0178 27.8185 72.6737 27.8185C71.432 27.8185 70.4365 27.5838 69.6855 27.1136L70.113 25.6028C70.9238 26.0738 71.8144 26.3085 72.7838 26.3085C73.481 26.3085 74.023 26.1537 74.4097 25.8468C74.7973 25.539 74.9933 25.1275 74.9933 24.614C74.9933 24.154 74.8311 23.7688 74.5129 23.4551C74.1929 23.1422 73.664 22.8506 72.9208 22.5827C70.9004 21.8439 69.8893 20.7632 69.8893 19.3417C69.8893 18.4132 70.2466 17.6531 70.9594 17.0588C71.6722 16.4653 72.6173 16.1686 73.7932 16.1686C74.8433 16.1686 75.7182 16.348 76.4128 16.7059L75.9489 18.1836C75.2951 17.8367 74.5571 17.6633 73.7316 17.6633C73.0795 17.6633 72.5679 17.8206 72.202 18.1335C71.8941 18.4132 71.7381 18.7541 71.7381 19.1589C71.7381 19.6052 71.9158 19.9759 72.2696 20.2667C72.5766 20.5345 73.1367 20.8262 73.9466 21.139C74.9404 21.5319 75.6705 21.9893 76.1379 22.5147C76.6088 23.0402 76.8429 23.6957 76.8429 24.4771Z" fill="white"/>
<path d="M82.9714 20.8525H80.9336V24.8137C80.9336 25.8213 81.2926 26.3238 82.0123 26.3238C82.3427 26.3238 82.6167 26.2966 82.8335 26.2396L82.8846 27.6161C82.5204 27.7496 82.0409 27.8168 81.4469 27.8168C80.7168 27.8168 80.1462 27.5983 79.7343 27.1612C79.3242 26.7242 79.1178 25.9922 79.1178 24.9617V20.8491H77.9038V19.4887H79.1178V17.9949L80.9336 17.4575V19.4887H82.9714V20.8525Z" fill="white"/>
<path d="M92.1473 23.5043C92.1473 24.7584 91.7814 25.7881 91.0512 26.5932C90.2873 27.4222 89.271 27.8354 88.0041 27.8354C86.7814 27.8354 85.8094 27.4384 85.0845 26.6451C84.3595 25.8501 83.9971 24.8486 83.9971 23.6404C83.9971 22.3761 84.3717 21.3405 85.1183 20.5353C85.8666 19.7293 86.8742 19.3263 88.1411 19.3263C89.362 19.3263 90.3428 19.7242 91.085 20.5183C91.7944 21.2886 92.1473 22.2834 92.1473 23.5043ZM90.2309 23.546C90.2309 22.7987 90.0662 22.1576 89.7358 21.6211C89.3482 20.9732 88.7932 20.6493 88.0743 20.6493C87.3338 20.6493 86.7658 20.9732 86.3791 21.6211C86.0479 22.1576 85.8831 22.8097 85.8831 23.58C85.8831 24.3282 86.0479 24.971 86.3791 25.5058C86.7788 26.1537 87.3364 26.4776 88.0587 26.4776C88.7655 26.4776 89.3196 26.1469 89.7202 25.4896C90.0601 24.9404 90.2309 24.2951 90.2309 23.546Z" fill="white"/>
<path d="M98.1592 21.0864C97.9762 21.0532 97.7803 21.0362 97.5765 21.0362C96.9261 21.0362 96.4232 21.276 96.0694 21.7589C95.7624 22.184 95.6081 22.7214 95.6081 23.3701V27.651H93.7593V22.0616C93.7593 21.1221 93.7411 20.2651 93.7056 19.4931H95.3158L95.3835 21.0541H95.4346C95.6306 20.5176 95.9376 20.0848 96.359 19.7609C96.7709 19.4692 97.2157 19.3239 97.6953 19.3239C97.8661 19.3239 98.0205 19.3358 98.1575 19.357L98.1592 21.0864Z" fill="white"/>
<path d="M106.428 23.1856C106.428 23.5103 106.406 23.7841 106.36 24.0077H100.814C100.835 24.8138 101.103 25.431 101.619 25.8561C102.086 26.2353 102.69 26.4258 103.433 26.4258C104.254 26.4258 105.003 26.2983 105.677 26.0406L105.966 27.2981C105.179 27.6348 104.249 27.8023 103.177 27.8023C101.886 27.8023 100.874 27.4299 100.137 26.6868C99.4012 25.9429 99.0327 24.943 99.0327 23.6906C99.0327 22.4612 99.3752 21.4366 100.061 20.6195C100.779 19.7472 101.749 19.311 102.97 19.311C104.17 19.311 105.078 19.7472 105.694 20.6195C106.182 21.3108 106.428 22.1678 106.428 23.1856ZM104.665 22.7154C104.678 22.1772 104.556 21.7138 104.306 21.3218C103.986 20.8168 103.493 20.5651 102.833 20.5651C102.229 20.5651 101.736 20.8108 101.362 21.304C101.054 21.6959 100.871 22.167 100.815 22.7137L104.665 22.7154Z" fill="white"/>
<path d="M39.5699 12.3357C39.132 12.3357 38.7366 12.311 38.375 12.2694V6.79898C38.7539 6.72501 39.2239 6.68335 39.7884 6.68335C41.1776 6.68335 41.9008 7.21134 41.9008 8.07773C41.9008 8.60573 41.5565 9.07591 40.9582 9.28251V9.30802C41.6398 9.46532 42.1028 10.001 42.1028 10.6939C42.1028 11.6674 41.3614 12.3357 39.5699 12.3357ZM39.8717 7.35248C39.6107 7.35248 39.4182 7.36864 39.2751 7.4018V9.0351H39.8387C40.5446 9.0351 40.9825 8.6882 40.9825 8.16871C40.9834 7.62456 40.6131 7.35248 39.8717 7.35248ZM39.8136 9.68723H39.2751V11.6266C39.3843 11.6513 39.5699 11.6598 39.8309 11.6598C40.672 11.6598 41.1516 11.2882 41.1516 10.6692C41.1516 10.0418 40.6469 9.68723 39.8136 9.68723Z" fill="white"/>
<path d="M45.7267 12.2865L45.66 11.8248H45.6348C45.3573 12.1964 44.9533 12.3775 44.4399 12.3775C43.7072 12.3775 43.186 11.8741 43.186 11.1974C43.186 10.2077 44.061 9.69585 45.5759 9.69585V9.62188C45.5759 9.09388 45.2897 8.82946 44.7269 8.82946C44.322 8.82946 43.9691 8.92894 43.6578 9.12704L43.4731 8.54123C43.852 8.30997 44.322 8.19434 44.8778 8.19434C45.9461 8.19434 46.4855 8.74699 46.4855 9.85314V11.33C46.4855 11.7347 46.5028 12.0484 46.5445 12.2874L45.7267 12.2865ZM45.601 10.2893C44.5908 10.2893 44.0861 10.5291 44.0861 11.0979C44.0861 11.5187 44.3471 11.7245 44.7096 11.7245C45.1718 11.7245 45.601 11.3785 45.601 10.9083V10.2893Z" fill="white"/>
<path d="M48.5097 7.61613C48.2071 7.61613 47.9712 7.38486 47.9712 7.07963C47.9712 6.7744 48.2157 6.55164 48.527 6.55164C48.8383 6.55164 49.0907 6.7744 49.0829 7.07963C49.082 7.40187 48.847 7.61613 48.5097 7.61613ZM48.9814 12.2865H48.0726V8.27676H48.9814V12.2865Z" fill="white"/>
<path d="M53.9279 12.2864H52.9012L52.3714 11.4447C52.2526 11.2551 52.1268 11.0323 51.9838 10.7764H51.9673C51.8823 10.9329 51.7566 11.1556 51.5797 11.4447L51.075 12.2864H50.083L51.4791 10.2399L50.1324 8.27587H51.1426L51.656 9.07594C51.7566 9.23239 51.8832 9.439 52.0349 9.71107H52.0601C52.1867 9.47215 52.3124 9.25704 52.4303 9.05894L52.9107 8.27502H53.9036L52.5491 10.2059L53.9279 12.2864Z" fill="white"/>
<path d="M57.3005 12.2865L57.2337 11.8248H57.2086C56.9311 12.1964 56.527 12.3775 56.0136 12.3775C55.2809 12.3775 54.7598 11.8741 54.7598 11.1974C54.7598 10.2077 55.6347 9.69585 57.1496 9.69585V9.62188C57.1496 9.09388 56.8634 8.82946 56.2998 8.82946C55.8966 8.82946 55.5428 8.92894 55.2315 9.12704L55.0468 8.54123C55.4257 8.30997 55.8966 8.19434 56.4516 8.19434C57.5199 8.19434 58.0592 8.74699 58.0592 9.85314V11.33C58.0592 11.7347 58.0766 12.0484 58.1182 12.2874L57.3005 12.2865ZM57.1739 10.2893C56.1645 10.2893 55.659 10.5291 55.659 11.0979C55.659 11.5187 55.92 11.7245 56.2825 11.7245C56.7446 11.7245 57.1739 11.3785 57.1739 10.9083V10.2893Z" fill="white"/>
<path d="M61.8085 9.06072C61.7166 9.04372 61.6229 9.03607 61.5223 9.03607C60.9318 9.03607 60.5555 9.49009 60.5555 10.183V12.2874H59.6467V9.54026C59.6467 9.07858 59.6467 8.65686 59.6216 8.27766H60.4124V9.04457H60.4714C60.6474 8.53273 61.0862 8.19434 61.5822 8.19434C61.6672 8.19434 61.7417 8.20284 61.8094 8.21134L61.8085 9.06072Z" fill="white"/>
<path d="M68.9758 12.2865H68.0661V9.98407C68.0661 9.27498 67.7886 8.91958 67.2415 8.91958C66.703 8.91958 66.3336 9.37361 66.3336 9.9016V12.2865H65.424V9.42292C65.424 9.06837 65.4153 8.68832 65.3901 8.27595H66.1896L66.2321 8.89492H66.2573C66.5009 8.46641 66.9978 8.19348 67.5528 8.19348C68.4112 8.19348 68.9758 8.83711 68.9758 9.8846V12.2865Z" fill="white"/>
<path d="M72.8174 12.2865L72.7524 11.8248H72.7272C72.4506 12.1964 72.0448 12.3775 71.5314 12.3775C70.7987 12.3775 70.2793 11.8741 70.2793 11.1974C70.2793 10.2077 71.1534 9.69585 72.6691 9.69585V9.62188C72.6691 9.09388 72.383 8.82946 71.8193 8.82946C71.4161 8.82946 71.0623 8.92894 70.751 9.12704L70.5663 8.54123C70.9444 8.30997 71.4161 8.19434 71.9702 8.19434C73.0385 8.19434 73.5779 8.74699 73.5779 9.85314V11.33C73.5779 11.7347 73.5961 12.0484 73.6368 12.2874L72.8174 12.2865ZM72.6925 10.2893C71.6832 10.2893 71.1768 10.5291 71.1768 11.0979C71.1768 11.5187 71.4378 11.7245 71.8003 11.7245C72.2624 11.7245 72.6925 11.3785 72.6925 10.9083V10.2893Z" fill="white"/>
</svg>
