<svg width="96" height="96" viewBox="0 0 96 96" fill="none" xmlns="http://www.w3.org/2000/svg">
<path fill-rule="evenodd" clip-rule="evenodd" d="M10.49 0H20.5701V1.31125H10.49C5.42071 1.31125 1.31125 5.42071 1.31125 10.49V19.4285H0V10.49C0 4.69653 4.69653 0 10.49 0ZM0 75.4285V85.51C0 91.3035 4.69653 96 10.49 96H20.5701V94.6888H10.49C5.42071 94.6888 1.31125 90.5793 1.31125 85.51V75.4285H0ZM76.5701 96H85.51C91.3035 96 96 91.3035 96 85.51V75.4286H94.6888V85.51C94.6888 90.5793 90.5793 94.6888 85.51 94.6888H76.5701V96ZM96 10.49V19.4286H94.6888V10.49C94.6888 5.42071 90.5793 1.31125 85.51 1.31125H76.5701V0H85.51C91.3035 0 96 4.69653 96 10.49Z" fill="#DA291C"/>
<rect x="6.26087" y="6.26087" width="83.4783" height="83.4783" rx="6" fill="white"/>
<rect x="6.26087" y="6.26087" width="83.4783" height="83.4783" rx="6" stroke="#CFD4D8" stroke-width="0.521739"/>
<path fill-rule="evenodd" clip-rule="evenodd" d="M12.2856 12.2858H27.2856V27.2858H12.2856V12.2858ZM14.4285 14.4286H25.1428V25.1429H14.4285V14.4286Z" fill="#222222"/>
<path fill-rule="evenodd" clip-rule="evenodd" d="M12.2856 68.7144H27.2856V83.7144H12.2856V68.7144ZM14.4285 70.8572H25.1428V81.5715H14.4285V70.8572Z" fill="#222222"/>
<path fill-rule="evenodd" clip-rule="evenodd" d="M68.7144 12.2858H83.7144V27.2858H68.7144V12.2858ZM70.8572 14.4286H81.5715V25.1429H70.8572V14.4286Z" fill="#222222"/>
<path d="M38.2605 12.2893H36.0962V14.4536H38.2605V12.2893Z" fill="#222222"/>
<path d="M40.425 12.2893H38.2607V14.4536H40.425V12.2893Z" fill="#222222"/>
<path d="M42.5891 12.2893H40.4248V14.4536H42.5891V12.2893Z" fill="#222222"/>
<path d="M51.2463 12.2893H49.082V14.4536H51.2463V12.2893Z" fill="#222222"/>
<path d="M53.4109 12.2893H51.2466V14.4536H53.4109V12.2893Z" fill="#222222"/>
<path d="M55.5749 12.2893H53.4106V14.4536H55.5749V12.2893Z" fill="#222222"/>
<path d="M57.7395 12.2893H55.5752V14.4536H57.7395V12.2893Z" fill="#222222"/>
<path d="M64.2322 12.2893H62.0679V14.4536H64.2322V12.2893Z" fill="#222222"/>
<path d="M31.7678 14.4536H29.6035V16.6179H31.7678V14.4536Z" fill="#222222"/>
<path d="M38.2605 14.4536H36.0962V16.6179H38.2605V14.4536Z" fill="#222222"/>
<path d="M40.425 14.4536H38.2607V16.6179H40.425V14.4536Z" fill="#222222"/>
<path d="M42.5891 14.4536H40.4248V16.6179H42.5891V14.4536Z" fill="#222222"/>
<path d="M44.7536 14.4536H42.5894V16.6179H44.7536V14.4536Z" fill="#222222"/>
<path d="M49.0823 14.4536H46.918V16.6179H49.0823V14.4536Z" fill="#222222"/>
<path d="M53.4109 14.4536H51.2466V16.6179H53.4109V14.4536Z" fill="#222222"/>
<path d="M57.7395 14.4536H55.5752V16.6179H57.7395V14.4536Z" fill="#222222"/>
<path d="M59.9035 14.4536H57.7393V16.6179H59.9035V14.4536Z" fill="#222222"/>
<path d="M62.0676 14.4536H59.9033V16.6179H62.0676V14.4536Z" fill="#222222"/>
<path d="M64.2322 14.4536H62.0679V16.6179H64.2322V14.4536Z" fill="#222222"/>
<path d="M31.7678 16.6179H29.6035V18.7822H31.7678V16.6179Z" fill="#222222"/>
<path d="M33.9319 16.6179H31.7676V18.7822H33.9319V16.6179Z" fill="#222222"/>
<path d="M36.0964 16.6179H33.9321V18.7822H36.0964V16.6179Z" fill="#222222"/>
<path d="M38.2605 16.6179H36.0962V18.7822H38.2605V16.6179Z" fill="#222222"/>
<path d="M40.425 16.6179H38.2607V18.7822H40.425V16.6179Z" fill="#222222"/>
<path d="M44.7536 16.6179H42.5894V18.7822H44.7536V16.6179Z" fill="#222222"/>
<path d="M46.9177 16.6179H44.7534V18.7822H46.9177V16.6179Z" fill="#222222"/>
<path d="M49.0823 16.6179H46.918V18.7822H49.0823V16.6179Z" fill="#222222"/>
<path d="M51.2463 16.6179H49.082V18.7822H51.2463V16.6179Z" fill="#222222"/>
<path d="M62.0676 16.6179H59.9033V18.7822H62.0676V16.6179Z" fill="#222222"/>
<path d="M66.3962 16.6179H64.2319V18.7822H66.3962V16.6179Z" fill="#222222"/>
<path d="M38.2605 18.7822H36.0962V20.9465H38.2605V18.7822Z" fill="#222222"/>
<path d="M40.425 18.7822H38.2607V20.9465H40.425V18.7822Z" fill="#222222"/>
<path d="M44.7536 18.7822H42.5894V20.9465H44.7536V18.7822Z" fill="#222222"/>
<path d="M57.7395 18.7822H55.5752V20.9465H57.7395V18.7822Z" fill="#222222"/>
<path d="M62.0676 18.7822H59.9033V20.9465H62.0676V18.7822Z" fill="#222222"/>
<path d="M66.3962 18.7822H64.2319V20.9465H66.3962V18.7822Z" fill="#222222"/>
<path d="M33.9319 20.9464H31.7676V23.1107H33.9319V20.9464Z" fill="#222222"/>
<path d="M38.2605 20.9464H36.0962V23.1107H38.2605V20.9464Z" fill="#222222"/>
<path d="M40.425 20.9464H38.2607V23.1107H40.425V20.9464Z" fill="#222222"/>
<path d="M49.0823 20.9464H46.918V23.1107H49.0823V20.9464Z" fill="#222222"/>
<path d="M57.7395 20.9464H55.5752V23.1107H57.7395V20.9464Z" fill="#222222"/>
<path d="M62.0676 20.9464H59.9033V23.1107H62.0676V20.9464Z" fill="#222222"/>
<path d="M36.0964 23.1107H33.9321V25.275H36.0964V23.1107Z" fill="#222222"/>
<path d="M38.2605 23.1107H36.0962V25.275H38.2605V23.1107Z" fill="#222222"/>
<path d="M40.425 23.1107H38.2607V25.275H40.425V23.1107Z" fill="#222222"/>
<path d="M42.5891 23.1107H40.4248V25.275H42.5891V23.1107Z" fill="#222222"/>
<path d="M46.9177 23.1107H44.7534V25.275H46.9177V23.1107Z" fill="#222222"/>
<path d="M51.2463 23.1107H49.082V25.275H51.2463V23.1107Z" fill="#222222"/>
<path d="M53.4109 23.1107H51.2466V25.275H53.4109V23.1107Z" fill="#222222"/>
<path d="M55.5749 23.1107H53.4106V25.275H55.5749V23.1107Z" fill="#222222"/>
<path d="M57.7395 23.1107H55.5752V25.275H57.7395V23.1107Z" fill="#222222"/>
<path d="M62.0676 23.1107H59.9033V25.275H62.0676V23.1107Z" fill="#222222"/>
<path d="M66.3962 23.1107H64.2319V25.275H66.3962V23.1107Z" fill="#222222"/>
<path d="M31.7678 25.275H29.6035V27.4393H31.7678V25.275Z" fill="#222222"/>
<path d="M36.0964 25.275H33.9321V27.4393H36.0964V25.275Z" fill="#222222"/>
<path d="M40.425 25.275H38.2607V27.4393H40.425V25.275Z" fill="#222222"/>
<path d="M44.7536 25.275H42.5894V27.4393H44.7536V25.275Z" fill="#222222"/>
<path d="M49.0823 25.275H46.918V27.4393H49.0823V25.275Z" fill="#222222"/>
<path d="M53.4109 25.275H51.2466V27.4393H53.4109V25.275Z" fill="#222222"/>
<path d="M57.7395 25.275H55.5752V27.4393H57.7395V25.275Z" fill="#222222"/>
<path d="M62.0676 25.275H59.9033V27.4393H62.0676V25.275Z" fill="#222222"/>
<path d="M66.3962 25.275H64.2319V27.4393H66.3962V25.275Z" fill="#222222"/>
<path d="M33.9319 27.4393H31.7676V29.6036H33.9319V27.4393Z" fill="#222222"/>
<path d="M36.0964 27.4393H33.9321V29.6036H36.0964V27.4393Z" fill="#222222"/>
<path d="M38.2605 27.4393H36.0962V29.6036H38.2605V27.4393Z" fill="#222222"/>
<path d="M42.5891 27.4393H40.4248V29.6036H42.5891V27.4393Z" fill="#222222"/>
<path d="M51.2463 27.4393H49.082V29.6036H51.2463V27.4393Z" fill="#222222"/>
<path d="M57.7395 27.4393H55.5752V29.6036H57.7395V27.4393Z" fill="#222222"/>
<path d="M62.0676 27.4393H59.9033V29.6036H62.0676V27.4393Z" fill="#222222"/>
<path d="M64.2322 27.4393H62.0679V29.6036H64.2322V27.4393Z" fill="#222222"/>
<path d="M66.3962 27.4393H64.2319V29.6036H66.3962V27.4393Z" fill="#222222"/>
<path d="M16.6179 29.6035H14.4536V31.7678H16.6179V29.6035Z" fill="#222222"/>
<path d="M18.782 29.6035H16.6177V31.7678H18.782V29.6035Z" fill="#222222"/>
<path d="M20.9465 29.6035H18.7822V31.7678H20.9465V29.6035Z" fill="#222222"/>
<path d="M25.2746 29.6035H23.1104V31.7678H25.2746V29.6035Z" fill="#222222"/>
<path d="M27.4392 29.6035H25.2749V31.7678H27.4392V29.6035Z" fill="#222222"/>
<path d="M33.9319 29.6035H31.7676V31.7678H33.9319V29.6035Z" fill="#222222"/>
<path d="M40.425 29.6035H38.2607V31.7678H40.425V29.6035Z" fill="#222222"/>
<path d="M42.5891 29.6035H40.4248V31.7678H42.5891V29.6035Z" fill="#222222"/>
<path d="M44.7536 29.6035H42.5894V31.7678H44.7536V29.6035Z" fill="#222222"/>
<path d="M46.9177 29.6035H44.7534V31.7678H46.9177V29.6035Z" fill="#222222"/>
<path d="M49.0823 29.6035H46.918V31.7678H49.0823V29.6035Z" fill="#222222"/>
<path d="M51.2463 29.6035H49.082V31.7678H51.2463V29.6035Z" fill="#222222"/>
<path d="M53.4109 29.6035H51.2466V31.7678H53.4109V29.6035Z" fill="#222222"/>
<path d="M55.5749 29.6035H53.4106V31.7678H55.5749V29.6035Z" fill="#222222"/>
<path d="M57.7395 29.6035H55.5752V31.7678H57.7395V29.6035Z" fill="#222222"/>
<path d="M59.9035 29.6035H57.7393V31.7678H59.9035V29.6035Z" fill="#222222"/>
<path d="M66.3962 29.6035H64.2319V31.7678H66.3962V29.6035Z" fill="#222222"/>
<path d="M79.3821 29.6035H77.2178V31.7678H79.3821V29.6035Z" fill="#222222"/>
<path d="M81.5461 29.6035H79.3818V31.7678H81.5461V29.6035Z" fill="#222222"/>
<path d="M14.4533 31.7678H12.2891V33.9321H14.4533V31.7678Z" fill="#222222"/>
<path d="M20.9465 31.7678H18.7822V33.9321H20.9465V31.7678Z" fill="#222222"/>
<path d="M29.6033 31.7678H27.439V33.9321H29.6033V31.7678Z" fill="#222222"/>
<path d="M31.7678 31.7678H29.6035V33.9321H31.7678V31.7678Z" fill="#222222"/>
<path d="M40.425 31.7678H38.2607V33.9321H40.425V31.7678Z" fill="#222222"/>
<path d="M53.4109 31.7678H51.2466V33.9321H53.4109V31.7678Z" fill="#222222"/>
<path d="M55.5749 31.7678H53.4106V33.9321H55.5749V31.7678Z" fill="#222222"/>
<path d="M57.7395 31.7678H55.5752V33.9321H57.7395V31.7678Z" fill="#222222"/>
<path d="M59.9035 31.7678H57.7393V33.9321H59.9035V31.7678Z" fill="#222222"/>
<path d="M62.0676 31.7678H59.9033V33.9321H62.0676V31.7678Z" fill="#222222"/>
<path d="M64.2322 31.7678H62.0679V33.9321H64.2322V31.7678Z" fill="#222222"/>
<path d="M70.7248 31.7678H68.5605V33.9321H70.7248V31.7678Z" fill="#222222"/>
<path d="M72.8894 31.7678H70.7251V33.9321H72.8894V31.7678Z" fill="#222222"/>
<path d="M77.218 31.7678H75.0537V33.9321H77.218V31.7678Z" fill="#222222"/>
<path d="M79.3821 31.7678H77.2178V33.9321H79.3821V31.7678Z" fill="#222222"/>
<path d="M83.7107 31.7678H81.5464V33.9321H83.7107V31.7678Z" fill="#222222"/>
<path d="M16.6179 33.9321H14.4536V36.0964H16.6179V33.9321Z" fill="#222222"/>
<path d="M20.9465 33.9321H18.7822V36.0964H20.9465V33.9321Z" fill="#222222"/>
<path d="M25.2746 33.9321H23.1104V36.0964H25.2746V33.9321Z" fill="#222222"/>
<path d="M27.4392 33.9321H25.2749V36.0964H27.4392V33.9321Z" fill="#222222"/>
<path d="M38.2605 33.9321H36.0962V36.0964H38.2605V33.9321Z" fill="#222222"/>
<path d="M40.425 33.9321H38.2607V36.0964H40.425V33.9321Z" fill="#222222"/>
<path d="M42.5891 33.9321H40.4248V36.0964H42.5891V33.9321Z" fill="#222222"/>
<path d="M49.0823 33.9321H46.918V36.0964H49.0823V33.9321Z" fill="#222222"/>
<path d="M51.2463 33.9321H49.082V36.0964H51.2463V33.9321Z" fill="#222222"/>
<path d="M64.2322 33.9321H62.0679V36.0964H64.2322V33.9321Z" fill="#222222"/>
<path d="M68.5608 33.9321H66.3965V36.0964H68.5608V33.9321Z" fill="#222222"/>
<path d="M72.8894 33.9321H70.7251V36.0964H72.8894V33.9321Z" fill="#222222"/>
<path d="M75.0534 33.9321H72.8892V36.0964H75.0534V33.9321Z" fill="#222222"/>
<path d="M77.218 33.9321H75.0537V36.0964H77.218V33.9321Z" fill="#222222"/>
<path d="M81.5461 33.9321H79.3818V36.0964H81.5461V33.9321Z" fill="#222222"/>
<path d="M83.7107 33.9321H81.5464V36.0964H83.7107V33.9321Z" fill="#222222"/>
<path d="M14.4533 36.0964H12.2891V38.2607H14.4533V36.0964Z" fill="#222222"/>
<path d="M18.782 36.0964H16.6177V38.2607H18.782V36.0964Z" fill="#222222"/>
<path d="M23.1106 36.0964H20.9463V38.2607H23.1106V36.0964Z" fill="#222222"/>
<path d="M29.6033 36.0964H27.439V38.2607H29.6033V36.0964Z" fill="#222222"/>
<path d="M31.7678 36.0964H29.6035V38.2607H31.7678V36.0964Z" fill="#222222"/>
<path d="M36.0964 36.0964H33.9321V38.2607H36.0964V36.0964Z" fill="#222222"/>
<path d="M40.425 36.0964H38.2607V38.2607H40.425V36.0964Z" fill="#222222"/>
<path d="M42.5891 36.0964H40.4248V38.2607H42.5891V36.0964Z" fill="#222222"/>
<path d="M44.7536 36.0964H42.5894V38.2607H44.7536V36.0964Z" fill="#222222"/>
<path d="M46.9177 36.0964H44.7534V38.2607H46.9177V36.0964Z" fill="#222222"/>
<path d="M49.0823 36.0964H46.918V38.2607H49.0823V36.0964Z" fill="#222222"/>
<path d="M53.4109 36.0964H51.2466V38.2607H53.4109V36.0964Z" fill="#222222"/>
<path d="M55.5749 36.0964H53.4106V38.2607H55.5749V36.0964Z" fill="#222222"/>
<path d="M57.7395 36.0964H55.5752V38.2607H57.7395V36.0964Z" fill="#222222"/>
<path d="M62.0676 36.0964H59.9033V38.2607H62.0676V36.0964Z" fill="#222222"/>
<path d="M64.2322 36.0964H62.0679V38.2607H64.2322V36.0964Z" fill="#222222"/>
<path d="M70.7248 36.0964H68.5605V38.2607H70.7248V36.0964Z" fill="#222222"/>
<path d="M72.8894 36.0964H70.7251V38.2607H72.8894V36.0964Z" fill="#222222"/>
<path d="M77.218 36.0964H75.0537V38.2607H77.218V36.0964Z" fill="#222222"/>
<path d="M83.7107 36.0964H81.5464V38.2607H83.7107V36.0964Z" fill="#222222"/>
<path d="M18.782 38.2607H16.6177V40.425H18.782V38.2607Z" fill="#222222"/>
<path d="M20.9465 38.2607H18.7822V40.425H20.9465V38.2607Z" fill="#222222"/>
<path d="M23.1106 38.2607H20.9463V40.425H23.1106V38.2607Z" fill="#222222"/>
<path d="M25.2746 38.2607H23.1104V40.425H25.2746V38.2607Z" fill="#222222"/>
<path d="M27.4392 38.2607H25.2749V40.425H27.4392V38.2607Z" fill="#222222"/>
<path d="M31.7678 38.2607H29.6035V40.425H31.7678V38.2607Z" fill="#222222"/>
<path d="M36.0964 38.2607H33.9321V40.425H36.0964V38.2607Z" fill="#222222"/>
<path d="M44.7536 38.2607H42.5894V40.425H44.7536V38.2607Z" fill="#222222"/>
<path d="M53.4109 38.2607H51.2466V40.425H53.4109V38.2607Z" fill="#222222"/>
<path d="M62.0676 38.2607H59.9033V40.425H62.0676V38.2607Z" fill="#222222"/>
<path d="M66.3962 38.2607H64.2319V40.425H66.3962V38.2607Z" fill="#222222"/>
<path d="M68.5608 38.2607H66.3965V40.425H68.5608V38.2607Z" fill="#222222"/>
<path d="M72.8894 38.2607H70.7251V40.425H72.8894V38.2607Z" fill="#222222"/>
<path d="M75.0534 38.2607H72.8892V40.425H75.0534V38.2607Z" fill="#222222"/>
<path d="M77.218 38.2607H75.0537V40.425H77.218V38.2607Z" fill="#222222"/>
<path d="M23.1106 40.425H20.9463V42.5893H23.1106V40.425Z" fill="#222222"/>
<path d="M31.7678 40.425H29.6035V42.5893H31.7678V40.425Z" fill="#222222"/>
<path d="M33.9319 40.425H31.7676V42.5893H33.9319V40.425Z" fill="#222222"/>
<path d="M46.9177 40.425H44.7534V42.5893H46.9177V40.425Z" fill="#222222"/>
<path d="M49.0823 40.425H46.918V42.5893H49.0823V40.425Z" fill="#222222"/>
<path d="M51.2463 40.425H49.082V42.5893H51.2463V40.425Z" fill="#222222"/>
<path d="M53.4109 40.425H51.2466V42.5893H53.4109V40.425Z" fill="#222222"/>
<path d="M66.3962 40.425H64.2319V42.5893H66.3962V40.425Z" fill="#222222"/>
<path d="M79.3821 40.425H77.2178V42.5893H79.3821V40.425Z" fill="#222222"/>
<path d="M81.5461 40.425H79.3818V42.5893H81.5461V40.425Z" fill="#222222"/>
<path d="M16.6179 42.5892H14.4536V44.7535H16.6179V42.5892Z" fill="#222222"/>
<path d="M20.9465 42.5892H18.7822V44.7535H20.9465V42.5892Z" fill="#222222"/>
<path d="M27.4392 42.5892H25.2749V44.7535H27.4392V42.5892Z" fill="#222222"/>
<path d="M31.7678 42.5892H29.6035V44.7535H31.7678V42.5892Z" fill="#222222"/>
<path d="M36.0964 42.5892H33.9321V44.7535H36.0964V42.5892Z" fill="#222222"/>
<path d="M38.2605 42.5892H36.0962V44.7535H38.2605V42.5892Z" fill="#222222"/>
<path d="M40.425 42.5892H38.2607V44.7535H40.425V42.5892Z" fill="#222222"/>
<path d="M42.5891 42.5892H40.4248V44.7535H42.5891V42.5892Z" fill="#222222"/>
<path d="M46.9177 42.5892H44.7534V44.7535H46.9177V42.5892Z" fill="#222222"/>
<path d="M49.0823 42.5892H46.918V44.7535H49.0823V42.5892Z" fill="#222222"/>
<path d="M51.2463 42.5892H49.082V44.7535H51.2463V42.5892Z" fill="#222222"/>
<path d="M53.4109 42.5892H51.2466V44.7535H53.4109V42.5892Z" fill="#222222"/>
<path d="M59.9035 42.5892H57.7393V44.7535H59.9035V42.5892Z" fill="#222222"/>
<path d="M62.0676 42.5892H59.9033V44.7535H62.0676V42.5892Z" fill="#222222"/>
<path d="M70.7248 42.5892H68.5605V44.7535H70.7248V42.5892Z" fill="#222222"/>
<path d="M72.8894 42.5892H70.7251V44.7535H72.8894V42.5892Z" fill="#222222"/>
<path d="M75.0534 42.5892H72.8892V44.7535H75.0534V42.5892Z" fill="#222222"/>
<path d="M77.218 42.5892H75.0537V44.7535H77.218V42.5892Z" fill="#222222"/>
<path d="M79.3821 42.5892H77.2178V44.7535H79.3821V42.5892Z" fill="#222222"/>
<path d="M14.4533 44.7535H12.2891V46.9178H14.4533V44.7535Z" fill="#222222"/>
<path d="M16.6179 44.7535H14.4536V46.9178H16.6179V44.7535Z" fill="#222222"/>
<path d="M18.782 44.7535H16.6177V46.9178H18.782V44.7535Z" fill="#222222"/>
<path d="M20.9465 44.7535H18.7822V46.9178H20.9465V44.7535Z" fill="#222222"/>
<path d="M23.1106 44.7535H20.9463V46.9178H23.1106V44.7535Z" fill="#222222"/>
<path d="M25.2746 44.7535H23.1104V46.9178H25.2746V44.7535Z" fill="#222222"/>
<path d="M29.6033 44.7535H27.439V46.9178H29.6033V44.7535Z" fill="#222222"/>
<path d="M38.2605 44.7535H36.0962V46.9178H38.2605V44.7535Z" fill="#222222"/>
<path d="M40.425 44.7535H38.2607V46.9178H40.425V44.7535Z" fill="#222222"/>
<path d="M42.5891 44.7535H40.4248V46.9178H42.5891V44.7535Z" fill="#222222"/>
<path d="M46.9177 44.7535H44.7534V46.9178H46.9177V44.7535Z" fill="#222222"/>
<path d="M53.4109 44.7535H51.2466V46.9178H53.4109V44.7535Z" fill="#222222"/>
<path d="M55.5749 44.7535H53.4106V46.9178H55.5749V44.7535Z" fill="#222222"/>
<path d="M57.7395 44.7535H55.5752V46.9178H57.7395V44.7535Z" fill="#222222"/>
<path d="M59.9035 44.7535H57.7393V46.9178H59.9035V44.7535Z" fill="#222222"/>
<path d="M62.0676 44.7535H59.9033V46.9178H62.0676V44.7535Z" fill="#222222"/>
<path d="M64.2322 44.7535H62.0679V46.9178H64.2322V44.7535Z" fill="#222222"/>
<path d="M66.3962 44.7535H64.2319V46.9178H66.3962V44.7535Z" fill="#222222"/>
<path d="M68.5608 44.7535H66.3965V46.9178H68.5608V44.7535Z" fill="#222222"/>
<path d="M70.7248 44.7535H68.5605V46.9178H70.7248V44.7535Z" fill="#222222"/>
<path d="M75.0534 44.7535H72.8892V46.9178H75.0534V44.7535Z" fill="#222222"/>
<path d="M79.3821 44.7535H77.2178V46.9178H79.3821V44.7535Z" fill="#222222"/>
<path d="M14.4533 46.9178H12.2891V49.0821H14.4533V46.9178Z" fill="#222222"/>
<path d="M20.9465 46.9178H18.7822V49.0821H20.9465V46.9178Z" fill="#222222"/>
<path d="M25.2746 46.9178H23.1104V49.0821H25.2746V46.9178Z" fill="#222222"/>
<path d="M27.4392 46.9178H25.2749V49.0821H27.4392V46.9178Z" fill="#222222"/>
<path d="M36.0964 46.9178H33.9321V49.0821H36.0964V46.9178Z" fill="#222222"/>
<path d="M40.425 46.9178H38.2607V49.0821H40.425V46.9178Z" fill="#222222"/>
<path d="M42.5891 46.9178H40.4248V49.0821H42.5891V46.9178Z" fill="#222222"/>
<path d="M44.7536 46.9178H42.5894V49.0821H44.7536V46.9178Z" fill="#222222"/>
<path d="M49.0823 46.9178H46.918V49.0821H49.0823V46.9178Z" fill="#222222"/>
<path d="M53.4109 46.9178H51.2466V49.0821H53.4109V46.9178Z" fill="#222222"/>
<path d="M55.5749 46.9178H53.4106V49.0821H55.5749V46.9178Z" fill="#222222"/>
<path d="M57.7395 46.9178H55.5752V49.0821H57.7395V46.9178Z" fill="#222222"/>
<path d="M59.9035 46.9178H57.7393V49.0821H59.9035V46.9178Z" fill="#222222"/>
<path d="M64.2322 46.9178H62.0679V49.0821H64.2322V46.9178Z" fill="#222222"/>
<path d="M66.3962 46.9178H64.2319V49.0821H66.3962V46.9178Z" fill="#222222"/>
<path d="M68.5608 46.9178H66.3965V49.0821H68.5608V46.9178Z" fill="#222222"/>
<path d="M70.7248 46.9178H68.5605V49.0821H70.7248V46.9178Z" fill="#222222"/>
<path d="M75.0534 46.9178H72.8892V49.0821H75.0534V46.9178Z" fill="#222222"/>
<path d="M77.218 46.9178H75.0537V49.0821H77.218V46.9178Z" fill="#222222"/>
<path d="M79.3821 46.9178H77.2178V49.0821H79.3821V46.9178Z" fill="#222222"/>
<path d="M14.4533 49.0822H12.2891V51.2464H14.4533V49.0822Z" fill="#222222"/>
<path d="M16.6179 49.0822H14.4536V51.2464H16.6179V49.0822Z" fill="#222222"/>
<path d="M20.9465 49.0822H18.7822V51.2464H20.9465V49.0822Z" fill="#222222"/>
<path d="M25.2746 49.0822H23.1104V51.2464H25.2746V49.0822Z" fill="#222222"/>
<path d="M33.9319 49.0822H31.7676V51.2464H33.9319V49.0822Z" fill="#222222"/>
<path d="M36.0964 49.0822H33.9321V51.2464H36.0964V49.0822Z" fill="#222222"/>
<path d="M40.425 49.0822H38.2607V51.2464H40.425V49.0822Z" fill="#222222"/>
<path d="M44.7536 49.0822H42.5894V51.2464H44.7536V49.0822Z" fill="#222222"/>
<path d="M46.9177 49.0822H44.7534V51.2464H46.9177V49.0822Z" fill="#222222"/>
<path d="M49.0823 49.0822H46.918V51.2464H49.0823V49.0822Z" fill="#222222"/>
<path d="M51.2463 49.0822H49.082V51.2464H51.2463V49.0822Z" fill="#222222"/>
<path d="M57.7395 49.0822H55.5752V51.2464H57.7395V49.0822Z" fill="#222222"/>
<path d="M59.9035 49.0822H57.7393V51.2464H59.9035V49.0822Z" fill="#222222"/>
<path d="M62.0676 49.0822H59.9033V51.2464H62.0676V49.0822Z" fill="#222222"/>
<path d="M64.2322 49.0822H62.0679V51.2464H64.2322V49.0822Z" fill="#222222"/>
<path d="M66.3962 49.0822H64.2319V51.2464H66.3962V49.0822Z" fill="#222222"/>
<path d="M68.5608 49.0822H66.3965V51.2464H68.5608V49.0822Z" fill="#222222"/>
<path d="M70.7248 49.0822H68.5605V51.2464H70.7248V49.0822Z" fill="#222222"/>
<path d="M75.0534 49.0822H72.8892V51.2464H75.0534V49.0822Z" fill="#222222"/>
<path d="M77.218 49.0822H75.0537V51.2464H77.218V49.0822Z" fill="#222222"/>
<path d="M83.7107 49.0822H81.5464V51.2464H83.7107V49.0822Z" fill="#222222"/>
<path d="M14.4533 51.2465H12.2891V53.4107H14.4533V51.2465Z" fill="#222222"/>
<path d="M16.6179 51.2465H14.4536V53.4107H16.6179V51.2465Z" fill="#222222"/>
<path d="M20.9465 51.2465H18.7822V53.4107H20.9465V51.2465Z" fill="#222222"/>
<path d="M23.1106 51.2465H20.9463V53.4107H23.1106V51.2465Z" fill="#222222"/>
<path d="M27.4392 51.2465H25.2749V53.4107H27.4392V51.2465Z" fill="#222222"/>
<path d="M29.6033 51.2465H27.439V53.4107H29.6033V51.2465Z" fill="#222222"/>
<path d="M38.2605 51.2465H36.0962V53.4107H38.2605V51.2465Z" fill="#222222"/>
<path d="M44.7536 51.2465H42.5894V53.4107H44.7536V51.2465Z" fill="#222222"/>
<path d="M46.9177 51.2465H44.7534V53.4107H46.9177V51.2465Z" fill="#222222"/>
<path d="M49.0823 51.2465H46.918V53.4107H49.0823V51.2465Z" fill="#222222"/>
<path d="M51.2463 51.2465H49.082V53.4107H51.2463V51.2465Z" fill="#222222"/>
<path d="M59.9035 51.2465H57.7393V53.4107H59.9035V51.2465Z" fill="#222222"/>
<path d="M72.8894 51.2465H70.7251V53.4107H72.8894V51.2465Z" fill="#222222"/>
<path d="M75.0534 51.2465H72.8892V53.4107H75.0534V51.2465Z" fill="#222222"/>
<path d="M79.3821 51.2465H77.2178V53.4107H79.3821V51.2465Z" fill="#222222"/>
<path d="M81.5461 51.2465H79.3818V53.4107H81.5461V51.2465Z" fill="#222222"/>
<path d="M18.782 53.4106H16.6177V55.5749H18.782V53.4106Z" fill="#222222"/>
<path d="M20.9465 53.4106H18.7822V55.5749H20.9465V53.4106Z" fill="#222222"/>
<path d="M23.1106 53.4106H20.9463V55.5749H23.1106V53.4106Z" fill="#222222"/>
<path d="M25.2746 53.4106H23.1104V55.5749H25.2746V53.4106Z" fill="#222222"/>
<path d="M36.0964 53.4106H33.9321V55.5749H36.0964V53.4106Z" fill="#222222"/>
<path d="M42.5891 53.4106H40.4248V55.5749H42.5891V53.4106Z" fill="#222222"/>
<path d="M49.0823 53.4106H46.918V55.5749H49.0823V53.4106Z" fill="#222222"/>
<path d="M51.2463 53.4106H49.082V55.5749H51.2463V53.4106Z" fill="#222222"/>
<path d="M57.7395 53.4106H55.5752V55.5749H57.7395V53.4106Z" fill="#222222"/>
<path d="M64.2322 53.4106H62.0679V55.5749H64.2322V53.4106Z" fill="#222222"/>
<path d="M66.3962 53.4106H64.2319V55.5749H66.3962V53.4106Z" fill="#222222"/>
<path d="M68.5608 53.4106H66.3965V55.5749H68.5608V53.4106Z" fill="#222222"/>
<path d="M75.0534 53.4106H72.8892V55.5749H75.0534V53.4106Z" fill="#222222"/>
<path d="M81.5461 53.4106H79.3818V55.5749H81.5461V53.4106Z" fill="#222222"/>
<path d="M25.2746 55.575H23.1104V57.7392H25.2746V55.575Z" fill="#222222"/>
<path d="M27.4392 55.575H25.2749V57.7392H27.4392V55.575Z" fill="#222222"/>
<path d="M31.7678 55.575H29.6035V57.7392H31.7678V55.575Z" fill="#222222"/>
<path d="M38.2605 55.575H36.0962V57.7392H38.2605V55.575Z" fill="#222222"/>
<path d="M44.7536 55.575H42.5894V57.7392H44.7536V55.575Z" fill="#222222"/>
<path d="M49.0823 55.575H46.918V57.7392H49.0823V55.575Z" fill="#222222"/>
<path d="M51.2463 55.575H49.082V57.7392H51.2463V55.575Z" fill="#222222"/>
<path d="M55.5749 55.575H53.4106V57.7392H55.5749V55.575Z" fill="#222222"/>
<path d="M57.7395 55.575H55.5752V57.7392H57.7395V55.575Z" fill="#222222"/>
<path d="M59.9035 55.575H57.7393V57.7392H59.9035V55.575Z" fill="#222222"/>
<path d="M77.218 55.575H75.0537V57.7392H77.218V55.575Z" fill="#222222"/>
<path d="M79.3821 55.575H77.2178V57.7392H79.3821V55.575Z" fill="#222222"/>
<path d="M81.5461 55.575H79.3818V57.7392H81.5461V55.575Z" fill="#222222"/>
<path d="M14.4533 57.7393H12.2891V59.9035H14.4533V57.7393Z" fill="#222222"/>
<path d="M18.782 57.7393H16.6177V59.9035H18.782V57.7393Z" fill="#222222"/>
<path d="M33.9319 57.7393H31.7676V59.9035H33.9319V57.7393Z" fill="#222222"/>
<path d="M40.425 57.7393H38.2607V59.9035H40.425V57.7393Z" fill="#222222"/>
<path d="M42.5891 57.7393H40.4248V59.9035H42.5891V57.7393Z" fill="#222222"/>
<path d="M46.9177 57.7393H44.7534V59.9035H46.9177V57.7393Z" fill="#222222"/>
<path d="M51.2463 57.7393H49.082V59.9035H51.2463V57.7393Z" fill="#222222"/>
<path d="M62.0676 57.7393H59.9033V59.9035H62.0676V57.7393Z" fill="#222222"/>
<path d="M64.2322 57.7393H62.0679V59.9035H64.2322V57.7393Z" fill="#222222"/>
<path d="M70.7248 57.7393H68.5605V59.9035H70.7248V57.7393Z" fill="#222222"/>
<path d="M77.218 57.7393H75.0537V59.9035H77.218V57.7393Z" fill="#222222"/>
<path d="M83.7107 57.7393H81.5464V59.9035H83.7107V57.7393Z" fill="#222222"/>
<path d="M23.1106 59.9036H20.9463V62.0679H23.1106V59.9036Z" fill="#222222"/>
<path d="M27.4392 59.9036H25.2749V62.0679H27.4392V59.9036Z" fill="#222222"/>
<path d="M29.6033 59.9036H27.439V62.0679H29.6033V59.9036Z" fill="#222222"/>
<path d="M31.7678 59.9036H29.6035V62.0679H31.7678V59.9036Z" fill="#222222"/>
<path d="M33.9319 59.9036H31.7676V62.0679H33.9319V59.9036Z" fill="#222222"/>
<path d="M36.0964 59.9036H33.9321V62.0679H36.0964V59.9036Z" fill="#222222"/>
<path d="M44.7536 59.9036H42.5894V62.0679H44.7536V59.9036Z" fill="#222222"/>
<path d="M46.9177 59.9036H44.7534V62.0679H46.9177V59.9036Z" fill="#222222"/>
<path d="M49.0823 59.9036H46.918V62.0679H49.0823V59.9036Z" fill="#222222"/>
<path d="M51.2463 59.9036H49.082V62.0679H51.2463V59.9036Z" fill="#222222"/>
<path d="M53.4109 59.9036H51.2466V62.0679H53.4109V59.9036Z" fill="#222222"/>
<path d="M59.9035 59.9036H57.7393V62.0679H59.9035V59.9036Z" fill="#222222"/>
<path d="M62.0676 59.9036H59.9033V62.0679H62.0676V59.9036Z" fill="#222222"/>
<path d="M64.2322 59.9036H62.0679V62.0679H64.2322V59.9036Z" fill="#222222"/>
<path d="M66.3962 59.9036H64.2319V62.0679H66.3962V59.9036Z" fill="#222222"/>
<path d="M68.5608 59.9036H66.3965V62.0679H68.5608V59.9036Z" fill="#222222"/>
<path d="M72.8894 59.9036H70.7251V62.0679H72.8894V59.9036Z" fill="#222222"/>
<path d="M75.0534 59.9036H72.8892V62.0679H75.0534V59.9036Z" fill="#222222"/>
<path d="M77.218 59.9036H75.0537V62.0679H77.218V59.9036Z" fill="#222222"/>
<path d="M79.3821 59.9036H77.2178V62.0679H79.3821V59.9036Z" fill="#222222"/>
<path d="M81.5461 59.9036H79.3818V62.0679H81.5461V59.9036Z" fill="#222222"/>
<path d="M83.7107 59.9036H81.5464V62.0679H83.7107V59.9036Z" fill="#222222"/>
<path d="M16.6179 62.0679H14.4536V64.2322H16.6179V62.0679Z" fill="#222222"/>
<path d="M18.782 62.0679H16.6177V64.2322H18.782V62.0679Z" fill="#222222"/>
<path d="M23.1106 62.0679H20.9463V64.2322H23.1106V62.0679Z" fill="#222222"/>
<path d="M25.2746 62.0679H23.1104V64.2322H25.2746V62.0679Z" fill="#222222"/>
<path d="M29.6033 62.0679H27.439V64.2322H29.6033V62.0679Z" fill="#222222"/>
<path d="M31.7678 62.0679H29.6035V64.2322H31.7678V62.0679Z" fill="#222222"/>
<path d="M36.0964 62.0679H33.9321V64.2322H36.0964V62.0679Z" fill="#222222"/>
<path d="M38.2605 62.0679H36.0962V64.2322H38.2605V62.0679Z" fill="#222222"/>
<path d="M42.5891 62.0679H40.4248V64.2322H42.5891V62.0679Z" fill="#222222"/>
<path d="M44.7536 62.0679H42.5894V64.2322H44.7536V62.0679Z" fill="#222222"/>
<path d="M51.2463 62.0679H49.082V64.2322H51.2463V62.0679Z" fill="#222222"/>
<path d="M55.5749 62.0679H53.4106V64.2322H55.5749V62.0679Z" fill="#222222"/>
<path d="M62.0676 62.0679H59.9033V64.2322H62.0676V62.0679Z" fill="#222222"/>
<path d="M66.3962 62.0679H64.2319V64.2322H66.3962V62.0679Z" fill="#222222"/>
<path d="M70.7248 62.0679H68.5605V64.2322H70.7248V62.0679Z" fill="#222222"/>
<path d="M72.8894 62.0679H70.7251V64.2322H72.8894V62.0679Z" fill="#222222"/>
<path d="M77.218 62.0679H75.0537V64.2322H77.218V62.0679Z" fill="#222222"/>
<path d="M81.5461 62.0679H79.3818V64.2322H81.5461V62.0679Z" fill="#222222"/>
<path d="M14.4533 64.2322H12.2891V66.3965H14.4533V64.2322Z" fill="#222222"/>
<path d="M18.782 64.2322H16.6177V66.3965H18.782V64.2322Z" fill="#222222"/>
<path d="M23.1106 64.2322H20.9463V66.3965H23.1106V64.2322Z" fill="#222222"/>
<path d="M27.4392 64.2322H25.2749V66.3965H27.4392V64.2322Z" fill="#222222"/>
<path d="M31.7678 64.2322H29.6035V66.3965H31.7678V64.2322Z" fill="#222222"/>
<path d="M38.2605 64.2322H36.0962V66.3965H38.2605V64.2322Z" fill="#222222"/>
<path d="M42.5891 64.2322H40.4248V66.3965H42.5891V64.2322Z" fill="#222222"/>
<path d="M44.7536 64.2322H42.5894V66.3965H44.7536V64.2322Z" fill="#222222"/>
<path d="M57.7395 64.2322H55.5752V66.3965H57.7395V64.2322Z" fill="#222222"/>
<path d="M62.0676 64.2322H59.9033V66.3965H62.0676V64.2322Z" fill="#222222"/>
<path d="M66.3962 64.2322H64.2319V66.3965H66.3962V64.2322Z" fill="#222222"/>
<path d="M68.5608 64.2322H66.3965V66.3965H68.5608V64.2322Z" fill="#222222"/>
<path d="M70.7248 64.2322H68.5605V66.3965H70.7248V64.2322Z" fill="#222222"/>
<path d="M72.8894 64.2322H70.7251V66.3965H72.8894V64.2322Z" fill="#222222"/>
<path d="M75.0534 64.2322H72.8892V66.3965H75.0534V64.2322Z" fill="#222222"/>
<path d="M83.7107 64.2322H81.5464V66.3965H83.7107V64.2322Z" fill="#222222"/>
<path d="M31.7678 66.3965H29.6035V68.5608H31.7678V66.3965Z" fill="#222222"/>
<path d="M33.9319 66.3965H31.7676V68.5608H33.9319V66.3965Z" fill="#222222"/>
<path d="M36.0964 66.3965H33.9321V68.5608H36.0964V66.3965Z" fill="#222222"/>
<path d="M40.425 66.3965H38.2607V68.5608H40.425V66.3965Z" fill="#222222"/>
<path d="M42.5891 66.3965H40.4248V68.5608H42.5891V66.3965Z" fill="#222222"/>
<path d="M44.7536 66.3965H42.5894V68.5608H44.7536V66.3965Z" fill="#222222"/>
<path d="M46.9177 66.3965H44.7534V68.5608H46.9177V66.3965Z" fill="#222222"/>
<path d="M49.0823 66.3965H46.918V68.5608H49.0823V66.3965Z" fill="#222222"/>
<path d="M51.2463 66.3965H49.082V68.5608H51.2463V66.3965Z" fill="#222222"/>
<path d="M55.5749 66.3965H53.4106V68.5608H55.5749V66.3965Z" fill="#222222"/>
<path d="M62.0676 66.3965H59.9033V68.5608H62.0676V66.3965Z" fill="#222222"/>
<path d="M64.2322 66.3965H62.0679V68.5608H64.2322V66.3965Z" fill="#222222"/>
<path d="M66.3962 66.3965H64.2319V68.5608H66.3962V66.3965Z" fill="#222222"/>
<path d="M75.0534 66.3965H72.8892V68.5608H75.0534V66.3965Z" fill="#222222"/>
<path d="M77.218 66.3965H75.0537V68.5608H77.218V66.3965Z" fill="#222222"/>
<path d="M81.5461 66.3965H79.3818V68.5608H81.5461V66.3965Z" fill="#222222"/>
<path d="M40.425 68.5608H38.2607V70.7251H40.425V68.5608Z" fill="#222222"/>
<path d="M44.7536 68.5608H42.5894V70.7251H44.7536V68.5608Z" fill="#222222"/>
<path d="M53.4109 68.5608H51.2466V70.7251H53.4109V68.5608Z" fill="#222222"/>
<path d="M55.5749 68.5608H53.4106V70.7251H55.5749V68.5608Z" fill="#222222"/>
<path d="M57.7395 68.5608H55.5752V70.7251H57.7395V68.5608Z" fill="#222222"/>
<path d="M62.0676 68.5608H59.9033V70.7251H62.0676V68.5608Z" fill="#222222"/>
<path d="M64.2322 68.5608H62.0679V70.7251H64.2322V68.5608Z" fill="#222222"/>
<path d="M66.3962 68.5608H64.2319V70.7251H66.3962V68.5608Z" fill="#222222"/>
<path d="M70.7248 68.5608H68.5605V70.7251H70.7248V68.5608Z" fill="#222222"/>
<path d="M75.0534 68.5608H72.8892V70.7251H75.0534V68.5608Z" fill="#222222"/>
<path d="M31.7678 70.7251H29.6035V72.8894H31.7678V70.7251Z" fill="#222222"/>
<path d="M33.9319 70.7251H31.7676V72.8894H33.9319V70.7251Z" fill="#222222"/>
<path d="M44.7536 70.7251H42.5894V72.8894H44.7536V70.7251Z" fill="#222222"/>
<path d="M49.0823 70.7251H46.918V72.8894H49.0823V70.7251Z" fill="#222222"/>
<path d="M51.2463 70.7251H49.082V72.8894H51.2463V70.7251Z" fill="#222222"/>
<path d="M57.7395 70.7251H55.5752V72.8894H57.7395V70.7251Z" fill="#222222"/>
<path d="M59.9035 70.7251H57.7393V72.8894H59.9035V70.7251Z" fill="#222222"/>
<path d="M64.2322 70.7251H62.0679V72.8894H64.2322V70.7251Z" fill="#222222"/>
<path d="M66.3962 70.7251H64.2319V72.8894H66.3962V70.7251Z" fill="#222222"/>
<path d="M75.0534 70.7251H72.8892V72.8894H75.0534V70.7251Z" fill="#222222"/>
<path d="M77.218 70.7251H75.0537V72.8894H77.218V70.7251Z" fill="#222222"/>
<path d="M79.3821 70.7251H77.2178V72.8894H79.3821V70.7251Z" fill="#222222"/>
<path d="M81.5461 70.7251H79.3818V72.8894H81.5461V70.7251Z" fill="#222222"/>
<path d="M83.7107 70.7251H81.5464V72.8894H83.7107V70.7251Z" fill="#222222"/>
<path d="M33.9319 72.8894H31.7676V75.0537H33.9319V72.8894Z" fill="#222222"/>
<path d="M40.425 72.8894H38.2607V75.0537H40.425V72.8894Z" fill="#222222"/>
<path d="M44.7536 72.8894H42.5894V75.0537H44.7536V72.8894Z" fill="#222222"/>
<path d="M46.9177 72.8894H44.7534V75.0537H46.9177V72.8894Z" fill="#222222"/>
<path d="M53.4109 72.8894H51.2466V75.0537H53.4109V72.8894Z" fill="#222222"/>
<path d="M57.7395 72.8894H55.5752V75.0537H57.7395V72.8894Z" fill="#222222"/>
<path d="M64.2322 72.8894H62.0679V75.0537H64.2322V72.8894Z" fill="#222222"/>
<path d="M66.3962 72.8894H64.2319V75.0537H66.3962V72.8894Z" fill="#222222"/>
<path d="M68.5608 72.8894H66.3965V75.0537H68.5608V72.8894Z" fill="#222222"/>
<path d="M70.7248 72.8894H68.5605V75.0537H70.7248V72.8894Z" fill="#222222"/>
<path d="M72.8894 72.8894H70.7251V75.0537H72.8894V72.8894Z" fill="#222222"/>
<path d="M75.0534 72.8894H72.8892V75.0537H75.0534V72.8894Z" fill="#222222"/>
<path d="M79.3821 72.8894H77.2178V75.0537H79.3821V72.8894Z" fill="#222222"/>
<path d="M81.5461 72.8894H79.3818V75.0537H81.5461V72.8894Z" fill="#222222"/>
<path d="M31.7678 75.0535H29.6035V77.2178H31.7678V75.0535Z" fill="#222222"/>
<path d="M36.0964 75.0535H33.9321V77.2178H36.0964V75.0535Z" fill="#222222"/>
<path d="M38.2605 75.0535H36.0962V77.2178H38.2605V75.0535Z" fill="#222222"/>
<path d="M40.425 75.0535H38.2607V77.2178H40.425V75.0535Z" fill="#222222"/>
<path d="M46.9177 75.0535H44.7534V77.2178H46.9177V75.0535Z" fill="#222222"/>
<path d="M55.5749 75.0535H53.4106V77.2178H55.5749V75.0535Z" fill="#222222"/>
<path d="M57.7395 75.0535H55.5752V77.2178H57.7395V75.0535Z" fill="#222222"/>
<path d="M62.0676 75.0535H59.9033V77.2178H62.0676V75.0535Z" fill="#222222"/>
<path d="M66.3962 75.0535H64.2319V77.2178H66.3962V75.0535Z" fill="#222222"/>
<path d="M72.8894 75.0535H70.7251V77.2178H72.8894V75.0535Z" fill="#222222"/>
<path d="M81.5461 75.0535H79.3818V77.2178H81.5461V75.0535Z" fill="#222222"/>
<path d="M83.7107 75.0535H81.5464V77.2178H83.7107V75.0535Z" fill="#222222"/>
<path d="M31.7678 77.2178H29.6035V79.3821H31.7678V77.2178Z" fill="#222222"/>
<path d="M33.9319 77.2178H31.7676V79.3821H33.9319V77.2178Z" fill="#222222"/>
<path d="M38.2605 77.2178H36.0962V79.3821H38.2605V77.2178Z" fill="#222222"/>
<path d="M40.425 77.2178H38.2607V79.3821H40.425V77.2178Z" fill="#222222"/>
<path d="M42.5891 77.2178H40.4248V79.3821H42.5891V77.2178Z" fill="#222222"/>
<path d="M49.0823 77.2178H46.918V79.3821H49.0823V77.2178Z" fill="#222222"/>
<path d="M51.2463 77.2178H49.082V79.3821H51.2463V77.2178Z" fill="#222222"/>
<path d="M55.5749 77.2178H53.4106V79.3821H55.5749V77.2178Z" fill="#222222"/>
<path d="M64.2322 77.2178H62.0679V79.3821H64.2322V77.2178Z" fill="#222222"/>
<path d="M66.3962 77.2178H64.2319V79.3821H66.3962V77.2178Z" fill="#222222"/>
<path d="M70.7248 77.2178H68.5605V79.3821H70.7248V77.2178Z" fill="#222222"/>
<path d="M72.8894 77.2178H70.7251V79.3821H72.8894V77.2178Z" fill="#222222"/>
<path d="M77.218 77.2178H75.0537V79.3821H77.218V77.2178Z" fill="#222222"/>
<path d="M31.7678 79.3821H29.6035V81.5464H31.7678V79.3821Z" fill="#222222"/>
<path d="M33.9319 79.3821H31.7676V81.5464H33.9319V79.3821Z" fill="#222222"/>
<path d="M36.0964 79.3821H33.9321V81.5464H36.0964V79.3821Z" fill="#222222"/>
<path d="M38.2605 79.3821H36.0962V81.5464H38.2605V79.3821Z" fill="#222222"/>
<path d="M46.9177 79.3821H44.7534V81.5464H46.9177V79.3821Z" fill="#222222"/>
<path d="M49.0823 79.3821H46.918V81.5464H49.0823V79.3821Z" fill="#222222"/>
<path d="M51.2463 79.3821H49.082V81.5464H51.2463V79.3821Z" fill="#222222"/>
<path d="M55.5749 79.3821H53.4106V81.5464H55.5749V79.3821Z" fill="#222222"/>
<path d="M62.0676 79.3821H59.9033V81.5464H62.0676V79.3821Z" fill="#222222"/>
<path d="M66.3962 79.3821H64.2319V81.5464H66.3962V79.3821Z" fill="#222222"/>
<path d="M68.5608 79.3821H66.3965V81.5464H68.5608V79.3821Z" fill="#222222"/>
<path d="M72.8894 79.3821H70.7251V81.5464H72.8894V79.3821Z" fill="#222222"/>
<path d="M75.0534 79.3821H72.8892V81.5464H75.0534V79.3821Z" fill="#222222"/>
<path d="M83.7107 79.3821H81.5464V81.5464H83.7107V79.3821Z" fill="#222222"/>
<path d="M33.9319 81.5464H31.7676V83.7107H33.9319V81.5464Z" fill="#222222"/>
<path d="M38.2605 81.5464H36.0962V83.7107H38.2605V81.5464Z" fill="#222222"/>
<path d="M40.425 81.5464H38.2607V83.7107H40.425V81.5464Z" fill="#222222"/>
<path d="M42.5891 81.5464H40.4248V83.7107H42.5891V81.5464Z" fill="#222222"/>
<path d="M44.7536 81.5464H42.5894V83.7107H44.7536V81.5464Z" fill="#222222"/>
<path d="M46.9177 81.5464H44.7534V83.7107H46.9177V81.5464Z" fill="#222222"/>
<path d="M49.0823 81.5464H46.918V83.7107H49.0823V81.5464Z" fill="#222222"/>
<path d="M57.7395 81.5464H55.5752V83.7107H57.7395V81.5464Z" fill="#222222"/>
<path d="M59.9035 81.5464H57.7393V83.7107H59.9035V81.5464Z" fill="#222222"/>
<path d="M64.2322 81.5464H62.0679V83.7107H64.2322V81.5464Z" fill="#222222"/>
<path d="M68.5608 81.5464H66.3965V83.7107H68.5608V81.5464Z" fill="#222222"/>
<path d="M75.0534 81.5464H72.8892V83.7107H75.0534V81.5464Z" fill="#222222"/>
<path d="M79.3821 81.5464H77.2178V83.7107H79.3821V81.5464Z" fill="#222222"/>
<path d="M23.0641 16.6144H16.5713V23.1072H23.0641V16.6144Z" fill="#222222"/>
<path d="M23.0641 73.043H16.5713V79.5358H23.0641V73.043Z" fill="#222222"/>
<path d="M79.4929 16.6144H73V23.1072H79.4929V16.6144Z" fill="#222222"/>
</svg>
