<svg width="96" height="96" viewBox="0 0 96 96" fill="none" xmlns="http://www.w3.org/2000/svg">
<path fill-rule="evenodd" clip-rule="evenodd" d="M10.49 0H20.5703V1.31125H10.49C5.42071 1.31125 1.31125 5.42071 1.31125 10.49V19.4286H0V10.49C0 4.69653 4.69653 0 10.49 0ZM0 75.4286V85.51C0 91.3035 4.69653 96 10.49 96H20.5703V94.6888H10.49C5.42071 94.6888 1.31125 90.5793 1.31125 85.51V75.4286H0ZM76.5703 96H85.51C91.3035 96 96 91.3035 96 85.51V75.4287L94.6888 75.4287V85.51C94.6888 90.5793 90.5793 94.6888 85.51 94.6888H76.5703V96ZM96 10.49V19.4287H94.6888V10.49C94.6888 5.42071 90.5793 1.31125 85.51 1.31125H76.5703V0H85.51C91.3035 0 96 4.69653 96 10.49Z" fill="white"/>
<rect x="10.4375" y="10.4346" width="75.1304" height="75.1304" rx="6.26087" fill="white"/>
<rect x="18.7853" y="18.7823" width="2.01499" height="2.01499" fill="black"/>
<rect x="18.7853" y="20.7974" width="2.01499" height="2.01499" fill="black"/>
<rect x="18.7853" y="22.8124" width="2.01499" height="2.01499" fill="black"/>
<rect x="18.7853" y="24.8273" width="2.01499" height="2.01499" fill="black"/>
<rect x="18.7853" y="26.8423" width="2.01499" height="2.01499" fill="black"/>
<rect x="18.7853" y="28.8573" width="2.01499" height="2.01499" fill="black"/>
<rect x="18.7853" y="30.8723" width="2.01499" height="2.01499" fill="black"/>
<rect x="18.7853" y="42.9623" width="2.01499" height="2.01499" fill="black"/>
<rect x="18.7853" y="46.9922" width="2.01499" height="2.01499" fill="black"/>
<rect x="18.7853" y="49.0072" width="2.01499" height="2.01499" fill="black"/>
<rect x="18.7853" y="51.0222" width="2.01499" height="2.01499" fill="black"/>
<rect x="18.7853" y="53.0372" width="2.01499" height="2.01499" fill="black"/>
<rect x="18.7853" y="55.0522" width="2.01499" height="2.01499" fill="black"/>
<rect x="18.7853" y="57.0673" width="2.01499" height="2.01499" fill="black"/>
<rect x="18.7853" y="59.0822" width="2.01499" height="2.01499" fill="black"/>
<rect x="18.7853" y="63.1122" width="2.01499" height="2.01499" fill="black"/>
<rect x="18.7853" y="65.1272" width="2.01499" height="2.01499" fill="black"/>
<rect x="18.7853" y="67.1422" width="2.01499" height="2.015" fill="black"/>
<rect x="18.7853" y="69.1571" width="2.01499" height="2.01499" fill="black"/>
<rect x="18.7853" y="71.1721" width="2.01499" height="2.01499" fill="black"/>
<rect x="18.7853" y="73.1871" width="2.01499" height="2.01499" fill="black"/>
<rect x="18.7853" y="75.2021" width="2.01499" height="2.01499" fill="black"/>
<rect x="20.8003" y="18.7823" width="2.01499" height="2.01499" fill="black"/>
<rect x="20.8003" y="30.8723" width="2.01499" height="2.01499" fill="black"/>
<rect x="20.8003" y="34.9023" width="2.01499" height="2.01499" fill="black"/>
<rect x="20.8003" y="36.9172" width="2.01499" height="2.01499" fill="black"/>
<rect x="20.8003" y="38.9323" width="2.01499" height="2.01499" fill="black"/>
<rect x="20.8003" y="40.9473" width="2.01499" height="2.01499" fill="black"/>
<rect x="20.8003" y="42.9623" width="2.01499" height="2.01499" fill="black"/>
<rect x="20.8003" y="44.9773" width="2.01499" height="2.01499" fill="black"/>
<rect x="20.8003" y="46.9922" width="2.01499" height="2.01499" fill="black"/>
<rect x="20.8003" y="55.0522" width="2.01499" height="2.01499" fill="black"/>
<rect x="20.8003" y="57.0673" width="2.01499" height="2.01499" fill="black"/>
<rect x="20.8003" y="59.0822" width="2.01499" height="2.01499" fill="black"/>
<rect x="20.8003" y="63.1122" width="2.01499" height="2.01499" fill="black"/>
<rect x="20.8003" y="75.2021" width="2.01499" height="2.01499" fill="black"/>
<rect x="22.8153" y="18.7823" width="2.01499" height="2.01499" fill="black"/>
<rect x="22.8153" y="22.8124" width="2.01499" height="2.01499" fill="black"/>
<rect x="22.8153" y="24.8273" width="2.01499" height="2.01499" fill="black"/>
<rect x="22.8153" y="26.8423" width="2.01499" height="2.01499" fill="black"/>
<rect x="22.8153" y="30.8723" width="2.01499" height="2.01499" fill="black"/>
<rect x="22.8153" y="38.9323" width="2.01499" height="2.01499" fill="black"/>
<rect x="22.8153" y="42.9623" width="2.01499" height="2.01499" fill="black"/>
<rect x="22.8153" y="49.0072" width="2.01499" height="2.01499" fill="black"/>
<rect x="22.8153" y="53.0372" width="2.01499" height="2.01499" fill="black"/>
<rect x="22.8153" y="57.0673" width="2.01499" height="2.01499" fill="black"/>
<rect x="22.8153" y="63.1122" width="2.01499" height="2.01499" fill="black"/>
<rect x="22.8153" y="67.1422" width="2.01499" height="2.015" fill="black"/>
<rect x="22.8153" y="69.1571" width="2.01499" height="2.01499" fill="black"/>
<rect x="22.8153" y="71.1721" width="2.01499" height="2.01499" fill="black"/>
<rect x="22.8153" y="75.2021" width="2.01499" height="2.01499" fill="black"/>
<rect x="24.8303" y="18.7823" width="2.01499" height="2.01499" fill="black"/>
<rect x="24.8303" y="22.8124" width="2.01499" height="2.01499" fill="black"/>
<rect x="24.8303" y="24.8273" width="2.01499" height="2.01499" fill="black"/>
<rect x="24.8303" y="26.8423" width="2.01499" height="2.01499" fill="black"/>
<rect x="24.8303" y="30.8723" width="2.01499" height="2.01499" fill="black"/>
<rect x="24.8303" y="34.9023" width="2.01499" height="2.01499" fill="black"/>
<rect x="24.8303" y="36.9172" width="2.01499" height="2.01499" fill="black"/>
<rect x="24.8303" y="40.9473" width="2.01499" height="2.01499" fill="black"/>
<rect x="24.8303" y="49.0072" width="2.01499" height="2.01499" fill="black"/>
<rect x="24.8303" y="51.0222" width="2.01499" height="2.01499" fill="black"/>
<rect x="24.8303" y="53.0372" width="2.01499" height="2.01499" fill="black"/>
<rect x="24.8303" y="55.0522" width="2.01499" height="2.01499" fill="black"/>
<rect x="24.8303" y="57.0673" width="2.01499" height="2.01499" fill="black"/>
<rect x="24.8303" y="59.0822" width="2.01499" height="2.01499" fill="black"/>
<rect x="24.8303" y="63.1122" width="2.01499" height="2.01499" fill="black"/>
<rect x="24.8303" y="67.1422" width="2.01499" height="2.015" fill="black"/>
<rect x="24.8303" y="69.1571" width="2.01499" height="2.01499" fill="black"/>
<rect x="24.8303" y="71.1721" width="2.01499" height="2.01499" fill="black"/>
<rect x="24.8303" y="75.2021" width="2.01499" height="2.01499" fill="black"/>
<rect x="26.8453" y="18.7823" width="2.01499" height="2.01499" fill="black"/>
<rect x="26.8453" y="22.8124" width="2.01499" height="2.01499" fill="black"/>
<rect x="26.8453" y="24.8273" width="2.01499" height="2.01499" fill="black"/>
<rect x="26.8453" y="26.8423" width="2.01499" height="2.01499" fill="black"/>
<rect x="26.8453" y="30.8723" width="2.01499" height="2.01499" fill="black"/>
<rect x="26.8453" y="34.9023" width="2.01499" height="2.01499" fill="black"/>
<rect x="26.8453" y="36.9172" width="2.01499" height="2.01499" fill="black"/>
<rect x="26.8453" y="38.9323" width="2.01499" height="2.01499" fill="black"/>
<rect x="26.8453" y="44.9773" width="2.01499" height="2.01499" fill="black"/>
<rect x="26.8453" y="49.0072" width="2.01499" height="2.01499" fill="black"/>
<rect x="26.8453" y="63.1122" width="2.01499" height="2.01499" fill="black"/>
<rect x="26.8453" y="67.1422" width="2.01499" height="2.015" fill="black"/>
<rect x="26.8453" y="69.1571" width="2.01499" height="2.01499" fill="black"/>
<rect x="26.8453" y="71.1721" width="2.01499" height="2.01499" fill="black"/>
<rect x="26.8453" y="75.2021" width="2.01499" height="2.01499" fill="black"/>
<rect x="28.8603" y="18.7823" width="2.01499" height="2.01499" fill="black"/>
<rect x="28.8603" y="30.8723" width="2.01499" height="2.01499" fill="black"/>
<rect x="28.8603" y="34.9023" width="2.01499" height="2.01499" fill="black"/>
<rect x="28.8603" y="38.9323" width="2.01499" height="2.01499" fill="black"/>
<rect x="28.8603" y="42.9623" width="2.01499" height="2.01499" fill="black"/>
<rect x="28.8603" y="51.0222" width="2.01499" height="2.01499" fill="black"/>
<rect x="28.8603" y="53.0372" width="2.01499" height="2.01499" fill="black"/>
<rect x="28.8603" y="63.1122" width="2.01499" height="2.01499" fill="black"/>
<rect x="28.8603" y="75.2021" width="2.01499" height="2.01499" fill="black"/>
<rect x="30.8753" y="18.7823" width="2.01499" height="2.01499" fill="black"/>
<rect x="30.8753" y="20.7974" width="2.01499" height="2.01499" fill="black"/>
<rect x="30.8753" y="22.8124" width="2.01499" height="2.01499" fill="black"/>
<rect x="30.8753" y="24.8273" width="2.01499" height="2.01499" fill="black"/>
<rect x="30.8753" y="26.8423" width="2.01499" height="2.01499" fill="black"/>
<rect x="30.8753" y="28.8573" width="2.01499" height="2.01499" fill="black"/>
<rect x="30.8753" y="30.8723" width="2.01499" height="2.01499" fill="black"/>
<rect x="30.8753" y="34.9023" width="2.01499" height="2.01499" fill="black"/>
<rect x="30.8753" y="38.9323" width="2.01499" height="2.01499" fill="black"/>
<rect x="30.8753" y="42.9623" width="2.01499" height="2.01499" fill="black"/>
<rect x="30.8753" y="46.9922" width="2.01499" height="2.01499" fill="black"/>
<rect x="30.8753" y="51.0222" width="2.01499" height="2.01499" fill="black"/>
<rect x="30.8753" y="55.0522" width="2.01499" height="2.01499" fill="black"/>
<rect x="30.8753" y="59.0822" width="2.01499" height="2.01499" fill="black"/>
<rect x="30.8753" y="63.1122" width="2.01499" height="2.01499" fill="black"/>
<rect x="30.8753" y="65.1272" width="2.01499" height="2.01499" fill="black"/>
<rect x="30.8753" y="67.1422" width="2.01499" height="2.015" fill="black"/>
<rect x="30.8753" y="69.1571" width="2.01499" height="2.01499" fill="black"/>
<rect x="30.8753" y="71.1721" width="2.01499" height="2.01499" fill="black"/>
<rect x="30.8753" y="73.1871" width="2.01499" height="2.01499" fill="black"/>
<rect x="30.8753" y="75.2021" width="2.01499" height="2.01499" fill="black"/>
<rect x="32.8903" y="36.9172" width="2.01499" height="2.01499" fill="black"/>
<rect x="32.8903" y="40.9473" width="2.01499" height="2.01499" fill="black"/>
<rect x="32.8903" y="44.9773" width="2.01499" height="2.01499" fill="black"/>
<rect x="32.8903" y="46.9922" width="2.01499" height="2.01499" fill="black"/>
<rect x="32.8903" y="49.0072" width="2.01499" height="2.01499" fill="black"/>
<rect x="32.8903" y="55.0522" width="2.01499" height="2.01499" fill="black"/>
<rect x="32.8903" y="57.0673" width="2.01499" height="2.01499" fill="black"/>
<rect x="34.9053" y="20.7974" width="2.01499" height="2.01499" fill="black"/>
<rect x="34.9053" y="24.8273" width="2.01499" height="2.01499" fill="black"/>
<rect x="34.9053" y="26.8423" width="2.01499" height="2.01499" fill="black"/>
<rect x="34.9053" y="30.8723" width="2.01499" height="2.01499" fill="black"/>
<rect x="34.9053" y="32.8873" width="2.01499" height="2.01499" fill="black"/>
<rect x="34.9053" y="34.9023" width="2.01499" height="2.01499" fill="black"/>
<rect x="34.9053" y="42.9623" width="2.01499" height="2.01499" fill="black"/>
<rect x="34.9053" y="44.9773" width="2.01499" height="2.01499" fill="black"/>
<rect x="34.9053" y="46.9922" width="2.01499" height="2.01499" fill="black"/>
<rect x="34.9053" y="53.0372" width="2.01499" height="2.01499" fill="black"/>
<rect x="34.9053" y="57.0673" width="2.01499" height="2.01499" fill="black"/>
<rect x="34.9053" y="61.0972" width="2.01499" height="2.01499" fill="black"/>
<rect x="34.9053" y="65.1272" width="2.01499" height="2.01499" fill="black"/>
<rect x="34.9053" y="67.1422" width="2.01499" height="2.015" fill="black"/>
<rect x="34.9053" y="69.1571" width="2.01499" height="2.01499" fill="black"/>
<rect x="34.9053" y="73.1871" width="2.01499" height="2.01499" fill="black"/>
<rect x="36.9203" y="18.7823" width="2.01499" height="2.01499" fill="black"/>
<rect x="36.9203" y="24.8273" width="2.01499" height="2.01499" fill="black"/>
<rect x="36.9203" y="34.9023" width="2.01499" height="2.01499" fill="black"/>
<rect x="36.9203" y="36.9172" width="2.01499" height="2.01499" fill="black"/>
<rect x="36.9203" y="38.9323" width="2.01499" height="2.01499" fill="black"/>
<rect x="36.9203" y="44.9773" width="2.01499" height="2.01499" fill="black"/>
<rect x="36.9203" y="46.9922" width="2.01499" height="2.01499" fill="black"/>
<rect x="36.9203" y="51.0222" width="2.01499" height="2.01499" fill="black"/>
<rect x="36.9203" y="53.0372" width="2.01499" height="2.01499" fill="black"/>
<rect x="36.9203" y="59.0822" width="2.01499" height="2.01499" fill="black"/>
<rect x="36.9203" y="63.1122" width="2.01499" height="2.01499" fill="black"/>
<rect x="36.9203" y="67.1422" width="2.01499" height="2.015" fill="black"/>
<rect x="38.9353" y="22.8124" width="2.01499" height="2.01499" fill="black"/>
<rect x="38.9353" y="26.8423" width="2.01499" height="2.01499" fill="black"/>
<rect x="38.9353" y="30.8723" width="2.01499" height="2.01499" fill="black"/>
<rect x="38.9353" y="32.8873" width="2.01499" height="2.01499" fill="black"/>
<rect x="38.9353" y="34.9023" width="2.01499" height="2.01499" fill="black"/>
<rect x="38.9353" y="36.9172" width="2.01499" height="2.01499" fill="black"/>
<rect x="38.9353" y="40.9473" width="2.01499" height="2.01499" fill="black"/>
<rect x="38.9353" y="42.9623" width="2.01499" height="2.01499" fill="black"/>
<rect x="38.9353" y="53.0372" width="2.01499" height="2.01499" fill="black"/>
<rect x="38.9353" y="69.1571" width="2.01499" height="2.01499" fill="black"/>
<rect x="38.9353" y="71.1721" width="2.01499" height="2.01499" fill="black"/>
<rect x="38.9353" y="73.1871" width="2.01499" height="2.01499" fill="black"/>
<rect x="38.9353" y="75.2021" width="2.01499" height="2.01499" fill="black"/>
<rect x="40.9503" y="22.8124" width="2.01499" height="2.01499" fill="black"/>
<rect x="40.9503" y="24.8273" width="2.01499" height="2.01499" fill="black"/>
<rect x="40.9503" y="26.8423" width="2.01499" height="2.01499" fill="black"/>
<rect x="40.9503" y="36.9172" width="2.01499" height="2.01499" fill="black"/>
<rect x="40.9503" y="40.9473" width="2.01499" height="2.01499" fill="black"/>
<rect x="40.9503" y="42.9623" width="2.01499" height="2.01499" fill="black"/>
<rect x="40.9503" y="46.9922" width="2.01499" height="2.01499" fill="black"/>
<rect x="40.9503" y="49.0072" width="2.01499" height="2.01499" fill="black"/>
<rect x="40.9503" y="57.0673" width="2.01499" height="2.01499" fill="black"/>
<rect x="40.9503" y="61.0972" width="2.01499" height="2.01499" fill="black"/>
<rect x="40.9503" y="63.1122" width="2.01499" height="2.01499" fill="black"/>
<rect x="40.9503" y="67.1422" width="2.01499" height="2.015" fill="black"/>
<rect x="40.9503" y="75.2021" width="2.01499" height="2.01499" fill="black"/>
<rect x="42.9652" y="22.8124" width="2.01499" height="2.01499" fill="black"/>
<rect x="42.9652" y="28.8573" width="2.01499" height="2.01499" fill="black"/>
<rect x="42.9652" y="30.8723" width="2.01499" height="2.01499" fill="black"/>
<rect x="42.9652" y="32.8873" width="2.01499" height="2.01499" fill="black"/>
<rect x="42.9652" y="34.9023" width="2.01499" height="2.01499" fill="black"/>
<rect x="42.9652" y="36.9172" width="2.01499" height="2.01499" fill="black"/>
<rect x="42.9652" y="40.9473" width="2.01499" height="2.01499" fill="black"/>
<rect x="42.9652" y="46.9922" width="2.01499" height="2.01499" fill="black"/>
<rect x="42.9652" y="53.0372" width="2.01499" height="2.01499" fill="black"/>
<rect x="42.9652" y="55.0522" width="2.01499" height="2.01499" fill="black"/>
<rect x="42.9652" y="59.0822" width="2.01499" height="2.01499" fill="black"/>
<rect x="42.9652" y="61.0972" width="2.01499" height="2.01499" fill="black"/>
<rect x="42.9652" y="63.1122" width="2.01499" height="2.01499" fill="black"/>
<rect x="42.9652" y="65.1272" width="2.01499" height="2.01499" fill="black"/>
<rect x="42.9652" y="67.1422" width="2.01499" height="2.015" fill="black"/>
<rect x="42.9652" y="75.2021" width="2.01499" height="2.01499" fill="black"/>
<rect x="44.9803" y="18.7823" width="2.01499" height="2.01499" fill="black"/>
<rect x="44.9803" y="20.7974" width="2.01499" height="2.01499" fill="black"/>
<rect x="44.9803" y="26.8423" width="2.01499" height="2.01499" fill="black"/>
<rect x="44.9803" y="32.8873" width="2.01499" height="2.01499" fill="black"/>
<rect x="44.9803" y="36.9172" width="2.01499" height="2.01499" fill="black"/>
<rect x="44.9803" y="40.9473" width="2.01499" height="2.01499" fill="black"/>
<rect x="44.9803" y="42.9623" width="2.01499" height="2.01499" fill="black"/>
<rect x="44.9803" y="44.9773" width="2.01499" height="2.01499" fill="black"/>
<rect x="44.9803" y="49.0072" width="2.01499" height="2.01499" fill="black"/>
<rect x="44.9803" y="55.0522" width="2.01499" height="2.01499" fill="black"/>
<rect x="44.9803" y="57.0673" width="2.01499" height="2.01499" fill="black"/>
<rect x="44.9803" y="59.0822" width="2.01499" height="2.01499" fill="black"/>
<rect x="44.9803" y="69.1571" width="2.01499" height="2.01499" fill="black"/>
<rect x="44.9803" y="71.1721" width="2.01499" height="2.01499" fill="black"/>
<rect x="44.9803" y="75.2021" width="2.01499" height="2.01499" fill="black"/>
<rect x="46.9952" y="18.7823" width="2.01499" height="2.01499" fill="black"/>
<rect x="46.9952" y="22.8124" width="2.01499" height="2.01499" fill="black"/>
<rect x="46.9952" y="28.8573" width="2.01499" height="2.01499" fill="black"/>
<rect x="46.9952" y="30.8723" width="2.01499" height="2.01499" fill="black"/>
<rect x="46.9952" y="32.8873" width="2.01499" height="2.01499" fill="black"/>
<rect x="46.9952" y="36.9172" width="2.01499" height="2.01499" fill="black"/>
<rect x="46.9952" y="42.9623" width="2.01499" height="2.01499" fill="black"/>
<rect x="46.9952" y="49.0072" width="2.01499" height="2.01499" fill="black"/>
<rect x="46.9952" y="51.0222" width="2.01499" height="2.01499" fill="black"/>
<rect x="46.9952" y="55.0522" width="2.01499" height="2.01499" fill="black"/>
<rect x="46.9952" y="59.0822" width="2.01499" height="2.01499" fill="black"/>
<rect x="46.9952" y="61.0972" width="2.01499" height="2.01499" fill="black"/>
<rect x="46.9952" y="63.1122" width="2.01499" height="2.01499" fill="black"/>
<rect x="46.9952" y="65.1272" width="2.01499" height="2.01499" fill="black"/>
<rect x="46.9952" y="71.1721" width="2.01499" height="2.01499" fill="black"/>
<rect x="46.9952" y="73.1871" width="2.01499" height="2.01499" fill="black"/>
<rect x="49.0102" y="18.7823" width="2.01499" height="2.01499" fill="black"/>
<rect x="49.0102" y="22.8124" width="2.01499" height="2.01499" fill="black"/>
<rect x="49.0102" y="26.8423" width="2.01499" height="2.01499" fill="black"/>
<rect x="49.0102" y="28.8573" width="2.01499" height="2.01499" fill="black"/>
<rect x="49.0102" y="34.9023" width="2.01499" height="2.01499" fill="black"/>
<rect x="49.0102" y="36.9172" width="2.01499" height="2.01499" fill="black"/>
<rect x="49.0102" y="38.9323" width="2.01499" height="2.01499" fill="black"/>
<rect x="49.0102" y="40.9473" width="2.01499" height="2.01499" fill="black"/>
<rect x="49.0102" y="46.9922" width="2.01499" height="2.01499" fill="black"/>
<rect x="49.0102" y="49.0072" width="2.01499" height="2.01499" fill="black"/>
<rect x="49.0102" y="51.0222" width="2.01499" height="2.01499" fill="black"/>
<rect x="49.0102" y="57.0673" width="2.01499" height="2.01499" fill="black"/>
<rect x="49.0102" y="61.0972" width="2.01499" height="2.01499" fill="black"/>
<rect x="49.0102" y="63.1122" width="2.01499" height="2.01499" fill="black"/>
<rect x="49.0102" y="67.1422" width="2.01499" height="2.015" fill="black"/>
<rect x="49.0102" y="71.1721" width="2.01499" height="2.01499" fill="black"/>
<rect x="49.0102" y="75.2021" width="2.01499" height="2.01499" fill="black"/>
<rect x="51.0252" y="20.7974" width="2.01499" height="2.01499" fill="black"/>
<rect x="51.0252" y="22.8124" width="2.01499" height="2.01499" fill="black"/>
<rect x="51.0252" y="24.8273" width="2.01499" height="2.01499" fill="black"/>
<rect x="51.0252" y="30.8723" width="2.01499" height="2.01499" fill="black"/>
<rect x="51.0252" y="36.9172" width="2.01499" height="2.01499" fill="black"/>
<rect x="51.0252" y="38.9323" width="2.01499" height="2.01499" fill="black"/>
<rect x="51.0252" y="44.9773" width="2.01499" height="2.01499" fill="black"/>
<rect x="51.0252" y="46.9922" width="2.01499" height="2.01499" fill="black"/>
<rect x="51.0252" y="49.0072" width="2.01499" height="2.01499" fill="black"/>
<rect x="51.0252" y="55.0522" width="2.01499" height="2.01499" fill="black"/>
<rect x="51.0252" y="57.0673" width="2.01499" height="2.01499" fill="black"/>
<rect x="51.0252" y="63.1122" width="2.01499" height="2.01499" fill="black"/>
<rect x="51.0252" y="65.1272" width="2.01499" height="2.01499" fill="black"/>
<rect x="51.0252" y="73.1871" width="2.01499" height="2.01499" fill="black"/>
<rect x="53.0402" y="18.7823" width="2.01499" height="2.01499" fill="black"/>
<rect x="53.0402" y="20.7974" width="2.01499" height="2.01499" fill="black"/>
<rect x="53.0402" y="24.8273" width="2.01499" height="2.01499" fill="black"/>
<rect x="53.0402" y="32.8873" width="2.01499" height="2.01499" fill="black"/>
<rect x="53.0402" y="40.9473" width="2.01499" height="2.01499" fill="black"/>
<rect x="53.0402" y="51.0222" width="2.01499" height="2.01499" fill="black"/>
<rect x="53.0402" y="59.0822" width="2.01499" height="2.01499" fill="black"/>
<rect x="53.0402" y="61.0972" width="2.01499" height="2.01499" fill="black"/>
<rect x="53.0402" y="67.1422" width="2.01499" height="2.015" fill="black"/>
<rect x="55.0552" y="20.7974" width="2.01499" height="2.01499" fill="black"/>
<rect x="55.0552" y="30.8723" width="2.01499" height="2.01499" fill="black"/>
<rect x="55.0552" y="32.8873" width="2.01499" height="2.01499" fill="black"/>
<rect x="55.0552" y="36.9172" width="2.01499" height="2.01499" fill="black"/>
<rect x="55.0552" y="38.9323" width="2.01499" height="2.01499" fill="black"/>
<rect x="55.0552" y="44.9773" width="2.01499" height="2.01499" fill="black"/>
<rect x="55.0552" y="46.9922" width="2.01499" height="2.01499" fill="black"/>
<rect x="55.0552" y="51.0222" width="2.01499" height="2.01499" fill="black"/>
<rect x="55.0552" y="65.1272" width="2.01499" height="2.01499" fill="black"/>
<rect x="55.0552" y="69.1571" width="2.01499" height="2.01499" fill="black"/>
<rect x="55.0552" y="71.1721" width="2.01499" height="2.01499" fill="black"/>
<rect x="55.0552" y="73.1871" width="2.01499" height="2.01499" fill="black"/>
<rect x="57.0702" y="18.7823" width="2.01499" height="2.01499" fill="black"/>
<rect x="57.0702" y="20.7974" width="2.01499" height="2.01499" fill="black"/>
<rect x="57.0702" y="22.8124" width="2.01499" height="2.01499" fill="black"/>
<rect x="57.0702" y="26.8423" width="2.01499" height="2.01499" fill="black"/>
<rect x="57.0702" y="38.9323" width="2.01499" height="2.01499" fill="black"/>
<rect x="57.0702" y="40.9473" width="2.01499" height="2.01499" fill="black"/>
<rect x="57.0702" y="46.9922" width="2.01499" height="2.01499" fill="black"/>
<rect x="57.0702" y="49.0072" width="2.01499" height="2.01499" fill="black"/>
<rect x="57.0702" y="51.0222" width="2.01499" height="2.01499" fill="black"/>
<rect x="57.0702" y="55.0522" width="2.01499" height="2.01499" fill="black"/>
<rect x="57.0702" y="57.0673" width="2.01499" height="2.01499" fill="black"/>
<rect x="57.0702" y="59.0822" width="2.01499" height="2.01499" fill="black"/>
<rect x="57.0702" y="63.1122" width="2.01499" height="2.01499" fill="black"/>
<rect x="57.0702" y="65.1272" width="2.01499" height="2.01499" fill="black"/>
<rect x="57.0702" y="67.1422" width="2.01499" height="2.015" fill="black"/>
<rect x="57.0702" y="75.2021" width="2.01499" height="2.01499" fill="black"/>
<rect x="59.0852" y="18.7823" width="2.01499" height="2.01499" fill="black"/>
<rect x="59.0852" y="28.8573" width="2.01499" height="2.01499" fill="black"/>
<rect x="59.0852" y="30.8723" width="2.01499" height="2.01499" fill="black"/>
<rect x="59.0852" y="38.9323" width="2.01499" height="2.01499" fill="black"/>
<rect x="59.0852" y="40.9473" width="2.01499" height="2.01499" fill="black"/>
<rect x="59.0852" y="42.9623" width="2.01499" height="2.01499" fill="black"/>
<rect x="59.0852" y="57.0673" width="2.01499" height="2.01499" fill="black"/>
<rect x="59.0852" y="59.0822" width="2.01499" height="2.01499" fill="black"/>
<rect x="59.0852" y="61.0972" width="2.01499" height="2.01499" fill="black"/>
<rect x="59.0852" y="63.1122" width="2.01499" height="2.01499" fill="black"/>
<rect x="59.0852" y="65.1272" width="2.01499" height="2.01499" fill="black"/>
<rect x="59.0852" y="67.1422" width="2.01499" height="2.015" fill="black"/>
<rect x="59.0852" y="71.1721" width="2.01499" height="2.01499" fill="black"/>
<rect x="59.0852" y="73.1871" width="2.01499" height="2.01499" fill="black"/>
<rect x="61.1002" y="34.9023" width="2.01499" height="2.01499" fill="black"/>
<rect x="61.1002" y="38.9323" width="2.01499" height="2.01499" fill="black"/>
<rect x="61.1002" y="42.9623" width="2.01499" height="2.01499" fill="black"/>
<rect x="61.1002" y="46.9922" width="2.01499" height="2.01499" fill="black"/>
<rect x="61.1002" y="49.0072" width="2.01499" height="2.01499" fill="black"/>
<rect x="61.1002" y="51.0222" width="2.01499" height="2.01499" fill="black"/>
<rect x="61.1002" y="53.0372" width="2.01499" height="2.01499" fill="black"/>
<rect x="61.1002" y="57.0673" width="2.01499" height="2.01499" fill="black"/>
<rect x="61.1002" y="59.0822" width="2.01499" height="2.01499" fill="black"/>
<rect x="61.1002" y="67.1422" width="2.01499" height="2.015" fill="black"/>
<rect x="61.1002" y="71.1721" width="2.01499" height="2.01499" fill="black"/>
<rect x="61.1002" y="73.1871" width="2.01499" height="2.01499" fill="black"/>
<rect x="61.1002" y="75.2021" width="2.01499" height="2.01499" fill="black"/>
<rect x="63.1152" y="18.7823" width="2.01499" height="2.01499" fill="black"/>
<rect x="63.1152" y="20.7974" width="2.01499" height="2.01499" fill="black"/>
<rect x="63.1152" y="22.8124" width="2.01499" height="2.01499" fill="black"/>
<rect x="63.1152" y="24.8273" width="2.01499" height="2.01499" fill="black"/>
<rect x="63.1152" y="26.8423" width="2.01499" height="2.01499" fill="black"/>
<rect x="63.1152" y="28.8573" width="2.01499" height="2.01499" fill="black"/>
<rect x="63.1152" y="30.8723" width="2.01499" height="2.01499" fill="black"/>
<rect x="63.1152" y="34.9023" width="2.01499" height="2.01499" fill="black"/>
<rect x="63.1152" y="36.9172" width="2.01499" height="2.01499" fill="black"/>
<rect x="63.1152" y="38.9323" width="2.01499" height="2.01499" fill="black"/>
<rect x="63.1152" y="42.9623" width="2.01499" height="2.01499" fill="black"/>
<rect x="63.1152" y="44.9773" width="2.01499" height="2.01499" fill="black"/>
<rect x="63.1152" y="46.9922" width="2.01499" height="2.01499" fill="black"/>
<rect x="63.1152" y="49.0072" width="2.01499" height="2.01499" fill="black"/>
<rect x="63.1152" y="53.0372" width="2.01499" height="2.01499" fill="black"/>
<rect x="63.1152" y="57.0673" width="2.01499" height="2.01499" fill="black"/>
<rect x="63.1152" y="59.0822" width="2.01499" height="2.01499" fill="black"/>
<rect x="63.1152" y="63.1122" width="2.01499" height="2.01499" fill="black"/>
<rect x="63.1152" y="67.1422" width="2.01499" height="2.015" fill="black"/>
<rect x="63.1152" y="75.2021" width="2.01499" height="2.01499" fill="black"/>
<rect x="65.1302" y="18.7823" width="2.01499" height="2.01499" fill="black"/>
<rect x="65.1302" y="30.8723" width="2.01499" height="2.01499" fill="black"/>
<rect x="65.1302" y="36.9172" width="2.01499" height="2.01499" fill="black"/>
<rect x="65.1302" y="38.9323" width="2.01499" height="2.01499" fill="black"/>
<rect x="65.1302" y="46.9922" width="2.01499" height="2.01499" fill="black"/>
<rect x="65.1302" y="51.0222" width="2.01499" height="2.01499" fill="black"/>
<rect x="65.1302" y="53.0372" width="2.01499" height="2.01499" fill="black"/>
<rect x="65.1302" y="57.0673" width="2.01499" height="2.01499" fill="black"/>
<rect x="65.1302" y="59.0822" width="2.01499" height="2.01499" fill="black"/>
<rect x="65.1302" y="67.1422" width="2.01499" height="2.015" fill="black"/>
<rect x="65.1302" y="69.1571" width="2.01499" height="2.01499" fill="black"/>
<rect x="65.1302" y="71.1721" width="2.01499" height="2.01499" fill="black"/>
<rect x="65.1302" y="75.2021" width="2.01499" height="2.01499" fill="black"/>
<rect x="67.1451" y="18.7823" width="2.015" height="2.01499" fill="black"/>
<rect x="67.1451" y="22.8124" width="2.015" height="2.01499" fill="black"/>
<rect x="67.1451" y="24.8273" width="2.015" height="2.01499" fill="black"/>
<rect x="67.1451" y="26.8423" width="2.015" height="2.01499" fill="black"/>
<rect x="67.1451" y="30.8723" width="2.015" height="2.01499" fill="black"/>
<rect x="67.1451" y="34.9023" width="2.015" height="2.01499" fill="black"/>
<rect x="67.1451" y="44.9773" width="2.015" height="2.01499" fill="black"/>
<rect x="67.1451" y="49.0072" width="2.015" height="2.01499" fill="black"/>
<rect x="67.1451" y="51.0222" width="2.015" height="2.01499" fill="black"/>
<rect x="67.1451" y="53.0372" width="2.015" height="2.01499" fill="black"/>
<rect x="67.1451" y="59.0822" width="2.015" height="2.01499" fill="black"/>
<rect x="67.1451" y="61.0972" width="2.015" height="2.01499" fill="black"/>
<rect x="67.1451" y="63.1122" width="2.015" height="2.01499" fill="black"/>
<rect x="67.1451" y="65.1272" width="2.015" height="2.01499" fill="black"/>
<rect x="67.1451" y="67.1422" width="2.015" height="2.015" fill="black"/>
<rect x="67.1451" y="71.1721" width="2.015" height="2.01499" fill="black"/>
<rect x="67.1451" y="73.1871" width="2.015" height="2.01499" fill="black"/>
<rect x="67.1451" y="75.2021" width="2.015" height="2.01499" fill="black"/>
<rect x="69.1602" y="18.7823" width="2.01499" height="2.01499" fill="black"/>
<rect x="69.1602" y="22.8124" width="2.01499" height="2.01499" fill="black"/>
<rect x="69.1602" y="24.8273" width="2.01499" height="2.01499" fill="black"/>
<rect x="69.1602" y="26.8423" width="2.01499" height="2.01499" fill="black"/>
<rect x="69.1602" y="30.8723" width="2.01499" height="2.01499" fill="black"/>
<rect x="69.1602" y="34.9023" width="2.01499" height="2.01499" fill="black"/>
<rect x="69.1602" y="38.9323" width="2.01499" height="2.01499" fill="black"/>
<rect x="69.1602" y="40.9473" width="2.01499" height="2.01499" fill="black"/>
<rect x="69.1602" y="42.9623" width="2.01499" height="2.01499" fill="black"/>
<rect x="69.1602" y="46.9922" width="2.01499" height="2.01499" fill="black"/>
<rect x="69.1602" y="49.0072" width="2.01499" height="2.01499" fill="black"/>
<rect x="69.1602" y="51.0222" width="2.01499" height="2.01499" fill="black"/>
<rect x="69.1602" y="53.0372" width="2.01499" height="2.01499" fill="black"/>
<rect x="69.1602" y="59.0822" width="2.01499" height="2.01499" fill="black"/>
<rect x="69.1602" y="61.0972" width="2.01499" height="2.01499" fill="black"/>
<rect x="69.1602" y="65.1272" width="2.01499" height="2.01499" fill="black"/>
<rect x="71.1751" y="18.7823" width="2.01499" height="2.01499" fill="black"/>
<rect x="71.1751" y="22.8124" width="2.01499" height="2.01499" fill="black"/>
<rect x="71.1751" y="24.8273" width="2.01499" height="2.01499" fill="black"/>
<rect x="71.1751" y="26.8423" width="2.01499" height="2.01499" fill="black"/>
<rect x="71.1751" y="30.8723" width="2.01499" height="2.01499" fill="black"/>
<rect x="71.1751" y="36.9172" width="2.01499" height="2.01499" fill="black"/>
<rect x="71.1751" y="44.9773" width="2.01499" height="2.01499" fill="black"/>
<rect x="71.1751" y="49.0072" width="2.01499" height="2.01499" fill="black"/>
<rect x="71.1751" y="53.0372" width="2.01499" height="2.01499" fill="black"/>
<rect x="71.1751" y="57.0673" width="2.01499" height="2.01499" fill="black"/>
<rect x="71.1751" y="59.0822" width="2.01499" height="2.01499" fill="black"/>
<rect x="71.1751" y="61.0972" width="2.01499" height="2.01499" fill="black"/>
<rect x="71.1751" y="63.1122" width="2.01499" height="2.01499" fill="black"/>
<rect x="71.1751" y="73.1871" width="2.01499" height="2.01499" fill="black"/>
<rect x="73.1902" y="18.7823" width="2.01499" height="2.01499" fill="black"/>
<rect x="73.1902" y="30.8723" width="2.01499" height="2.01499" fill="black"/>
<rect x="73.1902" y="34.9023" width="2.01499" height="2.01499" fill="black"/>
<rect x="73.1902" y="36.9172" width="2.01499" height="2.01499" fill="black"/>
<rect x="73.1902" y="42.9623" width="2.01499" height="2.01499" fill="black"/>
<rect x="73.1902" y="57.0673" width="2.01499" height="2.01499" fill="black"/>
<rect x="73.1902" y="63.1122" width="2.01499" height="2.01499" fill="black"/>
<rect x="73.1902" y="65.1272" width="2.01499" height="2.01499" fill="black"/>
<rect x="73.1902" y="67.1422" width="2.01499" height="2.015" fill="black"/>
<rect x="73.1902" y="69.1571" width="2.01499" height="2.01499" fill="black"/>
<rect x="73.1902" y="71.1721" width="2.01499" height="2.01499" fill="black"/>
<rect x="75.2051" y="18.7823" width="2.01499" height="2.01499" fill="black"/>
<rect x="75.2051" y="20.7974" width="2.01499" height="2.01499" fill="black"/>
<rect x="75.2051" y="22.8124" width="2.01499" height="2.01499" fill="black"/>
<rect x="75.2051" y="24.8273" width="2.01499" height="2.01499" fill="black"/>
<rect x="75.2051" y="26.8423" width="2.01499" height="2.01499" fill="black"/>
<rect x="75.2051" y="28.8573" width="2.01499" height="2.01499" fill="black"/>
<rect x="75.2051" y="30.8723" width="2.01499" height="2.01499" fill="black"/>
<rect x="75.2051" y="40.9473" width="2.01499" height="2.01499" fill="black"/>
<rect x="75.2051" y="44.9773" width="2.01499" height="2.01499" fill="black"/>
<rect x="75.2051" y="46.9922" width="2.01499" height="2.01499" fill="black"/>
<rect x="75.2051" y="51.0222" width="2.01499" height="2.01499" fill="black"/>
<rect x="75.2051" y="55.0522" width="2.01499" height="2.01499" fill="black"/>
<rect x="75.2051" y="59.0822" width="2.01499" height="2.01499" fill="black"/>
<rect x="75.2051" y="65.1272" width="2.01499" height="2.01499" fill="black"/>
<rect x="75.2051" y="71.1721" width="2.01499" height="2.01499" fill="black"/>
<rect x="75.2051" y="73.1871" width="2.01499" height="2.01499" fill="black"/>
</svg>
