<svg width="118" height="35" viewBox="0 0 118 35" fill="none" xmlns="http://www.w3.org/2000/svg">
<path d="M113.167 34.865H4.83333C2.45 34.865 0.5 32.9525 0.5 30.615V5.11514C0.5 2.77765 2.45 0.865158 4.83333 0.865158H113.167C115.55 0.865158 117.5 2.77765 117.5 5.11514V30.615C117.5 32.9525 115.55 34.865 113.167 34.865Z" fill="black"/>
<path d="M113.167 0.865402H4.83333C2.45 0.865402 0.5 2.77789 0.5 5.11538V30.6153C0.5 32.9527 2.45 34.8652 4.83333 34.8652H113.167C115.55 34.8652 117.5 32.9527 117.5 30.6153V5.11538C117.5 2.77789 115.55 0.865402 113.167 0.865402ZM113.167 1.5454C115.174 1.5454 116.807 3.14679 116.807 5.11538V30.6153C116.807 32.5838 115.174 34.1852 113.167 34.1852H4.83333C2.82613 34.1852 1.19334 32.5838 1.19334 30.6153V5.11538C1.19334 3.14679 2.82613 1.5454 4.83333 1.5454H113.167Z" fill="#A6A6A6"/>
<path d="M93.178 26.3653H94.7952V15.7395H93.178V26.3653ZM107.744 19.567L105.89 24.174H105.835L103.911 19.567H102.169L105.054 26.0057L103.41 29.5876H105.095L109.542 19.567H107.744ZM98.573 25.1583C98.0426 25.1583 97.3042 24.899 97.3042 24.2556C97.3042 23.4362 98.2237 23.1217 99.0184 23.1217C99.7291 23.1217 100.064 23.2721 100.496 23.477C100.37 24.4613 99.5064 25.1583 98.573 25.1583ZM98.768 19.3349C97.5971 19.3349 96.3838 19.8407 95.8828 20.9618L97.318 21.5492C97.6248 20.9618 98.196 20.7697 98.7957 20.7697C99.632 20.7697 100.482 21.2619 100.496 22.1374V22.2462C100.203 22.0821 99.5766 21.8365 98.8096 21.8365C97.2626 21.8365 95.687 22.6703 95.687 24.2284C95.687 25.6504 96.9558 26.5667 98.3771 26.5667C99.4648 26.5667 100.064 26.0882 100.441 25.5272H100.496V26.3474H102.057V22.2734C102.057 20.3872 100.622 19.3349 98.768 19.3349ZM88.7736 20.8607H86.4734V17.2184H88.7736C89.9826 17.2184 90.669 18.2002 90.669 19.0391C90.669 19.8628 89.9826 20.8607 88.7736 20.8607ZM88.732 15.7395H84.8571V26.3653H86.4734V22.3397H88.732C90.5242 22.3397 92.2862 21.0664 92.2862 19.0391C92.2862 17.0119 90.5242 15.7395 88.732 15.7395ZM67.6018 25.16C66.4846 25.16 65.5495 24.2428 65.5495 22.9831C65.5495 21.7098 66.4846 20.7782 67.6018 20.7782C68.705 20.7782 69.57 21.7098 69.57 22.9831C69.57 24.2428 68.705 25.16 67.6018 25.16ZM69.459 20.162H69.4027C69.0396 19.7378 68.3419 19.3545 67.4622 19.3545C65.6188 19.3545 63.9297 20.9423 63.9297 22.9831C63.9297 25.0095 65.6188 26.5845 67.4622 26.5845C68.3419 26.5845 69.0396 26.2012 69.4027 25.7626H69.459V26.2837C69.459 27.6666 68.705 28.4061 67.49 28.4061C66.4985 28.4061 65.884 27.7074 65.6327 27.1183L64.2226 27.6938C64.6274 28.6526 65.7029 29.8298 67.49 29.8298C69.3888 29.8298 70.9948 28.7342 70.9948 26.0644V19.5729H69.459V20.162ZM72.1119 26.3653H73.7317V15.7386H72.1119V26.3653ZM76.1185 22.8599C76.0769 21.4633 77.2218 20.751 78.0451 20.751C78.6882 20.751 79.2324 21.0655 79.4136 21.5177L76.1185 22.8599ZM81.1452 21.6546C80.8384 20.8471 79.9024 19.3545 77.9896 19.3545C76.0908 19.3545 74.5134 20.819 74.5134 22.9695C74.5134 24.9959 76.0769 26.5845 78.1708 26.5845C79.8608 26.5845 80.8384 25.5714 81.2431 24.9823L79.9864 24.1604C79.5678 24.763 78.995 25.16 78.1708 25.16C77.3474 25.16 76.7607 24.7902 76.3837 24.0652L81.3124 22.0651L81.1452 21.6546ZM41.8782 20.4637V21.9971H45.6196C45.5078 22.8599 45.2149 23.4897 44.7686 23.9275C44.2234 24.4621 43.3715 25.0512 41.8782 25.0512C39.5738 25.0512 37.7728 23.2296 37.7728 20.9703C37.7728 18.7102 39.5738 16.8895 41.8782 16.8895C43.121 16.8895 44.0284 17.3689 44.6984 17.9851L45.8016 16.9031C44.8656 16.0268 43.6237 15.3553 41.8782 15.3553C38.7227 15.3553 36.0698 17.8755 36.0698 20.9703C36.0698 24.0652 38.7227 26.5845 41.8782 26.5845C43.5812 26.5845 44.8656 26.0363 45.871 25.0095C46.9049 23.9963 47.2256 22.5726 47.2256 21.4217C47.2256 21.0655 47.1978 20.7374 47.1415 20.4637H41.8782ZM51.48 25.16C50.3629 25.16 49.3992 24.2564 49.3992 22.9695C49.3992 21.6682 50.3629 20.7782 51.48 20.7782C52.5963 20.7782 53.56 21.6682 53.56 22.9695C53.56 24.2564 52.5963 25.16 51.48 25.16ZM51.48 19.3545C49.4408 19.3545 47.7794 20.8743 47.7794 22.9695C47.7794 25.0512 49.4408 26.5845 51.48 26.5845C53.5184 26.5845 55.1798 25.0512 55.1798 22.9695C55.1798 20.8743 53.5184 19.3545 51.48 19.3545ZM59.5513 25.16C58.4342 25.16 57.4704 24.2564 57.4704 22.9695C57.4704 21.6682 58.4342 20.7782 59.5513 20.7782C60.6684 20.7782 61.6313 21.6682 61.6313 22.9695C61.6313 24.2564 60.6684 25.16 59.5513 25.16ZM59.5513 19.3545C57.5129 19.3545 55.8515 20.8743 55.8515 22.9695C55.8515 25.0512 57.5129 26.5845 59.5513 26.5845C61.5897 26.5845 63.2511 25.0512 63.2511 22.9695C63.2511 20.8743 61.5897 19.3545 59.5513 19.3545Z" fill="white"/>
<path d="M9.54249 7.27268C9.29116 7.53448 9.14209 7.94077 9.14209 8.46692V27.2654C9.14209 27.7924 9.29116 28.1979 9.54249 28.4597L9.60662 28.5209L20.3446 17.9903V17.8662V17.7412L9.60662 7.21063L9.54249 7.27268Z" fill="url(#paint0_linear_393_71413)"/>
<path d="M20.3447 17.7412V17.8662V17.9903L23.9232 21.5024L24.0047 21.4574L28.2453 19.0944C29.456 18.4187 29.456 17.3137 28.2453 16.6396L24.0047 14.2758L23.9241 14.2307L20.3447 17.7412Z" fill="url(#paint1_linear_393_71413)"/>
<path d="M9.54346 28.4595C9.94299 28.8735 10.6025 28.9253 11.3453 28.5122L24.0055 21.4564L20.3456 17.866L9.54346 28.4595Z" fill="url(#paint2_linear_393_71413)"/>
<path d="M9.54346 7.27259L20.3456 17.8661L24.0055 14.2757L11.3453 7.22074C10.9969 7.02609 10.6667 6.93429 10.3737 6.93429C10.0409 6.93429 9.75579 7.05244 9.54346 7.27259Z" fill="url(#paint3_linear_393_71413)"/>
<g opacity="0.199997">
<g opacity="0.199997">
<path opacity="0.199997" d="M23.9245 21.3774L11.3449 28.3873C10.6411 28.78 10.0119 28.7536 9.60808 28.3966L9.54395 28.4604L9.60808 28.5216V28.5207C10.0119 28.8777 10.6411 28.9041 11.3449 28.5114L24.0051 21.4564L23.9245 21.3774Z" fill="black"/>
</g>
</g>
<g opacity="0.119995">
<g opacity="0.119995">
<path opacity="0.119995" d="M9.54238 28.3357C9.29018 28.0739 9.14111 27.6676 9.14111 27.1415V27.2656C9.14111 27.7917 9.29018 28.198 9.54238 28.4598L9.60738 28.3969L9.54238 28.3357Z" fill="black"/>
</g>
</g>
<g opacity="0.119995">
<g opacity="0.119995">
<path opacity="0.119995" d="M28.245 18.9691L23.9238 21.3771L24.0044 21.4562L28.245 19.0932C28.8508 18.7557 29.1533 18.3112 29.1533 17.8666C29.1022 18.2687 28.7945 18.6631 28.245 18.9691Z" fill="black"/>
</g>
</g>
<g opacity="0.25">
<g opacity="0.25">
<path opacity="0.25" d="M11.3433 7.34496L28.2442 16.7629C28.7936 17.0689 29.1022 17.4633 29.1524 17.8662C29.1533 17.4217 28.85 16.9763 28.2442 16.6388L11.3433 7.22086C10.1317 6.54597 9.14111 7.10611 9.14111 8.46696V8.59105C9.14111 7.23106 10.1317 6.67006 11.3433 7.34496Z" fill="white"/>
</g>
</g>
<path d="M36.9935 11.2886H37.9156C38.5162 11.2886 38.992 11.1203 39.343 10.7828C39.694 10.4454 39.8691 9.9728 39.8691 9.36505C39.8691 8.7624 39.694 8.29151 39.343 7.95151C38.992 7.61236 38.5162 7.44236 37.9156 7.44236H36.9935V11.2886ZM36.3262 11.915V6.81506H37.9156C38.7147 6.81506 39.3543 7.05136 39.8336 7.52396C40.3128 7.99656 40.552 8.61026 40.552 9.36505C40.552 10.1207 40.3128 10.7344 39.8336 11.2061C39.3543 11.6796 38.7147 11.915 37.9156 11.915H36.3262Z" fill="white"/>
<path d="M36.9935 11.2886H37.9156C38.5162 11.2886 38.992 11.1203 39.343 10.7828C39.694 10.4454 39.8691 9.9728 39.8691 9.36505C39.8691 8.7624 39.694 8.29151 39.343 7.95151C38.992 7.61236 38.5162 7.44236 37.9156 7.44236H36.9935V11.2886ZM36.3262 11.915V6.81506H37.9156C38.7147 6.81506 39.3543 7.05136 39.8336 7.52396C40.3128 7.99656 40.552 8.61025 40.552 9.36505C40.552 10.1207 40.3128 10.7344 39.8336 11.2061C39.3543 11.6796 38.7147 11.915 37.9156 11.915H36.3262Z" stroke="white" stroke-width="0.266667" stroke-miterlimit="10"/>
<path d="M41.4897 6.81531H42.1579V11.9153H41.4897V6.81531Z" fill="white" stroke="white" stroke-width="0.266667" stroke-miterlimit="10"/>
<path d="M44.8152 12.0289C44.4373 12.0289 44.069 11.9082 43.7084 11.666C43.347 11.4237 43.1104 11.0846 42.9995 10.6468L43.6096 10.4054C43.6824 10.6851 43.8306 10.9214 44.056 11.1135C44.2822 11.3056 44.5344 11.4025 44.8152 11.4025C45.1055 11.4025 45.3542 11.3277 45.5596 11.1781C45.7659 11.0285 45.8682 10.8253 45.8682 10.5686C45.8682 10.2839 45.7659 10.0646 45.5596 9.90989C45.3542 9.75604 45.0284 9.61239 44.5829 9.47894C44.1227 9.33699 43.7743 9.15254 43.5368 8.9273C43.3002 8.7012 43.1806 8.41305 43.1806 8.06115C43.1806 7.69565 43.3288 7.37775 43.6244 7.10745C43.9199 6.83716 44.3047 6.70116 44.7788 6.70116C45.2199 6.70116 45.5778 6.80911 45.8534 7.025C46.1299 7.24175 46.3093 7.4772 46.3908 7.7339L45.7815 7.98295C45.7373 7.8223 45.6298 7.67185 45.4582 7.53415C45.2866 7.3973 45.0648 7.32845 44.7935 7.32845C44.537 7.32845 44.3177 7.39815 44.1366 7.5384C43.9546 7.67865 43.8636 7.8529 43.8636 8.06115C43.8636 8.25155 43.9476 8.4122 44.114 8.54225C44.2822 8.67315 44.5274 8.79045 44.8516 8.895C45.1081 8.97575 45.3222 9.05395 45.4946 9.13044C45.6662 9.20609 45.8413 9.30724 46.0172 9.43304C46.194 9.55884 46.3266 9.71524 46.4168 9.90309C46.506 10.0909 46.5511 10.3077 46.5511 10.555C46.5511 10.8015 46.4991 11.0225 46.3951 11.2172C46.2911 11.4118 46.1524 11.5665 45.9808 11.6804C45.8084 11.7943 45.6246 11.881 45.4253 11.9397C45.2268 11.9992 45.0232 12.0289 44.8152 12.0289Z" fill="white"/>
<path d="M44.8152 12.0289C44.4373 12.0289 44.069 11.9082 43.7084 11.666C43.347 11.4237 43.1104 11.0846 42.9995 10.6468L43.6096 10.4054C43.6824 10.6851 43.8306 10.9214 44.056 11.1135C44.2822 11.3056 44.5344 11.4025 44.8152 11.4025C45.1055 11.4025 45.3542 11.3277 45.5596 11.1781C45.7659 11.0285 45.8682 10.8253 45.8682 10.5686C45.8682 10.2839 45.7659 10.0646 45.5596 9.90989C45.3542 9.75604 45.0284 9.61239 44.5829 9.47894C44.1227 9.33699 43.7743 9.15254 43.5368 8.9273C43.3002 8.7012 43.1806 8.41305 43.1806 8.06115C43.1806 7.69565 43.3288 7.37775 43.6244 7.10745C43.9199 6.83716 44.3047 6.70116 44.7788 6.70116C45.2199 6.70116 45.5778 6.80911 45.8534 7.02501C46.1299 7.24175 46.3093 7.4772 46.3908 7.7339L45.7815 7.98295C45.7373 7.8223 45.6298 7.67185 45.4582 7.53415C45.2866 7.3973 45.0648 7.32845 44.7935 7.32845C44.537 7.32845 44.3177 7.39815 44.1366 7.5384C43.9546 7.67865 43.8636 7.8529 43.8636 8.06115C43.8636 8.25155 43.9476 8.4122 44.114 8.54225C44.2822 8.67315 44.5274 8.79045 44.8516 8.895C45.1081 8.97575 45.3222 9.05395 45.4946 9.13044C45.6662 9.20609 45.8413 9.30724 46.0172 9.43304C46.194 9.55884 46.3266 9.71524 46.4168 9.90309C46.506 10.0909 46.5511 10.3077 46.5511 10.555C46.5511 10.8015 46.4991 11.0225 46.3951 11.2172C46.2911 11.4118 46.1524 11.5665 45.9808 11.6804C45.8084 11.7943 45.6246 11.881 45.4253 11.9397C45.2268 11.9992 45.0232 12.0289 44.8152 12.0289Z" stroke="white" stroke-width="0.266667" stroke-miterlimit="10"/>
<path d="M48.1781 9.2225H49.2969C49.5777 9.2225 49.8031 9.1307 49.9721 8.9454C50.1419 8.7601 50.226 8.5561 50.226 8.33255C50.226 8.109 50.1419 7.905 49.9721 7.71971C49.8031 7.53441 49.5777 7.44176 49.2969 7.44176H48.1781V9.2225ZM48.1781 11.9153H47.5107V6.81531H49.2822C49.7225 6.81531 50.1047 6.95896 50.4262 7.24626C50.7486 7.53356 50.9089 7.89565 50.9089 8.33255C50.9089 8.76945 50.7486 9.13155 50.4262 9.418C50.1047 9.70614 49.7225 9.84979 49.2822 9.84979H48.1781V11.9153Z" fill="white"/>
<path d="M48.1781 9.2225H49.2969C49.5777 9.2225 49.8031 9.1307 49.9721 8.9454C50.1419 8.7601 50.226 8.5561 50.226 8.33255C50.226 8.109 50.1419 7.905 49.9721 7.7197C49.8031 7.53441 49.5777 7.44176 49.2969 7.44176H48.1781V9.2225ZM48.1781 11.9153H47.5107V6.81531H49.2822C49.7225 6.81531 50.1047 6.95896 50.4262 7.24626C50.7486 7.53356 50.9089 7.89565 50.9089 8.33255C50.9089 8.76945 50.7486 9.13155 50.4262 9.418C50.1047 9.70614 49.7225 9.84979 49.2822 9.84979H48.1781V11.9153Z" stroke="white" stroke-width="0.266667" stroke-miterlimit="10"/>
<path d="M52.6841 10.8291C53.0689 11.2116 53.5395 11.402 54.0967 11.402C54.6531 11.402 55.1246 11.2116 55.5094 10.8291C55.8942 10.4466 56.0875 9.95871 56.0875 9.36541C56.0875 8.77211 55.8942 8.28336 55.5094 7.90172C55.1246 7.51922 54.6531 7.32797 54.0967 7.32797C53.5395 7.32797 53.0689 7.51922 52.6841 7.90172C52.3001 8.28336 52.1069 8.77211 52.1069 9.36541C52.1069 9.95871 52.3001 10.4466 52.6841 10.8291ZM56.0034 11.2558C55.4921 11.7717 54.8568 12.0293 54.0967 12.0293C53.3367 12.0293 52.7014 11.7717 52.1909 11.2558C51.6796 10.7407 51.4248 10.1109 51.4248 9.36541C51.4248 8.61996 51.6796 7.98927 52.1909 7.47417C52.7014 6.95907 53.3367 6.70067 54.0967 6.70067C54.8525 6.70067 55.486 6.95992 55.9999 7.47757C56.513 7.99522 56.7695 8.62421 56.7695 9.36541C56.7695 10.1109 56.5139 10.7407 56.0034 11.2558Z" fill="white"/>
<path d="M52.6841 10.8291C53.0689 11.2116 53.5395 11.402 54.0967 11.402C54.6531 11.402 55.1246 11.2116 55.5094 10.8291C55.8942 10.4466 56.0875 9.95871 56.0875 9.36541C56.0875 8.77211 55.8942 8.28336 55.5094 7.90172C55.1246 7.51922 54.6531 7.32797 54.0967 7.32797C53.5395 7.32797 53.0689 7.51922 52.6841 7.90172C52.3001 8.28336 52.1069 8.77211 52.1069 9.36541C52.1069 9.95871 52.3001 10.4466 52.6841 10.8291ZM56.0034 11.2558C55.4921 11.7717 54.8568 12.0293 54.0967 12.0293C53.3367 12.0293 52.7014 11.7717 52.1909 11.2558C51.6796 10.7407 51.4248 10.1109 51.4248 9.36541C51.4248 8.61996 51.6796 7.98927 52.1909 7.47417C52.7014 6.95907 53.3367 6.70067 54.0967 6.70067C54.8525 6.70067 55.486 6.95992 55.9999 7.47757C56.513 7.99522 56.7695 8.62421 56.7695 9.36541C56.7695 10.1109 56.5139 10.7407 56.0034 11.2558Z" stroke="white" stroke-width="0.266667" stroke-miterlimit="10"/>
<path d="M57.7065 11.9153V6.81531H58.5203L61.0467 10.7822H61.0761L61.0467 9.79964V6.81531H61.7157V11.9153H61.0181L58.3739 7.7554H58.3453L58.3739 8.73885V11.9153H57.7065Z" fill="white"/>
<path d="M57.7065 11.9153V6.81531H58.5203L61.0467 10.7822H61.0761L61.0467 9.79964V6.81531H61.7157V11.9153H61.0181L58.3739 7.7554H58.3453L58.3739 8.73885V11.9153H57.7065Z" stroke="white" stroke-width="0.266667" stroke-miterlimit="10"/>
<path d="M63.5311 6.41642H62.9496L63.3283 5.50437H64.0546L63.5311 6.41642ZM62.9062 6.81506H63.5745V11.915H62.9062V6.81506Z" fill="white"/>
<path d="M63.5311 6.41642H62.9496L63.3283 5.50437H64.0546L63.5311 6.41642ZM62.9062 6.81507H63.5745V11.915H62.9062V6.81507Z" stroke="white" stroke-width="0.266667" stroke-miterlimit="10"/>
<path d="M66.0512 11.9153L64.2217 6.81531H64.9618L66.3857 10.9539H66.4143L67.8963 6.81531H68.6365L66.7489 11.9153H66.0512Z" fill="white"/>
<path d="M66.0512 11.9153L64.2217 6.81531H64.9618L66.3857 10.9539H66.4143L67.8963 6.81531H68.6365L66.7489 11.9153H66.0512Z" stroke="white" stroke-width="0.266667" stroke-miterlimit="10"/>
<path d="M72.4285 7.442H70.0608V9.05869H72.1962V9.67154H70.0608V11.2882H72.4285V11.9155H69.3926V6.81555H72.4285V7.442Z" fill="white"/>
<path d="M72.4285 7.442H70.0608V9.05869H72.1962V9.67154H70.0608V11.2882H72.4285V11.9155H69.3926V6.81555H72.4285V7.442Z" stroke="white" stroke-width="0.266667" stroke-miterlimit="10"/>
<path d="M73.4751 11.9153V6.81531H74.1433V11.2888H76.394V11.9153H73.4751Z" fill="white"/>
<path d="M73.4751 11.9153V6.81531H74.1433V11.2888H76.394V11.9153H73.4751Z" stroke="white" stroke-width="0.266667" stroke-miterlimit="10"/>
<path d="M78.98 11.9153V6.81531H79.7938L82.321 10.7822H82.3496L82.321 9.79964V6.81531H82.9892V11.9153H82.2915L79.6482 7.7554H79.6187L79.6482 8.73885V11.9153H78.98Z" fill="white"/>
<path d="M78.98 11.9153V6.81531H79.7938L82.321 10.7822H82.3496L82.321 9.79964V6.81531H82.9892V11.9153H82.2915L79.6482 7.7554H79.6187L79.6482 8.73885V11.9153H78.98Z" stroke="white" stroke-width="0.266667" stroke-miterlimit="10"/>
<path d="M85.1113 10.8291C85.4961 11.2116 85.9667 11.402 86.524 11.402C87.0804 11.402 87.5519 11.2116 87.9367 10.8291C88.3215 10.4466 88.5147 9.95871 88.5147 9.36541C88.5147 8.77211 88.3215 8.28336 87.9367 7.90172C87.5519 7.51922 87.0804 7.32797 86.524 7.32797C85.9667 7.32797 85.4961 7.51922 85.1113 7.90172C84.7274 8.28336 84.5341 8.77211 84.5341 9.36541C84.5341 9.95871 84.7274 10.4466 85.1113 10.8291ZM88.4307 11.2558C87.9193 11.7717 87.2841 12.0293 86.524 12.0293C85.7639 12.0293 85.1287 11.7717 84.6182 11.2558C84.1069 10.7407 83.8521 10.1109 83.8521 9.36541C83.8521 8.61996 84.1069 7.98927 84.6182 7.47417C85.1287 6.95907 85.7639 6.70067 86.524 6.70067C87.2797 6.70067 87.9133 6.95992 88.4272 7.47757C88.9403 7.99522 89.1968 8.62421 89.1968 9.36541C89.1968 10.1109 88.9411 10.7407 88.4307 11.2558Z" fill="white"/>
<path d="M85.1113 10.8291C85.4961 11.2116 85.9667 11.402 86.524 11.402C87.0804 11.402 87.5519 11.2116 87.9367 10.8291C88.3215 10.4466 88.5147 9.95871 88.5147 9.36541C88.5147 8.77211 88.3215 8.28336 87.9367 7.90172C87.5519 7.51922 87.0804 7.32797 86.524 7.32797C85.9667 7.32797 85.4961 7.51922 85.1113 7.90172C84.7274 8.28336 84.5341 8.77211 84.5341 9.36541C84.5341 9.95871 84.7274 10.4466 85.1113 10.8291ZM88.4307 11.2558C87.9193 11.7717 87.2841 12.0293 86.524 12.0293C85.7639 12.0293 85.1287 11.7717 84.6182 11.2558C84.1069 10.7407 83.8521 10.1109 83.8521 9.36541C83.8521 8.61996 84.1069 7.98927 84.6182 7.47417C85.1287 6.95907 85.7639 6.70067 86.524 6.70067C87.2797 6.70067 87.9133 6.95992 88.4272 7.47757C88.9403 7.99522 89.1968 8.62421 89.1968 9.36541C89.1968 10.1109 88.9411 10.7407 88.4307 11.2558Z" stroke="white" stroke-width="0.266667" stroke-miterlimit="10"/>
<defs>
<linearGradient id="paint0_linear_393_71413" x1="19.3919" y1="8.26863" x2="5.12965" y2="22.8106" gradientUnits="userSpaceOnUse">
<stop stop-color="#00A0FF"/>
<stop offset="0.00657445" stop-color="#00A1FF"/>
<stop offset="0.2601" stop-color="#00BEFF"/>
<stop offset="0.5122" stop-color="#00D2FF"/>
<stop offset="0.7604" stop-color="#00DFFF"/>
<stop offset="1" stop-color="#00E3FF"/>
</linearGradient>
<linearGradient id="paint1_linear_393_71413" x1="29.8221" y1="17.8665" x2="8.85141" y2="17.8665" gradientUnits="userSpaceOnUse">
<stop stop-color="#FFE000"/>
<stop offset="0.4087" stop-color="#FFBD00"/>
<stop offset="0.7754" stop-color="#FFA500"/>
<stop offset="1" stop-color="#FF9C00"/>
</linearGradient>
<linearGradient id="paint2_linear_393_71413" x1="22.0165" y1="19.8168" x2="2.67569" y2="39.537" gradientUnits="userSpaceOnUse">
<stop stop-color="#FF3A44"/>
<stop offset="1" stop-color="#C31162"/>
</linearGradient>
<linearGradient id="paint3_linear_393_71413" x1="6.82414" y1="1.01508" x2="15.4606" y2="9.82094" gradientUnits="userSpaceOnUse">
<stop stop-color="#32A071"/>
<stop offset="0.0685" stop-color="#2DA771"/>
<stop offset="0.4762" stop-color="#15CF74"/>
<stop offset="0.8009" stop-color="#06E775"/>
<stop offset="1" stop-color="#00F076"/>
</linearGradient>
</defs>
</svg>
