<svg width="1024" height="980" viewBox="0 0 1024 980" fill="none" xmlns="http://www.w3.org/2000/svg">
<g clip-path="url(#clip0_1398_5657)">
<rect width="1024" height="980" fill="url(#paint0_linear_1398_5657)"/>
<g clip-path="url(#clip1_1398_5657)">
<g filter="url(#filter0_d_1398_5657)">
<g clip-path="url(#clip2_1398_5657)">
<g clip-path="url(#clip3_1398_5657)">
<rect x="702.242" y="-33.3346" width="210.372" height="330.998" rx="11.5801" transform="rotate(-7.30311 702.242 -33.3346)" fill="#9E1A2E"/>
<g opacity="0.3" filter="url(#filter1_bf_1398_5657)">
<path d="M673.034 -49.3037C671.897 -54.5106 675.185 -59.7058 680.377 -60.9074L894.711 -110.509C899.903 -111.71 905.034 -108.463 906.171 -103.256L926.959 -8.05797L693.821 45.8948L673.034 -49.3037Z" fill="url(#paint1_linear_1398_5657)" fill-opacity="0.5" style="mix-blend-mode:multiply"/>
</g>
<path d="M803.519 27.9569L836.14 44.4713C836.092 43.1055 836.141 41.9094 835.992 40.7369C834.354 27.7635 832.692 14.7922 831.005 1.82298C830.914 1.11472 831.041 0.704632 831.591 0.268323C835.268 -2.65386 838.911 -5.62301 842.564 -8.58518C842.764 -8.74652 842.97 -8.89868 843.251 -9.11507C843.312 -8.82166 843.372 -8.60268 843.401 -8.37962C845.515 8.11944 847.632 24.6182 849.752 41.1166C850.071 43.6077 850.012 46.0845 849.371 48.4985C847.935 53.9121 844.491 56.9682 839.386 57.9452C835.561 58.677 831.769 58.1154 828.145 56.6999C824.778 55.3853 821.507 53.7641 818.238 52.169C814.265 50.2321 810.333 48.1891 806.399 46.1613C806.108 46.0115 805.759 45.6375 805.718 45.33C804.963 39.7188 804.251 34.0989 803.531 28.4833C803.518 28.3559 803.525 28.2325 803.519 27.9569Z" fill="white"/>
<path d="M830.521 34.6568L797.884 18.1163C797.934 19.4757 797.903 20.6698 798.033 21.8467C798.407 25.1624 798.84 28.4721 799.265 31.7863C800.503 41.4493 801.751 51.111 803.007 60.7716C803.098 61.4768 802.978 61.9043 802.427 62.3358C798.756 65.2595 795.117 68.2287 791.467 71.1894C791.273 71.3467 791.064 71.4828 790.735 71.7186L790.61 70.7415C788.521 54.5176 786.432 38.2932 784.342 22.0683C783.86 18.3014 784.029 14.638 785.709 11.2395C787.569 7.47688 790.614 5.42634 794.466 4.6794C798.83 3.83378 803.085 4.63094 807.159 6.36336C811.015 8.00295 814.757 9.96491 818.531 11.8286C821.608 13.3478 824.664 14.921 827.713 16.5034C827.859 16.5874 827.986 16.703 828.088 16.8425C828.19 16.982 828.264 17.1424 828.304 17.3132C829.056 22.9262 829.772 28.547 830.494 34.1587C830.506 34.2532 830.504 34.3577 830.521 34.6568Z" fill="white"/>
<path fill-rule="evenodd" clip-rule="evenodd" d="M823.784 193.069C822.031 193.293 820.632 194.147 819.569 195.624C818.501 197.11 818.092 198.777 818.332 200.655C818.573 202.533 819.39 204.044 820.797 205.205C822.205 206.373 823.773 206.84 825.52 206.616C827.274 206.391 828.673 205.544 829.741 204.059C830.81 202.574 831.219 200.906 830.979 199.035C830.738 197.156 829.922 195.646 828.513 194.478C827.106 193.317 825.537 192.844 823.784 193.069ZM866.188 187.634C864.435 187.859 863.036 188.712 861.973 190.19C860.905 191.675 860.495 193.343 860.736 195.221C860.977 197.099 861.793 198.603 863.201 199.771C864.609 200.939 866.177 201.405 867.924 201.181C869.677 200.957 871.077 200.11 872.145 198.625C873.213 197.139 873.623 195.472 873.383 193.6C873.142 191.722 872.326 190.212 870.917 189.044C869.509 187.876 867.941 187.409 866.188 187.634ZM802.798 211.256L800.653 211.531L799.404 201.786C799.126 199.619 799.604 197.662 800.837 195.949C802.069 194.236 803.718 193.244 805.735 192.986C807.751 192.727 809.591 193.272 811.209 194.62C812.834 195.967 813.791 197.747 814.068 199.907L815.317 209.652L813.189 209.925L811.94 200.18C811.743 198.636 811.067 197.401 809.904 196.443C808.747 195.49 807.47 195.099 806.029 195.284C804.588 195.469 803.444 196.163 802.56 197.384C801.687 198.597 801.353 199.975 801.549 201.511L802.798 211.256ZM825.815 208.914C823.479 209.213 821.359 208.571 819.484 207.015C817.608 205.46 816.5 203.426 816.18 200.931C815.861 198.436 816.419 196.182 817.842 194.204C819.265 192.226 821.154 191.069 823.49 190.77C825.819 190.472 827.94 191.121 829.808 192.67C831.684 194.225 832.798 196.258 833.119 198.76C833.439 201.262 832.874 203.511 831.45 205.482C830.034 207.459 828.144 208.615 825.815 208.914ZM868.219 203.48C865.883 203.779 863.763 203.136 861.888 201.581C860.012 200.026 858.904 197.992 858.584 195.497C858.264 193.001 858.823 190.747 860.246 188.769C861.668 186.792 863.558 185.635 865.893 185.336C868.223 185.037 870.343 185.68 872.212 187.236C874.088 188.791 875.202 190.824 875.522 193.326C875.843 195.828 875.277 198.07 873.854 200.047C872.438 202.025 870.548 203.181 868.219 203.48ZM837.745 191.293C837.618 191.322 837.491 191.352 837.363 191.382C837.027 191.478 836.695 191.614 836.4 191.792C835.643 192.25 835.301 192.887 835.421 193.826C835.494 194.398 835.871 194.763 836.335 195.024C837.067 195.438 838.253 195.746 839.047 195.958L839.542 196.082L840.04 196.225C840.371 196.322 840.708 196.426 841.034 196.538C841.693 196.767 842.358 197.049 842.955 197.426C844.317 198.286 845.152 199.548 845.367 201.222C845.541 202.581 845.232 203.816 844.453 204.883C843.482 206.209 842.078 206.823 840.533 207.021C839.007 207.217 837.487 206.884 836.063 206.272L835.542 206.052L836.5 203.994L836.928 204.173C837.98 204.605 839.117 204.873 840.239 204.729C841.171 204.61 842.095 204.285 842.711 203.498C843.166 202.913 843.325 202.258 843.227 201.496C843.099 200.498 842.574 199.805 841.757 199.315C840.914 198.809 839.501 198.436 838.559 198.183L837.714 197.958C837.429 197.874 837.151 197.796 836.866 197.706C836.312 197.523 835.766 197.293 835.254 196.998C834.176 196.362 833.438 195.416 833.269 194.102C833.07 192.546 833.525 191.233 834.659 190.26C835.529 189.514 836.55 189.116 837.659 188.974C838.836 188.823 840.044 188.815 841.211 189.073C841.281 189.084 841.352 189.102 841.429 189.119L842.078 189.269L841.096 191.384L840.725 191.311C839.817 191.127 838.873 191.148 837.959 191.265L837.745 191.293ZM850.097 189.71C849.97 189.739 849.843 189.769 849.716 189.798C849.38 189.895 849.048 190.031 848.747 190.21C847.989 190.667 847.647 191.305 847.768 192.244C847.841 192.815 848.218 193.181 848.681 193.442C849.414 193.855 850.6 194.164 851.393 194.376L851.889 194.499L852.387 194.642C852.723 194.739 853.055 194.844 853.387 194.955C854.045 195.184 854.711 195.466 855.308 195.843C856.67 196.703 857.505 197.965 857.719 199.639C857.894 200.998 857.584 202.233 856.805 203.3C855.835 204.626 854.431 205.24 852.886 205.438C851.359 205.634 849.84 205.301 848.409 204.69L847.889 204.47L848.846 202.411L849.274 202.59C850.327 203.023 851.47 203.29 852.592 203.146C853.524 203.027 854.448 202.701 855.058 201.916C855.512 201.33 855.671 200.676 855.574 199.914C855.446 198.916 854.921 198.222 854.104 197.733C853.254 197.228 851.842 196.855 850.906 196.601L850.061 196.376C849.776 196.292 849.498 196.214 849.212 196.124C848.659 195.941 848.112 195.711 847.601 195.416C846.523 194.78 845.784 193.833 845.616 192.52C845.417 190.964 845.871 189.65 847.005 188.678C847.876 187.932 848.896 187.534 850.006 187.392C851.183 187.241 852.391 187.233 853.558 187.491C853.628 187.502 853.699 187.519 853.776 187.536L854.424 187.687L853.437 189.802L853.066 189.73C852.158 189.546 851.213 189.567 850.3 189.684L850.097 189.71Z" fill="white"/>
<path fill-rule="evenodd" clip-rule="evenodd" d="M843.3 216.258C843.171 215.253 842.738 214.448 841.985 213.823C841.232 213.199 840.389 212.947 839.451 213.067C838.514 213.187 837.768 213.643 837.197 214.437C836.626 215.231 836.404 216.127 836.532 217.125C836.661 218.13 837.094 218.935 837.853 219.559C838.606 220.183 839.449 220.436 840.381 220.316C841.319 220.196 842.064 219.74 842.641 218.945C843.207 218.159 843.429 217.263 843.3 216.258ZM829.22 214.378C828.282 214.498 827.537 214.954 826.965 215.748C826.394 216.542 826.173 217.438 826.3 218.437C826.429 219.441 826.869 220.246 827.622 220.87C828.375 221.495 829.217 221.747 830.149 221.628C831.087 221.508 831.838 221.051 832.41 220.257C832.981 219.463 833.202 218.567 833.075 217.568C832.946 216.564 832.506 215.759 831.753 215.135C830.994 214.511 830.158 214.258 829.22 214.378ZM853.935 218.145C853.678 218.566 853.356 218.927 852.972 219.237C852.39 219.705 851.728 219.983 850.999 220.077C849.852 220.224 848.803 219.911 847.883 219.148C846.962 218.385 846.416 217.38 846.259 216.152L845.688 211.7C845.672 211.575 845.758 211.464 845.868 211.45L846.469 211.373C846.585 211.358 846.696 211.444 846.712 211.569L847.282 216.021C847.402 216.954 847.809 217.702 848.507 218.281C849.205 218.865 849.982 219.099 850.859 218.987C851.73 218.875 852.417 218.454 852.946 217.718C853.475 216.983 853.686 216.155 853.567 215.222L852.996 210.77C852.98 210.645 853.06 210.535 853.176 210.52L853.777 210.443C853.893 210.428 853.998 210.515 854.014 210.64L854.929 217.778C855.092 219.052 854.77 220.188 854.051 221.188C853.311 222.217 852.329 222.823 851.115 222.979C849.895 223.135 848.799 222.802 847.823 221.986C847.621 221.825 847.43 221.649 847.262 221.45C847.182 221.36 847.182 221.22 847.265 221.136L847.686 220.675C847.73 220.629 847.782 220.603 847.839 220.609C847.901 220.607 847.949 220.635 847.992 220.683C848.131 220.845 848.282 220.999 848.449 221.138C849.202 221.762 850.043 222.002 850.975 221.882C851.906 221.763 852.666 221.318 853.237 220.524C853.756 219.81 853.992 219.026 853.935 218.145ZM843.686 219.272C843.41 219.741 843.064 220.153 842.641 220.501C842.015 221.015 841.306 221.313 840.521 221.413C839.307 221.569 838.206 221.243 837.23 220.433C836.254 219.624 835.676 218.563 835.508 217.257C835.342 215.956 835.634 214.784 836.374 213.755C837.115 212.726 838.097 212.126 839.311 211.97C840.525 211.815 841.627 212.147 842.603 212.957C843.579 213.766 844.156 214.82 844.324 216.127L844.859 220.303C844.875 220.428 844.797 220.545 844.68 220.56L844.079 220.637C843.963 220.652 843.858 220.565 843.841 220.434L843.692 219.271L843.686 219.272ZM826.687 221.451L827.233 225.712C827.249 225.837 827.17 225.948 827.053 225.962L826.452 226.039C826.336 226.054 826.231 225.968 826.215 225.843L825.283 218.567C825.116 217.267 825.402 216.095 826.143 215.066C826.883 214.037 827.873 213.443 829.086 213.287C830.3 213.132 831.401 213.458 832.377 214.267C833.353 215.076 833.932 216.137 834.098 217.437C834.265 218.737 833.973 219.91 833.232 220.939C832.492 221.968 831.509 222.568 830.296 222.724C829.511 222.824 828.748 222.702 828.013 222.369C827.511 222.146 827.066 221.836 826.687 221.451Z" fill="white"/>
</g>
<rect x="702.782" y="-32.9173" width="209.407" height="330.033" rx="11.0976" transform="rotate(-7.30311 702.782 -32.9173)" stroke="url(#paint2_radial_1398_5657)" stroke-width="0.96501"/>
<rect x="702.782" y="-32.9173" width="209.407" height="330.033" rx="11.0976" transform="rotate(-7.30311 702.782 -32.9173)" stroke="url(#paint3_radial_1398_5657)" stroke-width="0.96501"/>
<rect x="702.782" y="-32.9173" width="209.407" height="330.033" rx="11.0976" transform="rotate(-7.30311 702.782 -32.9173)" stroke="url(#paint4_radial_1398_5657)" stroke-width="0.96501"/>
</g>
</g>
<g filter="url(#filter2_d_1398_5657)">
<g clip-path="url(#clip4_1398_5657)">
<rect x="898.637" y="33.91" width="210.372" height="330.998" rx="9.6501" transform="rotate(22.6969 898.637 33.91)" fill="#9E1A2E"/>
<path d="M918.415 375.205L911.327 372.241L912.054 370.502L919.142 373.466C919.814 373.747 920.327 374.131 920.679 374.616C921.032 375.101 921.23 375.644 921.273 376.245C921.316 376.846 921.205 377.462 920.942 378.092C920.672 378.737 920.324 379.264 919.896 379.674C919.471 380.079 918.974 380.329 918.406 380.423C917.838 380.518 917.208 380.421 916.517 380.132L917.25 378.379C917.649 378.546 917.998 378.618 918.296 378.596C918.591 378.567 918.843 378.46 919.051 378.274C919.257 378.083 919.426 377.829 919.557 377.514C919.684 377.212 919.728 376.917 919.69 376.629C919.65 376.335 919.526 376.065 919.318 375.82C919.105 375.573 918.804 375.368 918.415 375.205ZM920.819 362.988L921.376 363.221C922.141 363.541 922.786 363.927 923.31 364.381C923.834 364.834 924.231 365.336 924.503 365.885C924.776 366.43 924.919 367.007 924.931 367.617C924.938 368.225 924.811 368.841 924.549 369.467C924.289 370.089 923.94 370.61 923.502 371.032C923.062 371.447 922.55 371.753 921.966 371.95C921.382 372.147 920.743 372.223 920.049 372.178C919.356 372.128 918.627 371.943 917.862 371.623L917.305 371.39C916.54 371.07 915.899 370.682 915.382 370.226C914.859 369.768 914.463 369.264 914.191 368.715C913.917 368.159 913.775 367.579 913.766 366.976C913.754 366.366 913.878 365.751 914.138 365.129C914.4 364.503 914.752 363.981 915.194 363.561C915.632 363.139 916.144 362.833 916.731 362.643C917.313 362.45 917.949 362.381 918.64 362.436C919.328 362.484 920.054 362.668 920.819 362.988ZM920.646 364.966L920.075 364.728C919.51 364.491 918.988 364.338 918.51 364.269C918.03 364.194 917.599 364.201 917.217 364.293C916.833 364.377 916.503 364.541 916.227 364.785C915.946 365.027 915.725 365.341 915.564 365.726C915.403 366.111 915.336 366.486 915.363 366.851C915.385 367.215 915.5 367.565 915.708 367.902C915.913 368.233 916.21 368.545 916.599 368.839C916.984 369.131 917.459 369.395 918.025 369.631L918.595 369.87C919.161 370.107 919.685 370.26 920.167 370.331C920.649 370.402 921.086 370.394 921.477 370.307C921.864 370.213 922.198 370.048 922.477 369.81C922.751 369.571 922.969 369.259 923.13 368.874C923.293 368.484 923.363 368.108 923.341 367.744C923.314 367.379 923.196 367.03 922.986 366.697C922.772 366.363 922.47 366.051 922.078 365.762C921.689 365.468 921.211 365.203 920.646 364.966ZM926.273 357.627C926.064 357.54 925.865 357.495 925.676 357.492C925.488 357.484 925.294 357.531 925.094 357.633C924.894 357.734 924.671 357.902 924.425 358.138C924.177 358.366 923.894 358.673 923.575 359.057C923.225 359.477 922.874 359.853 922.523 360.186C922.168 360.512 921.808 360.775 921.441 360.975C921.069 361.174 920.69 361.291 920.305 361.326C919.915 361.359 919.512 361.288 919.095 361.114C918.682 360.941 918.342 360.698 918.075 360.385C917.811 360.067 917.622 359.697 917.51 359.274C917.396 358.845 917.363 358.382 917.413 357.885C917.458 357.387 917.592 356.871 917.815 356.337C918.129 355.586 918.539 354.997 919.044 354.571C919.551 354.141 920.1 353.877 920.691 353.781C921.283 353.68 921.862 353.748 922.428 353.984L921.703 355.716C921.37 355.577 921.045 355.525 920.73 355.562C920.412 355.593 920.119 355.721 919.85 355.946C919.584 356.167 919.359 356.495 919.177 356.931C919.004 357.344 918.923 357.713 918.934 358.039C918.945 358.365 919.029 358.64 919.186 358.864C919.343 359.087 919.556 359.255 919.825 359.368C920.015 359.447 920.207 359.476 920.402 359.454C920.592 359.43 920.792 359.355 921.002 359.231C921.207 359.104 921.425 358.928 921.655 358.703C921.886 358.478 922.132 358.203 922.394 357.876C922.795 357.385 923.185 356.973 923.564 356.641C923.938 356.307 924.31 356.055 924.682 355.883C925.053 355.712 925.43 355.624 925.813 355.621C926.191 355.616 926.584 355.698 926.992 355.869C927.419 356.047 927.768 356.294 928.039 356.609C928.306 356.922 928.493 357.289 928.6 357.71C928.705 358.124 928.729 358.581 928.673 359.081C928.614 359.573 928.471 360.091 928.244 360.634C928.04 361.12 927.774 361.573 927.447 361.992C927.121 362.406 926.746 362.75 926.32 363.024C925.89 363.297 925.429 363.463 924.935 363.524C924.436 363.582 923.918 363.499 923.38 363.274L924.11 361.528C924.44 361.666 924.743 361.727 925.022 361.713C925.302 361.694 925.559 361.614 925.793 361.472C926.022 361.328 926.228 361.136 926.41 360.896C926.594 360.652 926.751 360.374 926.88 360.063C927.051 359.655 927.136 359.29 927.134 358.968C927.135 358.642 927.06 358.365 926.909 358.139C926.759 357.912 926.547 357.742 926.273 357.627ZM931.41 348.784L932.794 349.363L930.545 354.739L929.161 354.16L931.41 348.784ZM920.625 350.01L930.752 354.246L930.022 355.991L919.895 351.756L920.625 350.01ZM926.602 347.599L927.966 348.169L926.011 352.843L924.647 352.272L926.602 347.599ZM922.653 345.162L924.044 345.744L921.81 351.086L920.419 350.504L922.653 345.162ZM920.265 348.977L918.738 346.745L919.53 344.853L920.832 347.62L920.265 348.977ZM933.602 338.169L934.33 336.43C934.97 336.763 935.483 337.196 935.871 337.728C936.253 338.259 936.474 338.871 936.532 339.566C936.59 340.26 936.449 341.016 936.107 341.832C935.846 342.458 935.499 342.975 935.067 343.382C934.63 343.788 934.131 344.083 933.569 344.268C933.002 344.45 932.385 344.513 931.716 344.457C931.05 344.396 930.352 344.214 929.625 343.909L928.783 343.557C928.055 343.253 927.436 342.882 926.927 342.446C926.419 342.005 926.033 341.516 925.767 340.98C925.496 340.442 925.355 339.873 925.344 339.275C925.335 338.672 925.463 338.052 925.729 337.417C926.066 336.61 926.499 335.991 927.029 335.559C927.558 335.126 928.149 334.867 928.801 334.78C929.455 334.688 930.135 334.749 930.841 334.963L930.114 336.702C929.659 336.566 929.243 336.512 928.866 336.539C928.491 336.562 928.16 336.691 927.871 336.924C927.578 337.156 927.33 337.515 927.127 338.002C926.96 338.401 926.889 338.779 926.913 339.138C926.937 339.497 927.051 339.836 927.255 340.156C927.459 340.476 927.751 340.775 928.13 341.053C928.507 341.325 928.964 341.574 929.502 341.798L930.358 342.156C930.868 342.37 931.35 342.52 931.804 342.606C932.255 342.686 932.668 342.695 933.043 342.634C933.419 342.568 933.749 342.423 934.034 342.198C934.318 341.974 934.546 341.658 934.716 341.25C934.924 340.754 935.013 340.32 934.983 339.948C934.955 339.571 934.824 339.241 934.588 338.957C934.35 338.667 934.022 338.404 933.602 338.169ZM930.923 329.178L938.435 335.875L937.67 337.704L929.138 329.657L929.626 328.489L930.923 329.178ZM940.76 330.318L930.714 329.679L929.309 329.247L929.801 328.071L941.528 328.481L940.76 330.318ZM936.943 328.893L938.327 329.472L936.023 334.98L934.639 334.401L936.943 328.893ZM931.637 323.682L933.135 320.1C933.457 319.33 933.847 318.723 934.306 318.277C934.765 317.831 935.281 317.56 935.856 317.463C936.428 317.359 937.045 317.445 937.709 317.723C938.214 317.934 938.62 318.213 938.928 318.559C939.235 318.906 939.45 319.303 939.573 319.753C939.691 320.2 939.724 320.687 939.672 321.216L939.708 321.852L938.361 325.072L936.971 324.507L937.98 322.094C938.155 321.677 938.226 321.298 938.194 320.958C938.162 320.617 938.048 320.324 937.851 320.078C937.651 319.826 937.389 319.632 937.065 319.496C936.712 319.349 936.377 319.29 936.059 319.321C935.739 319.345 935.45 319.469 935.192 319.694C934.93 319.917 934.708 320.246 934.526 320.682L933.758 322.518L942.494 326.172L941.764 327.917L931.637 323.682ZM944.181 322.138L938.637 322.614L939.395 320.782L944.87 320.236L944.961 320.274L944.181 322.138ZM946.547 312.593L947.931 313.172L945.804 318.256L944.42 317.677L946.547 312.593ZM935.881 313.534L946.008 317.769L945.278 319.515L935.151 315.279L935.881 313.534ZM946.101 302.542L946.657 302.775C947.422 303.095 948.067 303.481 948.591 303.935C949.115 304.388 949.513 304.89 949.784 305.439C950.057 305.984 950.2 306.561 950.212 307.171C950.219 307.778 950.092 308.395 949.83 309.021C949.57 309.643 949.222 310.164 948.784 310.586C948.343 311.001 947.831 311.307 947.247 311.504C946.664 311.701 946.025 311.777 945.33 311.732C944.637 311.682 943.908 311.497 943.143 311.177L942.587 310.944C941.822 310.624 941.18 310.236 940.663 309.78C940.141 309.322 939.744 308.818 939.472 308.269C939.198 307.713 939.057 307.133 939.047 306.53C939.035 305.92 939.159 305.305 939.419 304.683C939.681 304.057 940.033 303.535 940.476 303.115C940.914 302.693 941.426 302.387 942.012 302.197C942.594 302.004 943.23 301.935 943.921 301.99C944.609 302.038 945.336 302.222 946.101 302.542ZM945.927 304.52L945.357 304.282C944.791 304.045 944.269 303.892 943.791 303.823C943.311 303.748 942.88 303.755 942.499 303.847C942.115 303.931 941.785 304.095 941.508 304.339C941.227 304.581 941.006 304.895 940.845 305.28C940.684 305.665 940.617 306.04 940.644 306.405C940.666 306.769 940.781 307.119 940.989 307.456C941.194 307.787 941.491 308.099 941.88 308.393C942.265 308.685 942.74 308.949 943.306 309.185L943.876 309.424C944.442 309.661 944.966 309.814 945.448 309.885C945.931 309.956 946.367 309.948 946.758 309.861C947.146 309.767 947.479 309.602 947.758 309.364C948.033 309.125 948.25 308.813 948.411 308.428C948.574 308.038 948.645 307.662 948.622 307.298C948.595 306.933 948.477 306.584 948.268 306.251C948.053 305.916 947.751 305.605 947.36 305.316C946.97 305.022 946.493 304.757 945.927 304.52ZM951.554 297.181C951.346 297.094 951.147 297.049 950.957 297.046C950.77 297.038 950.576 297.085 950.375 297.187C950.175 297.288 949.952 297.456 949.707 297.692C949.458 297.92 949.175 298.227 948.856 298.611C948.506 299.031 948.155 299.407 947.804 299.74C947.45 300.066 947.089 300.329 946.722 300.529C946.35 300.728 945.972 300.845 945.586 300.88C945.197 300.913 944.793 300.842 944.376 300.668C943.963 300.495 943.623 300.252 943.357 299.939C943.092 299.621 942.904 299.251 942.792 298.828C942.677 298.399 942.645 297.936 942.694 297.439C942.739 296.94 942.874 296.425 943.097 295.891C943.411 295.14 943.82 294.551 944.325 294.125C944.833 293.694 945.381 293.431 945.972 293.335C946.564 293.234 947.143 293.302 947.709 293.538L946.985 295.27C946.651 295.131 946.326 295.079 946.011 295.116C945.693 295.147 945.4 295.275 945.131 295.5C944.865 295.721 944.64 296.049 944.458 296.485C944.285 296.898 944.205 297.267 944.215 297.593C944.226 297.919 944.31 298.194 944.467 298.418C944.624 298.641 944.837 298.809 945.106 298.922C945.296 299.001 945.488 299.03 945.683 299.008C945.873 298.984 946.073 298.909 946.283 298.785C946.488 298.658 946.706 298.482 946.937 298.257C947.167 298.032 947.413 297.757 947.675 297.43C948.076 296.939 948.466 296.527 948.845 296.195C949.219 295.861 949.592 295.609 949.963 295.437C950.334 295.266 950.711 295.178 951.094 295.175C951.472 295.169 951.865 295.252 952.273 295.423C952.7 295.601 953.049 295.848 953.32 296.163C953.587 296.476 953.774 296.843 953.882 297.264C953.986 297.678 954.01 298.135 953.954 298.634C953.895 299.127 953.752 299.645 953.525 300.188C953.321 300.674 953.056 301.127 952.728 301.546C952.402 301.96 952.027 302.304 951.602 302.578C951.172 302.851 950.71 303.017 950.216 303.078C949.718 303.136 949.199 303.053 948.662 302.828L949.392 301.082C949.721 301.22 950.025 301.281 950.303 301.267C950.583 301.248 950.84 301.168 951.074 301.026C951.303 300.882 951.509 300.69 951.691 300.45C951.875 300.206 952.032 299.928 952.162 299.617C952.332 299.209 952.417 298.844 952.415 298.522C952.416 298.196 952.341 297.919 952.19 297.693C952.04 297.466 951.828 297.296 951.554 297.181ZM949.42 284.953L956.932 291.65L956.167 293.479L947.635 285.432L948.123 284.263L949.42 284.953ZM959.257 286.092L949.211 285.454L947.806 285.022L948.298 283.846L960.025 284.256L959.257 286.092ZM955.44 284.668L956.824 285.247L954.52 290.755L953.136 290.176L955.44 284.668ZM953.494 271.423L963.621 275.659L962.89 277.405L953.736 278.912L960.991 281.947L960.261 283.692L950.134 279.457L950.864 277.711L960.038 276.195L952.769 273.155L953.494 271.423ZM965.483 271.207L964.578 273.37L963.2 272.777L964.098 270.628C964.36 270.002 964.443 269.421 964.345 268.885C964.25 268.344 963.992 267.86 963.571 267.433C963.153 267.002 962.591 266.639 961.886 266.344L961.336 266.114C960.789 265.885 960.279 265.745 959.804 265.694C959.332 265.638 958.902 265.671 958.513 265.791C958.127 265.908 957.787 266.109 957.493 266.394C957.201 266.675 956.961 267.041 956.773 267.491L955.824 269.758L954.433 269.176L955.382 266.909C955.663 266.236 956.034 265.67 956.493 265.208C956.949 264.745 957.472 264.4 958.062 264.173C958.655 263.941 959.291 263.84 959.971 263.868C960.651 263.896 961.355 264.063 962.083 264.367L962.619 264.591C963.347 264.896 963.96 265.28 964.458 265.744C964.955 266.209 965.33 266.733 965.581 267.317C965.828 267.9 965.946 268.522 965.937 269.182C965.925 269.837 965.773 270.511 965.483 271.207ZM954.855 268.168L964.982 272.403L964.252 274.149L954.125 269.914L954.855 268.168ZM957.779 261.177L959.277 257.595C959.599 256.825 959.989 256.218 960.448 255.772C960.907 255.327 961.424 255.055 961.998 254.958C962.57 254.854 963.188 254.94 963.851 255.218C964.356 255.429 964.763 255.708 965.07 256.054C965.377 256.401 965.592 256.799 965.715 257.248C965.833 257.695 965.866 258.183 965.814 258.711L965.85 259.347L964.503 262.568L963.113 262.003L964.123 259.589C964.297 259.172 964.369 258.793 964.337 258.453C964.305 258.112 964.19 257.819 963.993 257.574C963.794 257.321 963.532 257.127 963.207 256.991C962.855 256.844 962.52 256.786 962.202 256.816C961.881 256.84 961.592 256.964 961.335 257.189C961.073 257.412 960.851 257.741 960.668 258.177L959.9 260.013L968.636 263.667L967.906 265.413L957.779 261.177ZM970.323 259.633L964.78 260.109L965.538 258.277L971.013 257.731L971.103 257.769L970.323 259.633ZM964.292 249.395L971.804 256.092L971.039 257.921L962.506 249.874L962.995 248.706L964.292 249.395ZM974.129 250.535L964.083 249.896L962.678 249.464L963.17 248.288L974.897 248.699L974.129 250.535ZM970.312 249.11L971.696 249.689L969.392 255.197L968.008 254.618L970.312 249.11ZM976.363 245.192L975.458 247.356L974.08 246.763L974.979 244.614C975.241 243.988 975.323 243.406 975.226 242.87C975.131 242.329 974.873 241.845 974.452 241.419C974.033 240.987 973.471 240.624 972.766 240.33L972.217 240.1C971.67 239.871 971.159 239.731 970.685 239.68C970.212 239.624 969.782 239.656 969.394 239.777C969.007 239.893 968.667 240.094 968.373 240.38C968.081 240.661 967.841 241.026 967.653 241.476L966.705 243.744L965.314 243.162L966.262 240.894C966.543 240.222 966.914 239.655 967.374 239.194C967.829 238.73 968.352 238.385 968.943 238.158C969.535 237.927 970.172 237.825 970.852 237.854C971.532 237.882 972.236 238.048 972.964 238.353L973.499 238.577C974.227 238.881 974.84 239.266 975.338 239.73C975.836 240.194 976.21 240.718 976.462 241.303C976.708 241.886 976.827 242.507 976.817 243.168C976.805 243.822 976.654 244.497 976.363 245.192ZM965.736 242.153L975.863 246.389L975.132 248.135L965.006 243.899L965.736 242.153ZM980.175 232.191L981.559 232.77L979.31 238.146L977.926 237.567L980.175 232.191ZM969.39 233.417L979.517 237.652L978.786 239.398L968.659 235.163L969.39 233.417ZM975.367 231.005L976.73 231.576L974.775 236.25L973.412 235.679L975.367 231.005ZM971.417 228.569L972.808 229.151L970.574 234.492L969.183 233.911L971.417 228.569Z" fill="white"/>
<path d="M943.597 384.077L944.765 384.566L942.281 390.505L941.277 390.085L939.337 385.885C939.112 385.419 938.908 385.04 938.725 384.749C938.542 384.458 938.362 384.233 938.186 384.073C938.007 383.908 937.818 383.784 937.619 383.7C937.339 383.583 937.072 383.533 936.817 383.551C936.559 383.562 936.328 383.642 936.123 383.79C935.914 383.936 935.75 384.151 935.632 384.435C935.494 384.764 935.45 385.069 935.498 385.352C935.547 385.634 935.673 385.885 935.877 386.104C936.077 386.321 936.338 386.497 936.658 386.631L936.045 388.097C935.53 387.882 935.108 387.567 934.781 387.154C934.449 386.739 934.251 386.255 934.186 385.704C934.117 385.151 934.214 384.559 934.477 383.931C934.725 383.338 935.034 382.877 935.406 382.546C935.778 382.215 936.192 382.019 936.647 381.957C937.104 381.89 937.581 381.961 938.081 382.17C938.356 382.285 938.612 382.445 938.846 382.648C939.081 382.851 939.299 383.092 939.501 383.372C939.701 383.646 939.89 383.952 940.069 384.289C940.243 384.624 940.412 384.983 940.576 385.366L941.886 388.167L943.597 384.077ZM942.278 375.981L943.726 376.587C944.42 376.877 944.984 377.194 945.417 377.537C945.848 377.874 946.162 378.235 946.359 378.617C946.557 379 946.652 379.4 946.644 379.816C946.639 380.229 946.544 380.654 946.361 381.092C946.215 381.441 946.035 381.747 945.82 382.01C945.607 382.269 945.355 382.478 945.064 382.638C944.773 382.797 944.442 382.9 944.071 382.944C943.697 382.983 943.279 382.961 942.818 382.878C942.359 382.791 941.851 382.631 941.296 382.399L939.847 381.793C939.149 381.501 938.59 381.186 938.169 380.848C937.744 380.508 937.434 380.147 937.241 379.766C937.044 379.383 936.95 378.987 936.96 378.576C936.971 378.161 937.068 377.735 937.252 377.296C937.399 376.944 937.58 376.638 937.793 376.379C938.003 376.114 938.251 375.903 938.536 375.746C938.823 375.585 939.151 375.484 939.521 375.443C939.889 375.396 940.302 375.417 940.761 375.504C941.217 375.589 941.722 375.748 942.278 375.981ZM943.32 378.14L941.445 377.356C941.092 377.208 940.774 377.099 940.489 377.027C940.2 376.954 939.945 376.919 939.725 376.922C939.502 376.92 939.307 376.953 939.14 377.021C938.969 377.088 938.826 377.185 938.71 377.313C938.591 377.44 938.492 377.596 938.414 377.783C938.319 378.01 938.279 378.231 938.293 378.447C938.304 378.661 938.379 378.869 938.519 379.071C938.659 379.272 938.871 379.471 939.156 379.666C939.439 379.856 939.802 380.043 940.244 380.228L942.118 381.012C942.476 381.162 942.798 381.273 943.087 381.346C943.376 381.419 943.635 381.456 943.863 381.456C944.088 381.455 944.287 381.424 944.46 381.363C944.631 381.296 944.777 381.199 944.896 381.073C945.017 380.943 945.116 380.786 945.193 380.604C945.289 380.372 945.33 380.149 945.316 379.933C945.301 379.717 945.222 379.507 945.078 379.304C944.93 379.099 944.711 378.9 944.42 378.707C944.129 378.514 943.762 378.325 943.32 378.14ZM949.106 370.906L950.274 371.395L947.79 377.335L946.786 376.915L944.846 372.714C944.621 372.248 944.417 371.87 944.234 371.578C944.05 371.287 943.871 371.062 943.694 370.902C943.515 370.737 943.327 370.613 943.128 370.53C942.848 370.412 942.58 370.363 942.325 370.38C942.068 370.391 941.837 370.471 941.632 370.619C941.423 370.765 941.259 370.98 941.14 371.264C941.003 371.593 940.958 371.898 941.007 372.181C941.056 372.463 941.182 372.714 941.386 372.933C941.586 373.15 941.846 373.326 942.167 373.46L941.553 374.926C941.038 374.711 940.617 374.396 940.289 373.983C939.957 373.568 939.759 373.084 939.694 372.533C939.625 371.98 939.722 371.389 939.985 370.76C940.233 370.167 940.543 369.706 940.915 369.375C941.287 369.044 941.7 368.848 942.155 368.786C942.612 368.719 943.09 368.79 943.589 368.999C943.865 369.115 944.12 369.274 944.355 369.477C944.589 369.68 944.808 369.921 945.01 370.201C945.21 370.476 945.399 370.781 945.578 371.118C945.752 371.453 945.921 371.812 946.085 372.195L947.395 374.996L949.106 370.906ZM943.327 363.026L952.219 366.745L951.605 368.211L944.455 365.22L944.282 367.701L943.071 367.195L943.254 363.202L943.327 363.026ZM951.631 353.619L953.079 354.225C953.773 354.515 954.336 354.832 954.77 355.175C955.2 355.513 955.515 355.873 955.712 356.256C955.909 356.639 956.004 357.038 955.997 357.455C955.991 357.867 955.897 358.293 955.714 358.731C955.568 359.08 955.387 359.386 955.173 359.648C954.959 359.907 954.707 360.117 954.417 360.276C954.126 360.436 953.795 360.538 953.423 360.583C953.049 360.622 952.632 360.6 952.171 360.517C951.712 360.43 951.204 360.27 950.648 360.037L949.2 359.431C948.502 359.139 947.942 358.824 947.521 358.486C947.096 358.146 946.787 357.786 946.594 357.405C946.396 357.022 946.302 356.625 946.312 356.214C946.324 355.8 946.421 355.373 946.604 354.935C946.752 354.582 946.932 354.276 947.145 354.017C947.356 353.753 947.604 353.542 947.889 353.384C948.176 353.223 948.504 353.122 948.874 353.081C949.241 353.035 949.655 353.055 950.114 353.142C950.569 353.228 951.075 353.387 951.631 353.619ZM952.672 355.778L950.798 354.994C950.445 354.847 950.126 354.737 949.841 354.666C949.553 354.593 949.298 354.558 949.077 354.561C948.854 354.558 948.66 354.591 948.493 354.659C948.322 354.726 948.179 354.824 948.063 354.952C947.943 355.078 947.845 355.235 947.767 355.421C947.671 355.648 947.631 355.87 947.646 356.086C947.656 356.3 947.732 356.508 947.871 356.709C948.011 356.911 948.224 357.109 948.509 357.305C948.792 357.495 949.154 357.682 949.597 357.867L951.471 358.651C951.828 358.8 952.151 358.911 952.44 358.985C952.729 359.058 952.987 359.094 953.216 359.095C953.441 359.093 953.64 359.062 953.813 359.001C953.984 358.934 954.129 358.838 954.249 358.711C954.37 358.581 954.469 358.425 954.545 358.242C954.642 358.011 954.683 357.787 954.668 357.571C954.654 357.355 954.575 357.146 954.431 356.943C954.283 356.738 954.063 356.539 953.772 356.346C953.481 356.152 953.115 355.963 952.672 355.778ZM958.458 348.544L959.627 349.033L957.142 354.973L956.138 354.553L954.198 350.352C953.974 349.887 953.77 349.508 953.586 349.217C953.403 348.926 953.223 348.7 953.047 348.541C952.868 348.375 952.679 348.251 952.48 348.168C952.2 348.051 951.933 348.001 951.678 348.018C951.42 348.03 951.189 348.109 950.984 348.257C950.775 348.404 950.612 348.619 950.493 348.903C950.355 349.231 950.311 349.537 950.36 349.819C950.408 350.102 950.535 350.353 950.739 350.571C950.939 350.789 951.199 350.964 951.519 351.098L950.906 352.565C950.391 352.349 949.969 352.035 949.642 351.621C949.31 351.206 949.112 350.723 949.047 350.171C948.978 349.618 949.075 349.027 949.338 348.398C949.586 347.806 949.896 347.344 950.268 347.014C950.639 346.683 951.053 346.486 951.508 346.424C951.965 346.358 952.443 346.429 952.942 346.638C953.218 346.753 953.473 346.912 953.707 347.115C953.942 347.318 954.16 347.56 954.362 347.84C954.562 348.114 954.752 348.42 954.93 348.756C955.105 349.092 955.274 349.451 955.438 349.834L956.748 352.634L958.458 348.544ZM952.68 340.664L961.572 344.383L960.958 345.85L953.807 342.859L953.635 345.34L952.424 344.833L952.606 340.841L952.68 340.664ZM958.277 337.949L958.644 337.073C958.786 336.732 958.846 336.426 958.821 336.153C958.799 335.877 958.707 335.641 958.546 335.444C958.385 335.248 958.17 335.094 957.902 334.982C957.622 334.865 957.362 334.816 957.121 334.834C956.877 334.847 956.658 334.931 956.464 335.089C956.271 335.241 956.11 335.472 955.981 335.781C955.872 336.04 955.827 336.298 955.844 336.553C955.859 336.802 955.936 337.027 956.076 337.229C956.212 337.429 956.409 337.583 956.669 337.691L956.053 339.164C955.583 338.967 955.216 338.669 954.955 338.269C954.693 337.868 954.548 337.412 954.519 336.899C954.488 336.381 954.585 335.854 954.809 335.319C955.048 334.747 955.352 334.287 955.721 333.941C956.087 333.589 956.507 333.372 956.981 333.288C957.454 333.205 957.967 333.279 958.518 333.51C958.77 333.615 959.001 333.781 959.211 334.007C959.422 334.233 959.586 334.507 959.704 334.828C959.819 335.147 959.871 335.508 959.86 335.909C959.846 336.308 959.744 336.734 959.554 337.189L959.093 338.29L958.277 337.949ZM959.422 338.428L958.618 338.092L959.079 336.99C959.296 336.471 959.542 336.054 959.816 335.74C960.093 335.422 960.386 335.192 960.698 335.051C961.006 334.908 961.318 334.84 961.634 334.848C961.951 334.852 962.262 334.918 962.567 335.045C962.981 335.219 963.318 335.448 963.58 335.734C963.84 336.014 964.024 336.337 964.133 336.702C964.243 337.067 964.278 337.456 964.239 337.869C964.202 338.277 964.094 338.695 963.916 339.121C963.756 339.502 963.551 339.845 963.299 340.15C963.048 340.455 962.761 340.702 962.439 340.891C962.112 341.079 961.759 341.188 961.379 341.22C960.996 341.246 960.598 341.172 960.184 340.999L960.797 339.532C961.061 339.643 961.32 339.679 961.574 339.643C961.825 339.6 962.054 339.491 962.261 339.315C962.47 339.135 962.635 338.9 962.757 338.607C962.886 338.299 962.943 338.01 962.926 337.741C962.91 337.473 962.819 337.234 962.653 337.027C962.489 336.815 962.255 336.646 961.951 336.518C961.606 336.374 961.298 336.324 961.027 336.368C960.756 336.412 960.518 336.536 960.313 336.741C960.104 336.945 959.929 337.215 959.788 337.552L959.422 338.428ZM967.811 326.183L968.979 326.672L966.495 332.612L965.491 332.192L963.551 327.991C963.326 327.525 963.122 327.147 962.939 326.855C962.756 326.564 962.576 326.339 962.399 326.179C962.221 326.014 962.032 325.89 961.833 325.807C961.553 325.689 961.286 325.64 961.03 325.657C960.773 325.668 960.542 325.748 960.337 325.896C960.128 326.042 959.964 326.257 959.845 326.541C959.708 326.87 959.664 327.175 959.712 327.458C959.761 327.74 959.887 327.991 960.091 328.21C960.291 328.427 960.552 328.603 960.872 328.737L960.259 330.203C959.743 329.988 959.322 329.673 958.994 329.26C958.663 328.845 958.464 328.361 958.4 327.81C958.331 327.257 958.428 326.666 958.691 326.037C958.938 325.444 959.248 324.983 959.62 324.652C959.992 324.321 960.406 324.125 960.861 324.063C961.317 323.996 961.795 324.067 962.294 324.276C962.57 324.392 962.825 324.551 963.06 324.754C963.294 324.957 963.513 325.198 963.715 325.478C963.915 325.752 964.104 326.058 964.283 326.395C964.457 326.73 964.626 327.089 964.79 327.472L966.1 330.273L967.811 326.183ZM966.492 318.087L967.94 318.693C968.634 318.983 969.198 319.3 969.631 319.643C970.062 319.98 970.376 320.341 970.573 320.724C970.771 321.106 970.866 321.506 970.858 321.923C970.853 322.335 970.758 322.76 970.575 323.198C970.429 323.547 970.249 323.853 970.034 324.116C969.821 324.375 969.569 324.584 969.278 324.744C968.987 324.903 968.656 325.006 968.284 325.051C967.91 325.09 967.493 325.068 967.032 324.984C966.573 324.897 966.065 324.737 965.509 324.505L964.061 323.899C963.363 323.607 962.804 323.292 962.383 322.954C961.957 322.614 961.648 322.254 961.455 321.872C961.258 321.489 961.164 321.093 961.173 320.682C961.185 320.267 961.282 319.841 961.465 319.403C961.613 319.05 961.793 318.744 962.006 318.485C962.217 318.22 962.465 318.009 962.75 317.852C963.037 317.691 963.365 317.59 963.735 317.549C964.103 317.502 964.516 317.523 964.975 317.61C965.43 317.696 965.936 317.855 966.492 318.087ZM967.534 320.246L965.659 319.462C965.306 319.314 964.987 319.205 964.703 319.133C964.414 319.06 964.159 319.025 963.939 319.028C963.716 319.026 963.521 319.059 963.354 319.127C963.183 319.194 963.04 319.291 962.924 319.419C962.805 319.546 962.706 319.702 962.628 319.889C962.533 320.116 962.492 320.338 962.507 320.553C962.518 320.768 962.593 320.975 962.733 321.177C962.872 321.378 963.085 321.577 963.37 321.772C963.653 321.962 964.016 322.15 964.458 322.335L966.332 323.119C966.689 323.268 967.012 323.379 967.301 323.452C967.59 323.525 967.849 323.562 968.077 323.562C968.302 323.561 968.501 323.53 968.674 323.469C968.845 323.402 968.99 323.306 969.11 323.179C969.231 323.049 969.33 322.892 969.406 322.71C969.503 322.478 969.544 322.255 969.53 322.039C969.515 321.823 969.436 321.614 969.292 321.41C969.144 321.206 968.925 321.007 968.634 320.813C968.343 320.62 967.976 320.431 967.534 320.246ZM973.319 313.012L974.488 313.501L972.004 319.441L970.999 319.021L969.059 314.82C968.835 314.354 968.631 313.976 968.448 313.685C968.264 313.393 968.084 313.168 967.908 313.008C967.729 312.843 967.54 312.719 967.342 312.636C967.062 312.519 966.794 312.469 966.539 312.486C966.282 312.497 966.05 312.577 965.846 312.725C965.637 312.871 965.473 313.086 965.354 313.37C965.217 313.699 965.172 314.005 965.221 314.287C965.27 314.57 965.396 314.82 965.6 315.039C965.8 315.256 966.06 315.432 966.381 315.566L965.767 317.033C965.252 316.817 964.831 316.503 964.503 316.089C964.171 315.674 963.973 315.191 963.908 314.639C963.839 314.086 963.936 313.495 964.199 312.866C964.447 312.274 964.757 311.812 965.129 311.481C965.501 311.151 965.914 310.954 966.369 310.892C966.826 310.825 967.304 310.897 967.803 311.105C968.079 311.221 968.334 311.38 968.569 311.583C968.803 311.786 969.021 312.027 969.224 312.307C969.424 312.582 969.613 312.887 969.791 313.224C969.966 313.559 970.135 313.918 970.299 314.302L971.609 317.102L973.319 313.012ZM971.282 309.592L970.507 310.641L966.253 308.297L968.251 303.52L969.493 304.039L968.004 307.599L970.075 308.751C970.051 308.579 970.052 308.356 970.077 308.08C970.097 307.803 970.173 307.508 970.304 307.195C970.478 306.777 970.703 306.433 970.979 306.162C971.252 305.885 971.567 305.686 971.923 305.563C972.275 305.439 972.662 305.393 973.082 305.426C973.498 305.457 973.935 305.568 974.393 305.76C974.803 305.931 975.161 306.152 975.467 306.423C975.775 306.69 976.015 307 976.187 307.353C976.358 307.707 976.445 308.098 976.446 308.528C976.445 308.951 976.341 309.411 976.134 309.906C975.98 310.275 975.779 310.608 975.531 310.905C975.28 311.196 974.994 311.431 974.671 311.61C974.344 311.788 973.99 311.893 973.61 311.925C973.225 311.955 972.823 311.896 972.403 311.749L973.004 310.313C973.307 310.397 973.586 310.42 973.84 310.383C974.091 310.341 974.313 310.238 974.505 310.075C974.697 309.912 974.85 309.695 974.963 309.423C975.067 309.176 975.113 308.945 975.103 308.731C975.088 308.515 975.024 308.314 974.911 308.129C974.796 307.937 974.639 307.767 974.439 307.616C974.241 307.462 974.007 307.328 973.735 307.215C973.475 307.106 973.223 307.041 972.98 307.02C972.737 306.995 972.509 307.017 972.295 307.084C972.082 307.148 971.892 307.261 971.724 307.425C971.551 307.586 971.411 307.797 971.302 308.056C971.156 308.405 971.095 308.694 971.118 308.923C971.143 309.148 971.198 309.371 971.282 309.592ZM979.918 297.236L981.086 297.725L978.602 303.665L977.598 303.245L975.658 299.044C975.433 298.578 975.229 298.2 975.046 297.908C974.862 297.617 974.683 297.392 974.506 297.232C974.328 297.067 974.139 296.943 973.94 296.86C973.66 296.743 973.392 296.693 973.137 296.71C972.88 296.721 972.649 296.801 972.444 296.949C972.235 297.095 972.071 297.31 971.952 297.594C971.815 297.923 971.77 298.228 971.819 298.511C971.868 298.794 971.994 299.044 972.198 299.263C972.398 299.48 972.658 299.656 972.979 299.79L972.366 301.256C971.85 301.041 971.429 300.726 971.101 300.313C970.77 299.898 970.571 299.414 970.506 298.863C970.438 298.31 970.535 297.719 970.798 297.09C971.045 296.497 971.355 296.036 971.727 295.705C972.099 295.375 972.512 295.178 972.968 295.116C973.424 295.049 973.902 295.121 974.401 295.329C974.677 295.445 974.932 295.604 975.167 295.807C975.401 296.01 975.62 296.251 975.822 296.531C976.022 296.806 976.211 297.111 976.39 297.448C976.564 297.783 976.733 298.142 976.897 298.525L978.207 301.326L979.918 297.236ZM977.88 293.816L977.105 294.865L972.851 292.521L974.85 287.744L976.091 288.263L974.602 291.823L976.673 292.975C976.649 292.803 976.65 292.58 976.675 292.304C976.695 292.027 976.771 291.732 976.902 291.419C977.077 291.001 977.302 290.657 977.577 290.386C977.85 290.109 978.165 289.91 978.521 289.787C978.874 289.663 979.26 289.617 979.68 289.649C980.096 289.68 980.533 289.792 980.992 289.984C981.401 290.155 981.759 290.376 982.066 290.647C982.373 290.914 982.613 291.224 982.785 291.577C982.957 291.93 983.043 292.322 983.045 292.751C983.044 293.175 982.94 293.635 982.733 294.13C982.578 294.499 982.377 294.832 982.129 295.129C981.879 295.42 981.592 295.655 981.269 295.834C980.942 296.012 980.588 296.117 980.208 296.148C979.824 296.178 979.422 296.12 979.002 295.973L979.602 294.537C979.906 294.621 980.184 294.644 980.438 294.607C980.689 294.565 980.911 294.462 981.103 294.299C981.295 294.136 981.448 293.919 981.562 293.647C981.665 293.4 981.712 293.169 981.701 292.955C981.687 292.739 981.623 292.538 981.51 292.353C981.394 292.161 981.237 291.991 981.037 291.84C980.84 291.686 980.605 291.552 980.333 291.439C980.073 291.33 979.822 291.265 979.578 291.244C979.336 291.219 979.107 291.241 978.893 291.308C978.681 291.372 978.49 291.485 978.322 291.648C978.149 291.81 978.009 292.021 977.9 292.28C977.754 292.629 977.693 292.918 977.716 293.147C977.742 293.372 977.796 293.595 977.88 293.816ZM983.448 288.829L983.499 288.708C983.733 288.148 983.855 287.651 983.865 287.216C983.873 286.776 983.792 286.389 983.621 286.056C983.451 285.723 983.207 285.432 982.891 285.186C982.575 284.939 982.208 284.728 981.79 284.554L980.262 283.915C979.901 283.764 979.569 283.67 979.264 283.633C978.958 283.591 978.685 283.6 978.444 283.662C978.202 283.718 977.996 283.816 977.828 283.955C977.662 284.09 977.537 284.26 977.452 284.462C977.358 284.686 977.325 284.908 977.352 285.129C977.376 285.344 977.45 285.549 977.574 285.743C977.695 285.932 977.858 286.108 978.062 286.269C978.264 286.425 978.494 286.557 978.754 286.666C978.997 286.768 979.245 286.838 979.496 286.876C979.744 286.909 979.98 286.902 980.204 286.858C980.428 286.813 980.628 286.723 980.804 286.587C980.98 286.45 981.118 286.263 981.218 286.023C981.313 285.796 981.358 285.569 981.352 285.343C981.343 285.115 981.293 284.899 981.202 284.694C981.111 284.489 980.99 284.307 980.837 284.148C980.684 283.989 980.512 283.864 980.321 283.775L980.725 283.286C981.034 283.415 981.311 283.607 981.557 283.863C981.8 284.112 981.998 284.402 982.151 284.733C982.301 285.058 982.386 285.401 982.407 285.763C982.429 286.12 982.367 286.473 982.221 286.822C982.045 287.244 981.809 287.584 981.515 287.842C981.219 288.095 980.888 288.271 980.522 288.371C980.158 288.466 979.775 288.492 979.374 288.448C978.973 288.405 978.576 288.3 978.182 288.136C977.756 287.958 977.384 287.726 977.065 287.44C976.746 287.154 976.496 286.828 976.315 286.461C976.131 286.093 976.033 285.7 976.023 285.281C976.01 284.856 976.097 284.418 976.286 283.968C976.486 283.489 976.755 283.108 977.093 282.825C977.43 282.542 977.815 282.345 978.247 282.235C978.68 282.125 979.139 282.098 979.626 282.154C980.112 282.21 980.605 282.342 981.104 282.551L981.622 282.767C982.145 282.986 982.631 283.244 983.079 283.541C983.522 283.836 983.907 284.176 984.233 284.56C984.556 284.938 984.802 285.363 984.972 285.835C985.14 286.3 985.208 286.815 985.177 287.379C985.144 287.937 984.99 288.545 984.715 289.202L984.659 289.336L983.448 288.829ZM979.648 276.185L988.54 279.904L987.926 281.371L980.775 278.38L980.603 280.86L979.392 280.354L979.574 276.361L979.648 276.185Z" fill="white"/>
<g clip-path="url(#clip5_1398_5657)">
<rect x="806.186" y="353.917" width="334.859" height="47.2855" transform="rotate(-67.3031 806.186 353.917)" fill="#212529"/>
<g filter="url(#filter3_f_1398_5657)">
<path d="M894.142 150.678C921.425 75.8757 962.559 27.6733 969.271 22.5496L922.606 3.03225L780.367 343.119L849.808 372.162C839.85 335.108 866.86 225.481 894.142 150.678Z" fill="url(#paint5_linear_1398_5657)" fill-opacity="0.8" style="mix-blend-mode:soft-light"/>
</g>
</g>
</g>
</g>
<g filter="url(#filter4_d_1398_5657)">
<g clip-path="url(#clip6_1398_5657)">
<g clip-path="url(#clip7_1398_5657)">
<rect x="937.561" y="176.588" width="210.372" height="330.998" rx="11.5801" transform="rotate(-7.30311 937.561 176.588)" fill="#9E1A2E"/>
<g opacity="0.3" filter="url(#filter5_bf_1398_5657)">
<path d="M908.353 160.618C907.216 155.411 910.503 150.216 915.696 149.015L1130.03 99.4134C1135.22 98.2118 1140.35 101.459 1141.49 106.666L1162.28 201.864L929.14 255.817L908.353 160.618Z" fill="url(#paint6_linear_1398_5657)" fill-opacity="0.5" style="mix-blend-mode:multiply"/>
</g>
<path d="M1065.84 244.579L1033.2 228.039C1033.25 229.398 1033.22 230.592 1033.35 231.769C1033.72 235.085 1034.16 238.394 1034.58 241.709C1035.82 251.372 1037.07 261.033 1038.33 270.694C1038.42 271.399 1038.3 271.827 1037.75 272.258C1034.07 275.182 1030.44 278.151 1026.79 281.112C1026.59 281.269 1026.38 281.405 1026.05 281.641L1025.93 280.664C1023.84 264.44 1021.75 248.216 1019.66 231.991C1019.18 228.224 1019.35 224.56 1021.03 221.162C1022.89 217.399 1025.93 215.349 1029.78 214.602C1034.15 213.756 1038.4 214.553 1042.48 216.286C1046.33 217.925 1050.08 219.887 1053.85 221.751C1056.93 223.27 1059.98 224.843 1063.03 226.426C1063.18 226.51 1063.3 226.625 1063.41 226.765C1063.51 226.904 1063.58 227.065 1063.62 227.236C1064.37 232.848 1065.09 238.469 1065.81 244.081C1065.82 244.175 1065.82 244.28 1065.84 244.579Z" fill="white"/>
</g>
<rect x="938.1" y="177.005" width="209.407" height="330.033" rx="11.0976" transform="rotate(-7.30311 938.1 177.005)" stroke="url(#paint7_radial_1398_5657)" stroke-width="0.96501"/>
<rect x="938.1" y="177.005" width="209.407" height="330.033" rx="11.0976" transform="rotate(-7.30311 938.1 177.005)" stroke="url(#paint8_radial_1398_5657)" stroke-width="0.96501"/>
<rect x="938.1" y="177.005" width="209.407" height="330.033" rx="11.0976" transform="rotate(-7.30311 938.1 177.005)" stroke="url(#paint9_radial_1398_5657)" stroke-width="0.96501"/>
</g>
</g>
</g>
</g>
<defs>
<filter id="filter0_d_1398_5657" x="644.471" y="-99.6441" width="347.242" height="451.556" filterUnits="userSpaceOnUse" color-interpolation-filters="sRGB">
<feFlood flood-opacity="0" result="BackgroundImageFix"/>
<feColorMatrix in="SourceAlpha" type="matrix" values="0 0 0 0 0 0 0 0 0 0 0 0 0 0 0 0 0 0 127 0" result="hardAlpha"/>
<feOffset dx="-9.6501" dy="9.6501"/>
<feGaussianBlur stdDeviation="24.1253"/>
<feColorMatrix type="matrix" values="0 0 0 0 0.203922 0 0 0 0 0.25098 0 0 0 0 0.329412 0 0 0 0.3 0"/>
<feBlend mode="normal" in2="BackgroundImageFix" result="effect1_dropShadow_1398_5657"/>
<feBlend mode="normal" in="SourceGraphic" in2="effect1_dropShadow_1398_5657" result="shape"/>
</filter>
<filter id="filter1_bf_1398_5657" x="641.929" y="-141.639" width="315.91" height="218.414" filterUnits="userSpaceOnUse" color-interpolation-filters="sRGB">
<feFlood flood-opacity="0" result="BackgroundImageFix"/>
<feGaussianBlur in="BackgroundImageFix" stdDeviation="15.4402"/>
<feComposite in2="SourceAlpha" operator="in" result="effect1_backgroundBlur_1398_5657"/>
<feBlend mode="normal" in="SourceGraphic" in2="effect1_backgroundBlur_1398_5657" result="shape"/>
<feGaussianBlur stdDeviation="9.6501" result="effect2_foregroundBlur_1398_5657"/>
</filter>
<filter id="filter2_d_1398_5657" x="713.018" y="-4.69037" width="418.3" height="483.04" filterUnits="userSpaceOnUse" color-interpolation-filters="sRGB">
<feFlood flood-opacity="0" result="BackgroundImageFix"/>
<feColorMatrix in="SourceAlpha" type="matrix" values="0 0 0 0 0 0 0 0 0 0 0 0 0 0 0 0 0 0 127 0" result="hardAlpha"/>
<feOffset dx="-9.6501" dy="9.6501"/>
<feGaussianBlur stdDeviation="24.1253"/>
<feColorMatrix type="matrix" values="0 0 0 0 0.203922 0 0 0 0 0.25098 0 0 0 0 0.329412 0 0 0 0.3 0"/>
<feBlend mode="normal" in2="BackgroundImageFix" result="effect1_dropShadow_1398_5657"/>
<feBlend mode="normal" in="SourceGraphic" in2="effect1_dropShadow_1398_5657" result="shape"/>
</filter>
<filter id="filter3_f_1398_5657" x="749.486" y="-27.8481" width="250.665" height="430.891" filterUnits="userSpaceOnUse" color-interpolation-filters="sRGB">
<feFlood flood-opacity="0" result="BackgroundImageFix"/>
<feBlend mode="normal" in="SourceGraphic" in2="BackgroundImageFix" result="shape"/>
<feGaussianBlur stdDeviation="15.4402" result="effect1_foregroundBlur_1398_5657"/>
</filter>
<filter id="filter4_d_1398_5657" x="879.79" y="110.278" width="347.242" height="451.556" filterUnits="userSpaceOnUse" color-interpolation-filters="sRGB">
<feFlood flood-opacity="0" result="BackgroundImageFix"/>
<feColorMatrix in="SourceAlpha" type="matrix" values="0 0 0 0 0 0 0 0 0 0 0 0 0 0 0 0 0 0 127 0" result="hardAlpha"/>
<feOffset dx="-9.6501" dy="9.6501"/>
<feGaussianBlur stdDeviation="24.1253"/>
<feColorMatrix type="matrix" values="0 0 0 0 0.203922 0 0 0 0 0.25098 0 0 0 0 0.329412 0 0 0 0.3 0"/>
<feBlend mode="normal" in2="BackgroundImageFix" result="effect1_dropShadow_1398_5657"/>
<feBlend mode="normal" in="SourceGraphic" in2="effect1_dropShadow_1398_5657" result="shape"/>
</filter>
<filter id="filter5_bf_1398_5657" x="877.248" y="68.2832" width="315.91" height="218.414" filterUnits="userSpaceOnUse" color-interpolation-filters="sRGB">
<feFlood flood-opacity="0" result="BackgroundImageFix"/>
<feGaussianBlur in="BackgroundImageFix" stdDeviation="15.4402"/>
<feComposite in2="SourceAlpha" operator="in" result="effect1_backgroundBlur_1398_5657"/>
<feBlend mode="normal" in="SourceGraphic" in2="effect1_backgroundBlur_1398_5657" result="shape"/>
<feGaussianBlur stdDeviation="9.6501" result="effect2_foregroundBlur_1398_5657"/>
</filter>
<linearGradient id="paint0_linear_1398_5657" x1="1024" y1="-1.34274e-05" x2="771.111" y2="1149.92" gradientUnits="userSpaceOnUse">
<stop stop-color="#83182F"/>
<stop offset="0.46" stop-color="#9D1A2E"/>
<stop offset="1" stop-color="#9D1A2E"/>
</linearGradient>
<linearGradient id="paint1_linear_1398_5657" x1="787.544" y1="-85.7081" x2="811.687" y2="18.6182" gradientUnits="userSpaceOnUse">
<stop stop-opacity="0.7"/>
<stop offset="1" stop-opacity="0"/>
</linearGradient>
<radialGradient id="paint2_radial_1398_5657" cx="0" cy="0" r="1" gradientUnits="userSpaceOnUse" gradientTransform="translate(957.416 91.752) rotate(165.849) scale(354.227 220.063)">
<stop stop-color="white"/>
<stop offset="1" stop-color="white" stop-opacity="0"/>
</radialGradient>
<radialGradient id="paint3_radial_1398_5657" cx="0" cy="0" r="1" gradientUnits="userSpaceOnUse" gradientTransform="translate(683.413 -225.776) rotate(56.8288) scale(318.037 200.684)">
<stop stop-color="white"/>
<stop offset="1" stop-color="white" stop-opacity="0"/>
</radialGradient>
<radialGradient id="paint4_radial_1398_5657" cx="0" cy="0" r="1" gradientUnits="userSpaceOnUse" gradientTransform="translate(617.834 413.77) rotate(-13.5709) scale(265.174 164.72)">
<stop stop-color="white"/>
<stop offset="1" stop-color="white" stop-opacity="0"/>
</radialGradient>
<linearGradient id="paint5_linear_1398_5657" x1="897.41" y1="192.283" x2="875.374" y2="183.067" gradientUnits="userSpaceOnUse">
<stop stop-color="#0E0F0F"/>
<stop offset="1" stop-color="white" stop-opacity="0.1"/>
</linearGradient>
<linearGradient id="paint6_linear_1398_5657" x1="1022.86" y1="124.214" x2="1047.01" y2="228.54" gradientUnits="userSpaceOnUse">
<stop stop-opacity="0.7"/>
<stop offset="1" stop-opacity="0"/>
</linearGradient>
<radialGradient id="paint7_radial_1398_5657" cx="0" cy="0" r="1" gradientUnits="userSpaceOnUse" gradientTransform="translate(1192.73 301.674) rotate(165.849) scale(354.227 220.063)">
<stop stop-color="white"/>
<stop offset="1" stop-color="white" stop-opacity="0"/>
</radialGradient>
<radialGradient id="paint8_radial_1398_5657" cx="0" cy="0" r="1" gradientUnits="userSpaceOnUse" gradientTransform="translate(918.731 -15.8534) rotate(56.8288) scale(318.037 200.684)">
<stop stop-color="white"/>
<stop offset="1" stop-color="white" stop-opacity="0"/>
</radialGradient>
<radialGradient id="paint9_radial_1398_5657" cx="0" cy="0" r="1" gradientUnits="userSpaceOnUse" gradientTransform="translate(853.152 623.692) rotate(-13.5709) scale(265.174 164.72)">
<stop stop-color="white"/>
<stop offset="1" stop-color="white" stop-opacity="0"/>
</radialGradient>
<clipPath id="clip0_1398_5657">
<rect width="1024" height="980" fill="white"/>
</clipPath>
<clipPath id="clip1_1398_5657">
<rect width="841" height="1750.77" fill="white" transform="translate(183)"/>
</clipPath>
<clipPath id="clip2_1398_5657">
<rect x="702.372" y="-34.3015" width="210.372" height="330.998" rx="9.6501" transform="rotate(-7.30311 702.372 -34.3015)" fill="white"/>
</clipPath>
<clipPath id="clip3_1398_5657">
<rect x="702.242" y="-33.3346" width="210.372" height="330.998" rx="11.5801" transform="rotate(-7.30311 702.242 -33.3346)" fill="white"/>
</clipPath>
<clipPath id="clip4_1398_5657">
<rect x="898.637" y="33.91" width="210.372" height="330.998" rx="9.6501" transform="rotate(22.6969 898.637 33.91)" fill="white"/>
</clipPath>
<clipPath id="clip5_1398_5657">
<rect width="334.859" height="47.2855" fill="white" transform="translate(806.186 353.917) rotate(-67.3031)"/>
</clipPath>
<clipPath id="clip6_1398_5657">
<rect x="937.69" y="175.621" width="210.372" height="330.998" rx="9.6501" transform="rotate(-7.30311 937.69 175.621)" fill="white"/>
</clipPath>
<clipPath id="clip7_1398_5657">
<rect x="937.561" y="176.588" width="210.372" height="330.998" rx="11.5801" transform="rotate(-7.30311 937.561 176.588)" fill="white"/>
</clipPath>
</defs>
</svg>
